<?xml version="1.0" encoding="utf-8"?>
<!-- Generator: Adobe Illustrator 24.1.2, SVG Export Plug-In . SVG Version: 6.00 Build 0)  -->
<svg version="1.1" id="Layer_1" xmlns="http://www.w3.org/2000/svg" xmlns:xlink="http://www.w3.org/1999/xlink" x="0px" y="0px"
	 viewBox="0 0 303 50" style="enable-background:new 0 0 303 50;" xml:space="preserve">
<style type="text/css">
	.st0{enable-background:new    ;}
	.st1{fill:#EAE4D3;}
	.st2{fill:#39C3E6;}
</style>
<g class="st0">
	<path class="st1" d="M61.1,41.4c-1.9-1-3.4-2.4-4.5-4.3c-1.1-1.9-1.6-4-1.6-6.4V15.2c0-2.4,0.5-4.5,1.6-6.4
		c1.1-1.8,2.6-3.2,4.5-4.2s4.1-1.5,6.7-1.5c2.5,0,4.7,0.5,6.7,1.5c1.9,1,3.4,2.4,4.5,4.1c1.1,1.8,1.6,3.9,1.6,6.2v0.3
		c0,0.2-0.1,0.4-0.2,0.5s-0.3,0.2-0.5,0.2l-6.5,0.3c-0.4,0-0.7-0.2-0.7-0.6v-0.7c0-1.5-0.4-2.7-1.3-3.7c-0.9-0.9-2.1-1.4-3.6-1.4
		s-2.7,0.5-3.6,1.4s-1.3,2.1-1.3,3.7v16.3c0,1.5,0.4,2.7,1.3,3.6c0.9,0.9,2.1,1.4,3.6,1.4s2.7-0.5,3.6-1.4s1.3-2.1,1.3-3.6v-0.7
		c0-0.4,0.2-0.6,0.7-0.6l6.5,0.3c0.4,0,0.7,0.1,0.7,0.4V31c0,2.4-0.5,4.5-1.6,6.3s-2.5,3.2-4.5,4.2c-1.9,1-4.1,1.5-6.7,1.5
		C65.3,42.9,63,42.4,61.1,41.4z"/>
</g>
<g>
	<path class="st1" d="M86.6,40.4c-2-1.6-3.3-3.9-3.7-6.8c-0.3-1.8-0.4-3.7-0.4-5.6c0-2.3,0.1-4.2,0.4-5.6c0.4-2.8,1.7-5,3.7-6.6
		s4.7-2.4,7.9-2.4c3.1,0,5.7,0.8,7.8,2.4c2,1.6,3.3,3.8,3.7,6.6c0.3,1.7,0.4,3.6,0.4,5.6c0,1.9-0.1,3.7-0.4,5.5
		c-0.4,2.9-1.6,5.2-3.7,6.9c-2,1.6-4.7,2.5-7.9,2.5S88.6,42.1,86.6,40.4z M97,35.2c0.7-0.7,1.1-1.6,1.3-2.7c0.1-1.2,0.2-2.6,0.2-4.4
		c0-1.7-0.1-3.2-0.2-4.3c-0.2-1.1-0.6-2-1.3-2.6c-0.7-0.6-1.5-1-2.6-1c-1,0-1.9,0.3-2.6,1c-0.7,0.6-1.1,1.5-1.3,2.6
		c-0.2,1.4-0.3,2.9-0.3,4.3c0,1.1,0.1,2.6,0.2,4.4c0.2,1.1,0.6,2,1.3,2.7c0.7,0.7,1.6,1,2.6,1C95.5,36.2,96.3,35.8,97,35.2z"/>
</g>
<g>
	<path class="st1" d="M129.2,16c1.5,1.7,2.3,4.1,2.3,7.2v18.6c0,0.2-0.1,0.3-0.2,0.5c-0.1,0.1-0.3,0.2-0.5,0.2h-6.5
		c-0.2,0-0.3-0.1-0.5-0.2c-0.1-0.1-0.2-0.3-0.2-0.5V24.3c0-1.3-0.3-2.3-0.9-3.1c-0.6-0.7-1.5-1.1-2.6-1.1s-2,0.4-2.6,1.1
		c-0.6,0.8-1,1.8-1,3.1v17.4c0,0.2-0.1,0.3-0.2,0.5c-0.1,0.1-0.3,0.2-0.5,0.2h-6.5c-0.2,0-0.3-0.1-0.5-0.2c-0.1-0.1-0.2-0.3-0.2-0.5
		V14.6c0-0.2,0.1-0.3,0.2-0.5c0.1-0.1,0.3-0.2,0.5-0.2h6.5c0.2,0,0.3,0.1,0.5,0.2c0.1,0.1,0.2,0.3,0.2,0.5v1.5c0,0.1,0,0.2,0.1,0.2
		c0.1,0,0.2,0,0.3-0.1c1.4-1.8,3.3-2.7,5.9-2.7C125.5,13.4,127.6,14.3,129.2,16z"/>
</g>
<g class="st0">
	<path class="st1" d="M154.2,16c1.5,1.7,2.3,4.1,2.3,7.2v18.6c0,0.2-0.1,0.3-0.2,0.5c-0.1,0.1-0.3,0.2-0.5,0.2h-6.5
		c-0.2,0-0.3-0.1-0.5-0.2c-0.1-0.1-0.2-0.3-0.2-0.5V24.3c0-1.3-0.3-2.3-0.9-3.1c-0.6-0.7-1.5-1.1-2.6-1.1s-2,0.4-2.6,1.1
		c-0.6,0.8-1,1.8-1,3.1v17.4c0,0.2-0.1,0.3-0.2,0.5c-0.1,0.1-0.3,0.2-0.5,0.2h-6.5c-0.2,0-0.3-0.1-0.5-0.2c-0.1-0.1-0.2-0.3-0.2-0.5
		V14.6c0-0.2,0.1-0.3,0.2-0.5c0.1-0.1,0.3-0.2,0.5-0.2h6.5c0.2,0,0.3,0.1,0.5,0.2c0.1,0.1,0.2,0.3,0.2,0.5v1.5c0,0.1,0,0.2,0.1,0.2
		c0.1,0,0.2,0,0.3-0.1c1.4-1.8,3.3-2.7,5.9-2.7C150.5,13.4,152.7,14.3,154.2,16z"/>
</g>
<g class="st0">
	<path class="st1" d="M173.6,35.4c0.7-0.5,1.2-1.1,1.6-1.9c0.2-0.4,0.5-0.6,0.8-0.4l5.4,1.1c0.4,0.1,0.6,0.4,0.5,0.8
		c-0.7,2.4-2.1,4.4-4.1,5.7c-1.9,1.4-4.4,2.1-7.2,2.1c-2.9,0-5.5-0.7-7.4-2.2c-2-1.5-3.3-3.5-3.9-6c-0.5-1.9-0.8-4.2-0.8-6.9
		c0-1.9,0.1-3.4,0.2-4.6c0.4-3,1.5-5.4,3.6-7.2c2-1.7,4.7-2.6,8.1-2.6c3.7,0,6.4,0.9,8.3,2.8s3.1,4.5,3.5,8c0.2,2,0.3,3.9,0.3,5.7
		c0,0.4-0.2,0.7-0.7,0.7h-15.1c-0.2,0-0.3,0.1-0.3,0.3c0,0.8,0.1,1.4,0.2,2c0.2,1,0.7,1.9,1.4,2.5c0.8,0.6,1.7,0.9,2.9,0.9
		C172,36.2,172.8,35.9,173.6,35.4z M166.6,23.4c-0.1,0.4-0.1,1-0.2,2c0,0.2,0.1,0.3,0.3,0.3h7.3c0.2,0,0.3-0.1,0.3-0.3
		c0-0.4-0.1-1.1-0.2-1.9c-0.1-1-0.5-1.9-1.2-2.4c-0.6-0.6-1.5-0.9-2.6-0.9C168.3,20.2,167,21.2,166.6,23.4z"/>
</g>
<g class="st0">
	<path class="st1" d="M188.7,40.5c-2-1.6-3.4-3.7-3.8-6.5c-0.3-1.5-0.4-3.5-0.4-6c0-1.9,0.1-3.8,0.4-5.9c0.5-2.7,1.7-4.8,3.9-6.4
		c2-1.6,4.7-2.4,7.9-2.4c3.1,0,5.6,0.8,7.8,2.3c2.1,1.5,3.4,3.5,3.9,6c0.1,0.3,0.1,0.9,0.2,1.6c0,0.4-0.2,0.6-0.7,0.7l-6.5,0.6h-0.1
		c-0.3,0-0.5-0.2-0.6-0.6c0-0.3,0-0.4-0.1-0.6c-0.1-0.3-0.1-0.6-0.2-0.8c-0.2-0.7-0.6-1.4-1.3-1.8c-0.6-0.5-1.4-0.7-2.3-0.7
		c-1,0-1.8,0.3-2.5,0.9s-1,1.4-1.2,2.4c-0.2,1.2-0.3,2.8-0.3,4.6c0,2,0.1,3.6,0.4,4.8c0.2,1,0.6,1.8,1.2,2.4
		c0.6,0.6,1.4,0.9,2.5,0.9c1.1,0,1.9-0.3,2.7-0.9c0.6-0.6,1-1.3,1.1-2.2l0.1-0.7c0-0.2,0.1-0.3,0.2-0.5c0.1-0.1,0.3-0.2,0.5-0.1
		l6.5,0.6c0.4,0.1,0.6,0.3,0.6,0.7c0,0.2,0,0.6-0.1,1.1c-0.4,2.7-1.6,4.8-3.7,6.4c-2.1,1.6-4.8,2.3-8,2.3
		C193.4,42.9,190.8,42.1,188.7,40.5z"/>
</g>
<path class="st1" d="M226.2,19.6c-0.1,0.1-0.3,0.2-0.5,0.2h-4.4c-0.2,0-0.3,0.1-0.3,0.3v12.4c0,1.1,0.2,2,0.7,2.5s1.2,0.7,2.2,0.7
	h1.1c0.2,0,0.3,0.1,0.5,0.2c0.1,0.1,0.2,0.3,0.2,0.5v5.4c0,0.4-0.2,0.7-0.7,0.7c-0.6,0-1.6,0.1-2.9,0.1c-3,0-5.3-0.5-6.7-1.4
	c-1.4-1-2.2-2.8-2.2-5.4V20.1c0-0.2-0.1-0.3-0.3-0.3h-2.7c-0.2,0-0.3-0.1-0.5-0.2c-0.1-0.1-0.2-0.3-0.2-0.5v-4.6
	c0-0.2,0.1-0.3,0.2-0.5c0.1-0.1,0.3-0.2,0.5-0.2h2.7c0.2,0,0.3-0.1,0.3-0.3V7.2c0-0.2,0.1-0.3,0.2-0.5c0.1-0.1,0.3-0.2,0.5-0.2h6.4
	c0.2,0,0.3,0.1,0.5,0.2c0.1,0.1,0.2,0.3,0.2,0.5v6.4c0,0.2,0.1,0.3,0.3,0.3h4.4c0.2,0,0.3,0.1,0.5,0.2c0.1,0.1,0.2,0.3,0.2,0.5v4.6
	C226.4,19.3,226.3,19.5,226.2,19.6z"/>
<path class="st1" d="M245.8,14.6c1.7,0.8,3.2,1.9,4.2,3.3s1.5,3,1.5,4.9v18.9c0,0.2-0.1,0.3-0.2,0.5c-0.1,0.1-0.3,0.2-0.5,0.2h-6.6
	c-0.2,0-0.3-0.1-0.5-0.2c-0.1-0.1-0.2-0.3-0.2-0.5v-1.5c0-0.1,0-0.2-0.1-0.2s-0.1,0-0.2,0.1c-1.5,1.8-3.8,2.7-6.8,2.7
	c-2.5,0-4.7-0.6-6.3-1.9c-1.7-1.3-2.5-3.5-2.5-6.5c0-6,3.9-9.1,11.5-9.1h4.2c0.2,0,0.3-0.1,0.3-0.3v-1.3c0-1.1-0.3-2-1-2.7
	c-0.6-0.7-1.5-1-2.7-1c-0.9,0-1.6,0.2-2.2,0.6s-1,1-1.1,1.7c-0.1,0.4-0.4,0.6-0.8,0.6l-6.8-0.4c-0.2,0-0.3-0.1-0.5-0.2
	c-0.1-0.1-0.2-0.3-0.1-0.4c0.2-2.6,1.3-4.6,3.5-6.2c2.1-1.6,4.8-2.4,8-2.4C242,13.4,244.1,13.8,245.8,14.6z M242.1,35.9
	c0.9-0.7,1.3-1.6,1.3-2.8v-2.3c0-0.2-0.1-0.3-0.3-0.3h-3.3c-1.3,0-2.4,0.3-3.3,0.9c-0.8,0.6-1.2,1.4-1.2,2.6c0,1,0.3,1.7,0.9,2.2
	s1.4,0.8,2.3,0.8C240.2,36.9,241.2,36.6,242.1,35.9z"/>
<g class="st0">
	<path class="st1" d="M274.1,16c1.5,1.7,2.3,4.1,2.3,7.2v18.6c0,0.2-0.1,0.3-0.2,0.5c-0.1,0.1-0.3,0.2-0.5,0.2h-6.5
		c-0.2,0-0.3-0.1-0.5-0.2c-0.1-0.1-0.2-0.3-0.2-0.5V24.3c0-1.3-0.3-2.3-0.9-3.1c-0.6-0.7-1.5-1.1-2.6-1.1c-1.1,0-2,0.4-2.6,1.1
		c-0.6,0.8-1,1.8-1,3.1v17.4c0,0.2-0.1,0.3-0.2,0.5c-0.1,0.1-0.3,0.2-0.5,0.2h-6.5c-0.2,0-0.3-0.1-0.5-0.2c-0.1-0.1-0.2-0.3-0.2-0.5
		V4.2c0-0.2,0.1-0.3,0.2-0.5c0.1-0.1,0.3-0.2,0.5-0.2h6.5c0.2,0,0.3,0.1,0.5,0.2c0.1,0.1,0.2,0.3,0.2,0.5V16c0,0.1,0,0.2,0.1,0.2
		c0.1,0,0.2,0,0.3-0.1c1.4-1.8,3.3-2.7,5.9-2.7C270.5,13.4,272.6,14.3,274.1,16z"/>
</g>
<g class="st0">
	<path class="st1" d="M296.5,14.6c1.7,0.8,3.1,1.9,4.1,3.3s1.5,3,1.5,4.9v18.9c0,0.2-0.1,0.3-0.2,0.5c-0.1,0.1-0.3,0.2-0.5,0.2h-6.5
		c-0.2,0-0.3-0.1-0.5-0.2c-0.1-0.1-0.2-0.3-0.2-0.5v-1.5c0-0.1,0-0.2-0.1-0.2s-0.1,0-0.2,0.1c-1.5,1.8-3.7,2.7-6.7,2.7
		c-2.5,0-4.6-0.6-6.2-1.9c-1.7-1.3-2.5-3.5-2.5-6.5c0-6,3.8-9.1,11.3-9.1h4.1c0.2,0,0.3-0.1,0.3-0.3v-1.3c0-1.1-0.3-2-1-2.7
		c-0.6-0.7-1.5-1-2.7-1c-0.9,0-1.6,0.2-2.2,0.6s-1,1-1.1,1.7c-0.1,0.4-0.4,0.6-0.8,0.6l-6.7-0.4c-0.2,0-0.3-0.1-0.5-0.2
		c-0.1-0.1-0.2-0.3-0.1-0.4c0.2-2.6,1.3-4.6,3.4-6.2s4.7-2.4,7.9-2.4C292.8,13.4,294.8,13.8,296.5,14.6z M292.9,35.9
		c0.9-0.7,1.3-1.6,1.3-2.8v-2.3c0-0.2-0.1-0.3-0.3-0.3h-3.2c-1.3,0-2.4,0.3-3.2,0.9c-0.8,0.6-1.2,1.4-1.2,2.6c0,1,0.3,1.7,0.9,2.2
		s1.4,0.8,2.3,0.8C291,36.9,292,36.6,292.9,35.9z"/>
</g>
<g>
	<path class="st2" d="M27,7.7l1-1.4l2.2-3.1V3c0.1-0.2,0.4-0.3,0.6-0.3c0.1,0,0.3,0,0.4,0.1l4.6,3.3c2-0.3,5.6-0.9,6.9-0.9l0,0
		c1.9,0,1.2,0.9,1.2,0.9l-2.8,4l3.7,2.7c0.3,0.2,0.4,0.7,0.2,1V14l-2.5,3.5l-5.4-1.8c-0.3-0.1-0.6-0.1-0.9-0.1
		c-1.3,0-2.5,0.8-2.9,2.1l-0.6,1.9l-4.6-3.3l-2-1.4l-2.2-1.6c-0.3-0.2-0.4-0.7-0.2-1l2.8-3.9L27,7.7z M7.9,12.5l4.6-3.3
		c0.3-2.1,0.8-5.7,1.3-6.9c0.3-0.9,0.6-1.1,0.8-1.1s0.4,0.2,0.4,0.2L18,5.3l3.7-2.7c0.1-0.1,0.3-0.1,0.4-0.1c0.2,0,0.4,0.1,0.6,0.3
		v0.1l2.4,3.5l-3.3,4.5c-1,1.3-0.7,3.2,0.7,4.2l1.6,1.2l-4.6,3.3l-2,1.4l-2.2,1.6c-0.1,0.1-0.3,0.1-0.4,0.1c-0.2,0-0.4-0.1-0.6-0.3
		l-2.8-3.9L11.2,18l-1-1.4l-2.2-3.1v-0.1C7.6,13.2,7.6,12.7,7.9,12.5z M10.8,37.9L10.8,37.9c-0.1,0-0.2,0.1-0.3,0.1
		c-0.3,0-0.6-0.2-0.7-0.5L8,32.1c-1.9-0.9-5.1-2.5-6.2-3.3c-1.5-1.1-0.5-1.4-0.5-1.4L6,25.9l-1.4-4.3c-0.1-0.4,0.1-0.8,0.5-0.9h0.1
		l4.1-1.3l3.3,4.5c0.6,0.8,1.5,1.2,2.4,1.2c0.6,0,1.3-0.2,1.8-0.6l1.6-1.2l1.7,5.3l0.8,2.3l0.9,2.6c0.1,0.4-0.1,0.8-0.5,0.9L16.7,36
		L16,36.2l-1.6,0.5L10.8,37.9z M34.9,42.7L34.9,42.7c0,0.5-0.3,0.8-0.7,0.8h-5.6c-1.5,1.5-4,4.1-5.1,4.8c-0.5,0.4-0.8,0.5-1.1,0.5
		c-0.4,0-0.4-0.5-0.4-0.5v-4.8h-4.5c-0.4,0-0.7-0.3-0.7-0.7v-0.1v-4.3l5.3-1.7c0.8-0.2,1.4-0.8,1.8-1.5s0.4-1.5,0.2-2.3L23.3,31h5.6
		h2.4h2.8c0.4,0,0.7,0.3,0.7,0.7v4.8v0.8V39L34.9,42.7L34.9,42.7z M48.5,35.4c-0.1,0-0.2,0-0.2,0l-4.6-1.5l-1.4,4.3
		c-0.1,0.3-0.4,0.5-0.7,0.5c-0.1,0-0.1,0-0.2,0h-0.1l-4.1-1.3v-5.6c0-1.7-1.4-3-3-3h-2l1.7-5.3l0.8-2.3l0.9-2.6
		c0.1-0.3,0.4-0.5,0.7-0.5c0.1,0,0.1,0,0.2,0l4.6,1.5l0.7,0.2l1.6,0.5l3.6,1.2h0.1c0.4,0.1,0.6,0.5,0.5,0.9l-1.7,5.4
		c0.9,1.9,2.6,5.1,3,6.3C49.1,35.2,48.7,35.4,48.5,35.4z"/>
</g>
</svg>
