<?xml version="1.0" encoding="utf-8"?>
<!-- Generator: Adobe Illustrator 23.0.4, SVG Export Plug-In . SVG Version: 6.00 Build 0)  -->
<svg version="1.1" id="Layer_1" xmlns="http://www.w3.org/2000/svg" xmlns:xlink="http://www.w3.org/1999/xlink" x="0px" y="0px"
	 viewBox="0 0 396.8 80.5" style="enable-background:new 0 0 396.8 80.5;" xml:space="preserve">
<style type="text/css">
	.st0{enable-background:new    ;}
	.st1{fill:#FFFFFF;}
	.st2{fill:#CEE9F9;}
</style>
<g>
	<g class="st0">
		<path class="st1" d="M86.9,61.1c-2.4-1.3-4.3-3.1-5.6-5.4c-1.3-2.3-2-5-2-8.1V28.1c0-3,0.7-5.7,2-8c1.3-2.3,3.2-4.1,5.6-5.4
			c2.4-1.3,5.2-1.9,8.4-1.9c3.2,0,6,0.6,8.4,1.9c2.4,1.2,4.3,3,5.6,5.2c1.3,2.2,2,4.9,2,7.9v0.4c0,0.2-0.1,0.4-0.2,0.6
			c-0.2,0.2-0.4,0.3-0.6,0.3l-8.2,0.4c-0.6,0-0.8-0.3-0.8-0.8v-0.9c0-1.9-0.6-3.5-1.7-4.6c-1.1-1.2-2.6-1.8-4.5-1.8
			c-1.9,0-3.4,0.6-4.5,1.8c-1.1,1.2-1.7,2.7-1.7,4.6v20.5c0,1.9,0.6,3.4,1.7,4.6c1.1,1.1,2.6,1.7,4.5,1.7c1.9,0,3.4-0.6,4.5-1.7
			c1.1-1.1,1.7-2.7,1.7-4.6v-0.9c0-0.5,0.3-0.8,0.8-0.8l8.2,0.4c0.6,0,0.8,0.2,0.8,0.5v0.6c0,3-0.7,5.6-2,7.9
			c-1.3,2.3-3.2,4.1-5.6,5.3c-2.4,1.2-5.2,1.9-8.4,1.9C92.1,63,89.3,62.3,86.9,61.1z"/>
	</g>
	<g class="st0">
		<g>
			<path class="st1" d="M118.6,59.9c-2.6-2.1-4.1-4.9-4.6-8.6c-0.3-2.3-0.5-4.6-0.5-7c0-2.9,0.2-5.3,0.5-7.1
				c0.6-3.5,2.1-6.3,4.7-8.3c2.6-2.1,5.9-3.1,10-3.1c4,0,7.2,1,9.8,3.1c2.6,2.1,4.1,4.8,4.6,8.3c0.4,2.2,0.6,4.5,0.6,7.1
				c0,2.3-0.2,4.7-0.5,6.9c-0.5,3.7-2.1,6.6-4.6,8.7c-2.6,2.1-5.9,3.1-10,3.1C124.5,63,121.2,62,118.6,59.9z M131.8,53.2
				c0.8-0.8,1.4-2,1.6-3.4c0.2-1.5,0.3-3.3,0.3-5.5s-0.1-4-0.3-5.5c-0.2-1.4-0.8-2.5-1.6-3.3c-0.8-0.8-1.9-1.2-3.2-1.2
				c-1.3,0-2.4,0.4-3.2,1.2c-0.8,0.8-1.4,1.9-1.6,3.3c-0.2,1.8-0.4,3.6-0.4,5.5c0,1.4,0.1,3.3,0.3,5.5c0.2,1.4,0.8,2.5,1.7,3.4
				c0.9,0.8,2,1.3,3.2,1.3C129.9,54.5,131,54.1,131.8,53.2z"/>
		</g>
		<g>
			<path class="st1" d="M172.1,29.1c1.9,2.2,2.9,5.2,2.9,9.1v23.4c0,0.2-0.1,0.4-0.2,0.6c-0.2,0.2-0.4,0.2-0.6,0.2H166
				c-0.2,0-0.4-0.1-0.6-0.2c-0.2-0.2-0.2-0.4-0.2-0.6v-22c0-1.6-0.4-2.9-1.2-3.9c-0.8-0.9-1.9-1.4-3.2-1.4c-1.4,0-2.5,0.5-3.3,1.4
				c-0.8,1-1.2,2.3-1.2,3.9v21.9c0,0.2-0.1,0.4-0.2,0.6c-0.2,0.2-0.4,0.2-0.6,0.2h-8.2c-0.2,0-0.4-0.1-0.6-0.2
				c-0.2-0.2-0.2-0.4-0.2-0.6V27.2c0-0.2,0.1-0.4,0.2-0.6c0.2-0.2,0.4-0.2,0.6-0.2h8.2c0.2,0,0.4,0.1,0.6,0.2
				c0.2,0.2,0.2,0.4,0.2,0.6v1.9c0,0.1,0,0.2,0.1,0.2c0.1,0,0.2,0,0.4-0.2c1.7-2.2,4.2-3.4,7.4-3.4
				C167.5,25.8,170.2,26.9,172.1,29.1z"/>
		</g>
	</g>
	<g class="st0">
		<path class="st1" d="M203.4,29.1c1.9,2.2,2.9,5.2,2.9,9.1v23.4c0,0.2-0.1,0.4-0.2,0.6c-0.2,0.2-0.4,0.2-0.6,0.2h-8.2
			c-0.2,0-0.4-0.1-0.6-0.2c-0.2-0.2-0.2-0.4-0.2-0.6v-22c0-1.6-0.4-2.9-1.2-3.9c-0.8-0.9-1.9-1.4-3.2-1.4c-1.4,0-2.5,0.5-3.3,1.4
			c-0.8,1-1.2,2.3-1.2,3.9v21.9c0,0.2-0.1,0.4-0.2,0.6c-0.2,0.2-0.4,0.2-0.6,0.2h-8.2c-0.2,0-0.4-0.1-0.6-0.2
			c-0.2-0.2-0.2-0.4-0.2-0.6V27.2c0-0.2,0.1-0.4,0.2-0.6c0.2-0.2,0.4-0.2,0.6-0.2h8.2c0.2,0,0.4,0.1,0.6,0.2
			c0.2,0.2,0.2,0.4,0.2,0.6v1.9c0,0.1,0,0.2,0.1,0.2c0.1,0,0.2,0,0.4-0.2c1.7-2.2,4.2-3.4,7.4-3.4C198.7,25.8,201.4,26.9,203.4,29.1
			z"/>
	</g>
	<g class="st0">
		<path class="st1" d="M228.1,53.6c0.8-0.6,1.5-1.4,2-2.4c0.2-0.5,0.6-0.7,1.1-0.6l6.7,1.4c0.6,0.1,0.8,0.5,0.6,1.1
			c-0.9,3.1-2.6,5.5-5,7.3c-2.4,1.8-5.4,2.6-8.9,2.6c-3.7,0-6.8-0.9-9.3-2.8c-2.5-1.9-4.1-4.4-4.8-7.5c-0.7-2.3-1-5.3-1-8.8
			c0-2.3,0.1-4.3,0.3-5.7c0.5-3.8,2-6.8,4.5-9c2.5-2.2,5.9-3.3,10.1-3.3c4.5,0,7.9,1.2,10.3,3.5c2.4,2.4,3.8,5.7,4.2,10.1
			c0.2,2.5,0.4,4.9,0.4,7.2c0,0.6-0.3,0.8-0.8,0.8h-18.6c-0.2,0-0.4,0.1-0.4,0.4c0,1,0.1,1.8,0.2,2.5c0.2,1.3,0.8,2.3,1.8,3.1
			c1,0.8,2.2,1.2,3.6,1.2C226.2,54.5,227.2,54.2,228.1,53.6z M219.5,38.4c-0.1,0.5-0.2,1.3-0.3,2.5c0,0.2,0.1,0.4,0.4,0.4h9.1
			c0.2,0,0.4-0.1,0.4-0.4c0-0.6-0.1-1.4-0.3-2.4c-0.2-1.3-0.7-2.3-1.5-3.1c-0.8-0.7-1.9-1.1-3.2-1.1C221.6,34.3,220,35.7,219.5,38.4
			z"/>
	</g>
	<g class="st0">
		<path class="st1" d="M246.2,60c-2.5-2-4.1-4.7-4.7-8.2c-0.4-1.9-0.6-4.4-0.6-7.6c0-2.3,0.2-4.8,0.6-7.4c0.6-3.4,2.2-6,4.8-8
			c2.6-2,5.8-3,9.7-3c3.8,0,7,1,9.6,2.9c2.6,1.9,4.2,4.4,4.8,7.6c0.1,0.4,0.2,1.1,0.3,2c0,0.5-0.3,0.8-0.8,0.9l-8.1,0.8h-0.1
			c-0.4,0-0.7-0.3-0.8-0.8c0-0.3,0-0.6-0.1-0.7c-0.1-0.4-0.2-0.7-0.3-1c-0.3-0.9-0.8-1.7-1.6-2.3c-0.8-0.6-1.8-0.9-2.9-0.9
			c-1.3,0-2.3,0.4-3.1,1.1c-0.8,0.7-1.3,1.8-1.5,3.1c-0.3,1.5-0.4,3.5-0.4,5.8c0,2.6,0.2,4.6,0.5,6c0.2,1.3,0.7,2.3,1.5,3
			c0.8,0.7,1.8,1.1,3,1.1c1.4,0,2.4-0.4,3.3-1.1c0.8-0.7,1.3-1.7,1.4-2.8l0.1-0.8c0-0.2,0.2-0.4,0.3-0.6c0.2-0.2,0.4-0.2,0.6-0.2
			l8.1,0.7c0.5,0.1,0.8,0.4,0.8,0.9c0,0.3,0,0.7-0.1,1.4c-0.5,3.4-2,6.1-4.6,8.1c-2.6,2-5.9,2.9-9.9,2.9C252,63,248.8,62,246.2,60z"
			/>
	</g>
	<g class="st0">
		<path class="st1" d="M292.5,33.6c-0.2,0.2-0.4,0.2-0.6,0.2h-5.4c-0.2,0-0.4,0.1-0.4,0.4v15.6c0,1.4,0.3,2.5,0.9,3.1
			c0.6,0.6,1.5,0.9,2.7,0.9h1.4c0.2,0,0.4,0.1,0.6,0.2c0.2,0.2,0.2,0.4,0.2,0.6v6.8c0,0.6-0.3,0.8-0.8,0.8c-0.8,0-2,0.1-3.5,0.1
			c-3.7,0-6.4-0.6-8.2-1.8c-1.8-1.2-2.7-3.5-2.7-6.9V34.2c0-0.2-0.1-0.4-0.4-0.4h-3.2c-0.2,0-0.4-0.1-0.6-0.2
			c-0.2-0.2-0.2-0.4-0.2-0.6v-5.7c0-0.2,0.1-0.4,0.2-0.6c0.2-0.2,0.4-0.2,0.6-0.2h3.2c0.2,0,0.4-0.1,0.4-0.4V18
			c0-0.2,0.1-0.4,0.2-0.6c0.2-0.2,0.4-0.2,0.6-0.2h7.8c0.2,0,0.4,0.1,0.6,0.2c0.2,0.2,0.2,0.4,0.2,0.6V26c0,0.2,0.1,0.4,0.4,0.4h5.4
			c0.2,0,0.4,0.1,0.6,0.2c0.2,0.2,0.2,0.4,0.2,0.6V33C292.7,33.2,292.6,33.4,292.5,33.6z"/>
		<path class="st1" d="M316.9,27.3c2.2,1,3.9,2.4,5.2,4.2c1.2,1.8,1.9,3.8,1.9,6.1v23.9c0,0.2-0.1,0.4-0.2,0.6
			c-0.2,0.2-0.4,0.2-0.6,0.2h-8.2c-0.2,0-0.4-0.1-0.6-0.2c-0.2-0.2-0.2-0.4-0.2-0.6v-1.9c0-0.1,0-0.2-0.1-0.3c-0.1,0-0.2,0-0.3,0.1
			c-1.9,2.3-4.7,3.4-8.4,3.4c-3.1,0-5.7-0.8-7.9-2.5c-2.1-1.6-3.2-4.4-3.2-8.2c0-7.6,4.8-11.4,14.3-11.4h5.2c0.2,0,0.4-0.1,0.4-0.4
			v-1.6c0-1.4-0.4-2.5-1.2-3.4c-0.8-0.8-2-1.3-3.4-1.3c-1.1,0-2,0.3-2.7,0.8c-0.7,0.5-1.2,1.2-1.4,2.1c-0.1,0.5-0.5,0.7-1,0.7
			l-8.5-0.5c-0.2,0-0.4-0.1-0.6-0.2c-0.2-0.1-0.2-0.3-0.2-0.6c0.2-3.2,1.7-5.8,4.3-7.8c2.6-2,6-3,10-3
			C312.2,25.8,314.7,26.3,316.9,27.3z M312.3,54.1c1.1-0.9,1.7-2.1,1.7-3.5v-2.9c0-0.2-0.1-0.4-0.4-0.4h-4c-1.7,0-3,0.4-4,1.1
			c-1,0.7-1.5,1.8-1.5,3.2c0,1.2,0.4,2.2,1.1,2.8c0.7,0.7,1.7,1,2.9,1C309.8,55.5,311.2,55,312.3,54.1z"/>
	</g>
	<g class="st0">
		<path class="st1" d="M351.9,29.1c1.9,2.2,2.9,5.2,2.9,9.1v23.4c0,0.2-0.1,0.4-0.2,0.6c-0.2,0.2-0.4,0.2-0.6,0.2h-8.2
			c-0.2,0-0.4-0.1-0.6-0.2c-0.2-0.2-0.2-0.4-0.2-0.6v-22c0-1.6-0.4-2.9-1.2-3.9c-0.8-0.9-1.9-1.4-3.2-1.4c-1.4,0-2.5,0.5-3.3,1.4
			c-0.8,1-1.2,2.3-1.2,3.9v21.9c0,0.2-0.1,0.4-0.2,0.6c-0.2,0.2-0.4,0.2-0.6,0.2h-8.2c-0.2,0-0.4-0.1-0.6-0.2
			c-0.2-0.2-0.2-0.4-0.2-0.6V14.2c0-0.2,0.1-0.4,0.2-0.6c0.2-0.2,0.4-0.2,0.6-0.2h8.2c0.2,0,0.4,0.1,0.6,0.2
			c0.2,0.2,0.2,0.4,0.2,0.6v14.9c0,0.1,0,0.2,0.1,0.2c0.1,0,0.2,0,0.4-0.2c1.7-2.2,4.2-3.4,7.4-3.4
			C347.2,25.8,349.9,26.9,351.9,29.1z"/>
	</g>
	<g class="st0">
		<path class="st1" d="M379.8,27.3c2.2,1,3.9,2.4,5.2,4.2c1.2,1.8,1.9,3.8,1.9,6.1v23.9c0,0.2-0.1,0.4-0.2,0.6
			c-0.2,0.2-0.4,0.2-0.6,0.2h-8.2c-0.2,0-0.4-0.1-0.6-0.2c-0.2-0.2-0.2-0.4-0.2-0.6v-1.9c0-0.1,0-0.2-0.1-0.3c-0.1,0-0.2,0-0.3,0.1
			c-1.9,2.3-4.7,3.4-8.4,3.4c-3.1,0-5.7-0.8-7.9-2.5c-2.1-1.6-3.2-4.4-3.2-8.2c0-7.6,4.8-11.4,14.3-11.4h5.2c0.2,0,0.4-0.1,0.4-0.4
			v-1.6c0-1.4-0.4-2.5-1.2-3.4c-0.8-0.8-2-1.3-3.4-1.3c-1.1,0-2,0.3-2.7,0.8c-0.7,0.5-1.2,1.2-1.4,2.1c-0.1,0.5-0.5,0.7-1,0.7
			l-8.5-0.5c-0.2,0-0.4-0.1-0.6-0.2c-0.2-0.1-0.2-0.3-0.2-0.6c0.2-3.2,1.7-5.8,4.3-7.8c2.6-2,6-3,10-3
			C375,25.8,377.6,26.3,379.8,27.3z M375.2,54.1c1.1-0.9,1.7-2.1,1.7-3.5v-2.9c0-0.2-0.1-0.4-0.4-0.4h-4c-1.7,0-3,0.4-4,1.1
			c-1,0.7-1.5,1.8-1.5,3.2c0,1.2,0.4,2.2,1.1,2.8c0.7,0.7,1.7,1,2.9,1C372.7,55.5,374.1,55,375.2,54.1z"/>
	</g>
	<g>
		<path class="st2" d="M43.3,18.6l1.2-1.7l2.8-3.9l0.1-0.1c0.2-0.2,0.4-0.4,0.7-0.4c0.2,0,0.4,0.1,0.5,0.2l5.8,4.2
			c2.6-0.4,7-1.2,8.7-1.2c0,0,0,0,0,0c2.4,0,1.5,1.1,1.5,1.1l-3.6,5l4.6,3.4c0.4,0.3,0.5,0.8,0.2,1.2l-0.1,0.1l-3.2,4.4l-6.7-2.2
			c-0.4-0.1-0.8-0.2-1.2-0.2c-1.7,0-3.1,1.1-3.6,2.6l-0.8,2.4l-5.7-4.2l-2.5-1.8l-2.8-2.1c-0.4-0.3-0.5-0.8-0.2-1.2l3.6-4.9
			L43.3,18.6z M19.4,24.6l5.8-4.2c0.4-2.6,1.1-7.1,1.6-8.7c0.4-1.1,0.7-1.4,1-1.4c0.3,0,0.5,0.3,0.5,0.3l3.6,5l4.6-3.4
			c0.2-0.1,0.3-0.2,0.5-0.2c0.3,0,0.5,0.1,0.7,0.4l0.1,0.1l3.2,4.4l-4.1,5.7c-1.2,1.7-0.9,4.1,0.8,5.3l2.1,1.5L34,33.5l-2.5,1.8
			l-2.8,2.1c-0.2,0.1-0.3,0.2-0.5,0.2c-0.3,0-0.5-0.1-0.7-0.4l-3.6-4.9l-0.6-0.8l-1.2-1.7l-2.8-3.9l-0.1-0.1
			C18.9,25.5,19,24.9,19.4,24.6z M22.9,56.7L22.9,56.7c-0.2,0.1-0.3,0.1-0.4,0.1c-0.4,0-0.7-0.2-0.8-0.6l-2.2-6.8
			c-2.3-1.2-6.5-3.2-7.8-4.2c-1.9-1.4-0.6-1.8-0.6-1.8l5.8-1.9l-1.8-5.5c-0.2-0.5,0.1-1,0.6-1.1l0.1,0l5.2-1.7l4.1,5.7
			c0.7,1,1.9,1.6,3.1,1.6c0.8,0,1.6-0.3,2.2-0.7l2.1-1.5l2.2,6.8l0.9,2.9l1.1,3.3c0.2,0.5-0.1,1-0.6,1.1l-5.8,1.9l-0.9,0.3l-2,0.7
			L22.9,56.7z M53.2,62.8v0.1c0,0.5-0.4,0.9-0.9,0.9h-7.1c-1.9,1.9-5.1,5.1-6.4,6.1c-0.6,0.5-1.1,0.6-1.3,0.6
			c-0.5,0-0.5-0.6-0.5-0.6v-6.1h-5.7c-0.5,0-0.9-0.4-0.9-0.9v-0.1v-5.4l6.7-2.2c1-0.3,1.8-1,2.2-1.9c0.5-0.9,0.5-1.9,0.2-2.9
			l-0.8-2.4h7.1h3.1h3.5c0.5,0,0.9,0.4,0.9,0.9v6.1v1V58V62.8z M70.4,53.5c-0.1,0-0.3,0-0.3,0l-5.8-1.9L62.5,57
			c-0.1,0.4-0.5,0.6-0.8,0.6c-0.1,0-0.2,0-0.3,0l-0.1,0l-5.2-1.7v-7c0-2.1-1.7-3.8-3.8-3.8h-2.6l2.2-6.8l0.9-2.9L54,32
			c0.1-0.4,0.5-0.6,0.8-0.6c0.1,0,0.2,0,0.3,0l5.8,1.9l0.9,0.3l2,0.7l4.6,1.5l0.1,0c0.5,0.2,0.7,0.7,0.6,1.1l-2.2,6.8
			c1.2,2.3,3.3,6.4,3.8,8C71.2,53.2,70.7,53.5,70.4,53.5z"/>
	</g>
</g>
</svg>
