<svg id="Layer_1" data-name="Layer 1" xmlns="http://www.w3.org/2000/svg" viewBox="0 0 423 98"><defs><style>.cls-1{fill:#58595b;}.cls-2{fill:none;}.cls-3{fill:#66bb6a;}.cls-4{fill:#42a047;}.cls-5{fill:#378e43;}.cls-6{fill:#81c785;}.cls-7{fill:#a5d5a7;}</style></defs><title>logo_tag_425</title><path class="cls-1" d="M84.6,57.3a14.5,14.5,0,0,1-6.2-5.8,18.3,18.3,0,0,1-2.2-8.9V21.4a17.7,17.7,0,0,1,2.2-8.8,14.5,14.5,0,0,1,6.2-5.8,19.1,19.1,0,0,1,9.1-2.1,20.4,20.4,0,0,1,9.2,2,15.6,15.6,0,0,1,6.2,5.7,17.1,17.1,0,0,1,2.1,8.6v.4a1.4,1.4,0,0,1-.2.6.9.9,0,0,1-.7.3l-8.9.4c-.6,0-.9-.2-.9-.8v-1a6.9,6.9,0,0,0-1.9-5,6.3,6.3,0,0,0-4.9-2,6.6,6.6,0,0,0-4.9,2,6.8,6.8,0,0,0-1.8,5V43.3a6.4,6.4,0,0,0,6.7,6.9,6.6,6.6,0,0,0,4.9-1.9,7,7,0,0,0,1.9-5v-1a.8.8,0,0,1,.9-.9l8.9.4q.9,0,.9.6V43a17.4,17.4,0,0,1-2.1,8.6,15.1,15.1,0,0,1-6.2,5.8,20.4,20.4,0,0,1-9.2,2A19.1,19.1,0,0,1,84.6,57.3Z"/><path class="cls-1" d="M119.2,56a13.9,13.9,0,0,1-5.1-9.3,63.3,63.3,0,0,1-.5-7.6,51,51,0,0,1,.5-7.7,13.8,13.8,0,0,1,5.2-9.1c2.8-2.3,6.4-3.4,10.8-3.4a16.3,16.3,0,0,1,10.7,3.4,13.2,13.2,0,0,1,5,9,44.9,44.9,0,0,1,.7,7.7,47.7,47.7,0,0,1-.6,7.6,13.9,13.9,0,0,1-5,9.4c-2.8,2.3-6.4,3.4-10.9,3.4S122,58.3,119.2,56Zm14.3-7.2a6.5,6.5,0,0,0,1.8-3.7,49.7,49.7,0,0,0,.3-6,49.7,49.7,0,0,0-.3-6,6.2,6.2,0,0,0-1.8-3.6,4.6,4.6,0,0,0-3.5-1.3,4.8,4.8,0,0,0-3.5,1.3,6.1,6.1,0,0,0-1.7,3.6,39.4,39.4,0,0,0-.4,6q0,2.4.3,6a5.9,5.9,0,0,0,1.8,3.7,5.2,5.2,0,0,0,3.5,1.4A4.7,4.7,0,0,0,133.5,48.8Z"/><path class="cls-1" d="M177.7,22.5c2.1,2.3,3.1,5.6,3.1,9.9V57.9a1.4,1.4,0,0,1-.2.6.9.9,0,0,1-.7.3H171a.9.9,0,0,1-.7-.3.7.7,0,0,1-.2-.6v-24a6.6,6.6,0,0,0-1.3-4.2,5.1,5.1,0,0,0-7.2,0,6.5,6.5,0,0,0-1.3,4.3V57.9a1.1,1.1,0,0,1-.9.9h-9a1.1,1.1,0,0,1-.9-.9V20.4a1.1,1.1,0,0,1,.9-.9h9a1.1,1.1,0,0,1,.9.9v2.1c0,.2,0,.2.1.3l.4-.2a9.5,9.5,0,0,1,8.1-3.7A11.3,11.3,0,0,1,177.7,22.5Z"/><path class="cls-1" d="M212.6,22.5c2.1,2.3,3.1,5.6,3.1,9.9V57.9a.7.7,0,0,1-.2.6.9.9,0,0,1-.7.3h-8.9a.9.9,0,0,1-.7-.3,1.4,1.4,0,0,1-.2-.6v-24a6.6,6.6,0,0,0-1.3-4.2,4.5,4.5,0,0,0-3.5-1.5,4.7,4.7,0,0,0-3.7,1.5,6.5,6.5,0,0,0-1.3,4.3V57.9a.9.9,0,0,1-.3.6.7.7,0,0,1-.6.3h-9a1.1,1.1,0,0,1-.9-.9V20.4a1.1,1.1,0,0,1,.9-.9h9a.7.7,0,0,1,.6.3.9.9,0,0,1,.3.6v2.1c0,.2,0,.2.2.3l.3-.2a9.5,9.5,0,0,1,8.1-3.7A11.2,11.2,0,0,1,212.6,22.5Z"/><path class="cls-1" d="M240.7,49.2a7.5,7.5,0,0,0,2.1-2.6c.2-.6.6-.8,1.1-.6l7.3,1.5c.6.1.8.5.7,1.1a14.6,14.6,0,0,1-5.5,7.9,17.8,17.8,0,0,1-19.8-.2,14.2,14.2,0,0,1-5.3-8.2,37.2,37.2,0,0,1-1-9.6,52.2,52.2,0,0,1,.3-6.2,15.1,15.1,0,0,1,4.8-9.9c2.7-2.4,6.4-3.6,11-3.6s8.6,1.3,11.2,3.9,4.2,6.2,4.7,11c.2,2.7.4,5.3.4,7.8,0,.6-.4.9-1,.9H231.4a.4.4,0,0,0-.4.4,11.4,11.4,0,0,0,.3,2.8,5.5,5.5,0,0,0,1.9,3.4,7,7,0,0,0,7.5.2Zm-9.4-16.6a26.5,26.5,0,0,0-.3,2.7.4.4,0,0,0,.4.4h9.9c.3,0,.4-.1.4-.4a17,17,0,0,0-.3-2.6,5.2,5.2,0,0,0-1.6-3.3,5,5,0,0,0-3.5-1.2C233.6,28.2,231.9,29.6,231.3,32.6Z"/><path class="cls-1" d="M260.4,56.2a14.3,14.3,0,0,1-5.2-8.9,46.3,46.3,0,0,1-.6-8.3,59.5,59.5,0,0,1,.6-8.1,13.5,13.5,0,0,1,5.2-8.7A16.8,16.8,0,0,1,271,18.9,17.6,17.6,0,0,1,281.4,22a13,13,0,0,1,5.2,8.3,8.7,8.7,0,0,1,.4,2.2c0,.6-.4.9-1,1l-8.7.8h-.2c-.5,0-.7-.2-.8-.8s-.1-.6-.1-.8l-.3-1a5.1,5.1,0,0,0-1.8-2.6,5.3,5.3,0,0,0-3.2-.9,4.9,4.9,0,0,0-3.4,1.2,5.7,5.7,0,0,0-1.6,3.3,36.9,36.9,0,0,0-.5,6.4,36.9,36.9,0,0,0,.5,6.6,5.9,5.9,0,0,0,1.7,3.2,4.2,4.2,0,0,0,3.3,1.3,4.8,4.8,0,0,0,3.6-1.3,4.4,4.4,0,0,0,1.5-3l.2-.9a.9.9,0,0,1,.3-.7.8.8,0,0,1,.7-.2l8.8.8a.9.9,0,0,1,.9,1c0,.3-.1.8-.2,1.5a12.8,12.8,0,0,1-5,8.8A17.4,17.4,0,0,1,271,59.4,17.1,17.1,0,0,1,260.4,56.2Z"/><path class="cls-1" d="M310.8,27.4l-.7.2h-5.9a.4.4,0,0,0-.4.4V45a4.9,4.9,0,0,0,1,3.4,3.7,3.7,0,0,0,2.9,1h1.6a.9.9,0,0,1,.6.3.7.7,0,0,1,.3.6v7.4a.8.8,0,0,1-.9.9h-3.9c-4,0-7-.6-8.9-2s-3-3.8-3-7.5V28c0-.3-.1-.4-.4-.4h-3.5l-.6-.2a.9.9,0,0,1-.3-.7V20.4a1.1,1.1,0,0,1,.9-.9h3.5c.3,0,.4-.1.4-.4V10.4a.9.9,0,0,1,.3-.7l.6-.3h8.5a.9.9,0,0,1,.7.3,1.4,1.4,0,0,1,.2.7v8.7a.4.4,0,0,0,.4.4h5.9a.9.9,0,0,1,.7.3,1.4,1.4,0,0,1,.2.6v6.3A1.4,1.4,0,0,1,310.8,27.4Z"/><path class="cls-1" d="M336.5,20.6a13.2,13.2,0,0,1,5.6,4.5,12,12,0,0,1,2,6.7V57.9a.9.9,0,0,1-.3.6.7.7,0,0,1-.6.3h-9a1.1,1.1,0,0,1-.9-.9V55.8a.4.4,0,0,0-.1-.3c-.1,0-.2,0-.3.2-2.1,2.5-5.1,3.7-9.2,3.7a13.6,13.6,0,0,1-8.6-2.7c-2.2-1.8-3.4-4.7-3.4-8.9,0-8.3,5.2-12.5,15.6-12.5h5.6c.3,0,.4-.1.4-.3V33.2a5.1,5.1,0,0,0-1.3-3.7,4.9,4.9,0,0,0-3.7-1.3,4.8,4.8,0,0,0-3,.8,3.6,3.6,0,0,0-1.5,2.3,1.1,1.1,0,0,1-1.1.8l-9.2-.6-.7-.2a.7.7,0,0,1-.2-.6,11.2,11.2,0,0,1,4.7-8.5,17.5,17.5,0,0,1,10.9-3.3A19.8,19.8,0,0,1,336.5,20.6Zm-5,29.2a4.8,4.8,0,0,0,1.8-3.8V42.7c0-.2-.1-.3-.4-.3h-4.3a7.4,7.4,0,0,0-4.4,1.2,4.3,4.3,0,0,0-1.6,3.5,3.9,3.9,0,0,0,1.3,3.1,4.6,4.6,0,0,0,3.2,1A7.2,7.2,0,0,0,331.5,49.8Z"/><path class="cls-1" d="M375.5,22.5c2.2,2.3,3.2,5.6,3.2,9.9V57.9a.9.9,0,0,1-.3.6.7.7,0,0,1-.6.3h-8.9a.9.9,0,0,1-.7-.3.9.9,0,0,1-.3-.6v-24a6,6,0,0,0-1.3-4.2,4.3,4.3,0,0,0-3.5-1.5,4.6,4.6,0,0,0-3.6,1.5,6.5,6.5,0,0,0-1.3,4.3V57.9a.9.9,0,0,1-.3.6.9.9,0,0,1-.7.3h-8.9a.6.6,0,0,1-.6-.3.9.9,0,0,1-.3-.6V6.2a.9.9,0,0,1,.3-.6.6.6,0,0,1,.6-.3h8.9a.9.9,0,0,1,.7.3.9.9,0,0,1,.3.6V22.5c0,.2,0,.2.1.3l.4-.2a9.5,9.5,0,0,1,8.1-3.7A11,11,0,0,1,375.5,22.5Z"/><path class="cls-1" d="M407,20.6a13.2,13.2,0,0,1,5.6,4.5,12,12,0,0,1,2,6.7V57.9a1.4,1.4,0,0,1-.2.6.9.9,0,0,1-.7.3h-8.9a.9.9,0,0,1-.7-.3.9.9,0,0,1-.3-.6V55.8a.4.4,0,0,0-.1-.3c-.1,0-.2,0-.3.2-2,2.5-5.1,3.7-9.2,3.7a13.3,13.3,0,0,1-8.5-2.7c-2.3-1.8-3.5-4.7-3.5-8.9,0-8.3,5.2-12.5,15.6-12.5h5.7a.3.3,0,0,0,.3-.3V33.2a5.1,5.1,0,0,0-1.3-3.7,4.9,4.9,0,0,0-3.7-1.3,4.8,4.8,0,0,0-3,.8,3.6,3.6,0,0,0-1.5,2.3,1.1,1.1,0,0,1-1.1.8l-9.2-.6-.7-.2a1.4,1.4,0,0,1-.2-.6,11.5,11.5,0,0,1,4.7-8.5,17.5,17.5,0,0,1,10.9-3.3A19.8,19.8,0,0,1,407,20.6Zm-5,29.2a4.8,4.8,0,0,0,1.8-3.8V42.7a.3.3,0,0,0-.3-.3h-4.4a6.9,6.9,0,0,0-4.3,1.2,4.1,4.1,0,0,0-1.6,3.5,4.1,4.1,0,0,0,1.2,3.1,4.7,4.7,0,0,0,3.2,1A7.2,7.2,0,0,0,402,49.8Z"/><path class="cls-1" d="M90.4,68.9a6.4,6.4,0,0,1,1.8,4.7A6,6,0,0,1,85.7,80h-7a.2.2,0,0,0-.2.2V90.6a.4.4,0,0,1-.1.3H76.8c0-.1-.1-.2-.1-.3v-23a.4.4,0,0,1,.1-.3l.3-.2h8.7A6,6,0,0,1,90.4,68.9Zm-1.3,8.3a4.8,4.8,0,0,0,1.3-3.5,4.8,4.8,0,0,0-1.3-3.6,4.5,4.5,0,0,0-3.4-1.3h-7c-.1,0-.2,0-.2.1v9.5h7.2A4.5,4.5,0,0,0,89.1,77.2Z"/><path class="cls-1" d="M98.1,90a6.3,6.3,0,0,1-2.3-3.4,14.7,14.7,0,0,1-.4-4.2,15.6,15.6,0,0,1,.4-4.2,6.7,6.7,0,0,1,2.3-3.4,6.9,6.9,0,0,1,4.1-1.2,6.5,6.5,0,0,1,4.1,1.3,6,6,0,0,1,2.3,3.3,22.3,22.3,0,0,1,0,8.4,6.3,6.3,0,0,1-2.3,3.4,7.1,7.1,0,0,1-4.1,1.3A6.9,6.9,0,0,1,98.1,90Zm7.2-1.3a4.7,4.7,0,0,0,1.6-2.7,15.3,15.3,0,0,0,.2-3.6,15.3,15.3,0,0,0-.2-3.6,4.2,4.2,0,0,0-1.6-2.6,4.8,4.8,0,0,0-3.1-1,4.5,4.5,0,0,0-3.1,1,4.3,4.3,0,0,0-1.7,2.6,24.5,24.5,0,0,0-.2,3.6,24.5,24.5,0,0,0,.2,3.6,4.8,4.8,0,0,0,1.7,2.7,5,5,0,0,0,3.1,1A5.5,5.5,0,0,0,105.3,88.7Z"/><path class="cls-1" d="M116.7,90.6l-4.8-16.3h0c0-.2.1-.3.4-.3h1c.2,0,.4.1.4.3l3.9,14.1a.1.1,0,1,0,.2,0l3.9-14.1a.5.5,0,0,1,.5-.3h.9a.5.5,0,0,1,.5.3l3.9,14.1h.1a.1.1,0,0,0,.1-.1l3.9-14.1a.5.5,0,0,1,.5-.3h1.3c0,.1.1.2,0,.3l-4.8,16.3a.4.4,0,0,1-.4.4h-1c-.3,0-.5-.1-.5-.4l-4-13.5h-.2l-3.8,13.5a.5.5,0,0,1-.5.4h-1.1A.4.4,0,0,1,116.7,90.6Z"/><path class="cls-1" d="M146.3,88.9a4.4,4.4,0,0,0,1.8-2,.4.4,0,0,1,.5-.2l.6.2c.3.2.4.3.3.6a5.7,5.7,0,0,1-2.4,2.7,6.6,6.6,0,0,1-3.8,1.1,6.2,6.2,0,0,1-3.9-1.2,5.8,5.8,0,0,1-2.3-3.2,16.4,16.4,0,0,1-.5-4.5,16.3,16.3,0,0,1,.1-2.5,7.8,7.8,0,0,1,.2-1.6,6.2,6.2,0,0,1,2.2-3.4,6.3,6.3,0,0,1,4.1-1.3,6.6,6.6,0,0,1,4.4,1.4,8.4,8.4,0,0,1,2.3,5.3,14.2,14.2,0,0,1,.1,2.3.4.4,0,0,1-.4.4H138.4a11.1,11.1,0,0,0,.2,3,4.8,4.8,0,0,0,1.6,2.6,5.2,5.2,0,0,0,3.3,1A5.1,5.1,0,0,0,146.3,88.9Zm-7.9-7.5h9.7a17.8,17.8,0,0,0-.1-2.6,4.6,4.6,0,0,0-1.7-2.6,4.5,4.5,0,0,0-3.1-1,4.4,4.4,0,0,0-3,1,4.7,4.7,0,0,0-1.6,2.5A13.8,13.8,0,0,0,138.4,81.4Z"/><path class="cls-1" d="M163.6,74.1a.4.4,0,0,1,.2.5l-.3,1c0,.3-.2.3-.5.2l-1.6-.2a4.4,4.4,0,0,0-3.2,1.5,5,5,0,0,0-1.2,3.4V90.6a.4.4,0,0,1-.1.3h-1.6a.4.4,0,0,1-.1-.3V74.3a.4.4,0,0,1,.1-.3h1.6a.4.4,0,0,1,.1.3v2.2h.1a6.1,6.1,0,0,1,1.9-2,4.6,4.6,0,0,1,2.7-.8A5.8,5.8,0,0,1,163.6,74.1Z"/><path class="cls-1" d="M177.2,90.6l-4.7-16.3h-.1c0-.2.1-.3.4-.3h1c.2,0,.4.1.4.3l3.9,14.1a.1.1,0,0,0,.2,0l3.9-14.1a.5.5,0,0,1,.5-.3h.9a.5.5,0,0,1,.5.3L188,88.3a.1.1,0,0,1,.1.1.1.1,0,0,0,.1-.1l3.9-14.1a.5.5,0,0,1,.5-.3h1.3c0,.1.1.2,0,.3l-4.7,16.3a.5.5,0,0,1-.5.4h-1c-.3,0-.4-.1-.5-.4l-4-13.5H183l-3.8,13.5a.5.5,0,0,1-.5.4h-1.1A.4.4,0,0,1,177.2,90.6Z"/><path class="cls-1" d="M209.1,75.2a5.7,5.7,0,0,1,1.6,4.2V90.6c0,.1-.1.2-.1.3H209a.4.4,0,0,1-.1-.3V79.8a4.5,4.5,0,0,0-1.2-3.3,4.2,4.2,0,0,0-3.2-1.3,4.2,4.2,0,0,0-3.3,1.3,4.1,4.1,0,0,0-1.3,3.2V90.6a.4.4,0,0,1-.1.3h-1.6c0-.1-.1-.2-.1-.3v-23c0-.1.1-.2.1-.3h1.6a.4.4,0,0,1,.1.3v8.3h.2a5.2,5.2,0,0,1,1.9-1.7,6.8,6.8,0,0,1,2.9-.6A6.1,6.1,0,0,1,209.1,75.2Z"/><path class="cls-1" d="M225.5,88.9a4.4,4.4,0,0,0,1.8-2,.4.4,0,0,1,.5-.2l.6.2c.3.2.4.3.2.6a5.5,5.5,0,0,1-2.3,2.7,6.8,6.8,0,0,1-3.8,1.1,6.5,6.5,0,0,1-4-1.2,6.2,6.2,0,0,1-2.2-3.2,16.4,16.4,0,0,1-.5-4.5,16.3,16.3,0,0,1,.1-2.5,7.8,7.8,0,0,1,.2-1.6,5.7,5.7,0,0,1,2.2-3.4,6.3,6.3,0,0,1,4.1-1.3,7,7,0,0,1,6.7,6.7c0,.5.1,1.3.1,2.3s-.2.4-.5.4H217.6a22,22,0,0,0,.1,3,5,5,0,0,0,1.7,2.6,4.9,4.9,0,0,0,3.2,1A5.5,5.5,0,0,0,225.5,88.9Zm-7.9-7.5h9.7a17.8,17.8,0,0,0-.1-2.6,4.6,4.6,0,0,0-1.7-2.6,4.5,4.5,0,0,0-3.1-1,4.4,4.4,0,0,0-3,1,4.2,4.2,0,0,0-1.6,2.5A13.8,13.8,0,0,0,217.6,81.4Z"/><path class="cls-1" d="M245.4,75.2a6,6,0,0,1,1.5,4.2V90.6a.4.4,0,0,1-.1.3h-1.5c-.1-.1-.2-.2-.2-.3V79.8a4.5,4.5,0,0,0-1.2-3.3,3.9,3.9,0,0,0-3.1-1.3,4.5,4.5,0,0,0-3.4,1.3,4.4,4.4,0,0,0-1.2,3.2V90.6c0,.1-.1.2-.1.3h-1.6a.4.4,0,0,1-.1-.3V74.3a.4.4,0,0,1,.1-.3h1.6v1.9h.1a5.5,5.5,0,0,1,2-1.7,6.4,6.4,0,0,1,2.8-.6A6.1,6.1,0,0,1,245.4,75.2Z"/><path class="cls-1" d="M272.7,82.4c0,1-.1,1.8-.1,2.5l-.3,1.8a5.8,5.8,0,0,1-2.1,3.3,6.6,6.6,0,0,1-4,1.3,6,6,0,0,1-2.7-.6,5.4,5.4,0,0,1-1.9-1.8h-.2v8.2a.4.4,0,0,1-.1.3h-1.5l-.2-.3V74.3l.2-.3h1.5a.4.4,0,0,1,.1.3v1.6h.2a6.1,6.1,0,0,1,1.9-1.7,6,6,0,0,1,2.7-.6,6.5,6.5,0,0,1,3.9,1.2,5.9,5.9,0,0,1,2.2,3.3A21.6,21.6,0,0,1,272.7,82.4Zm-2,2.6a14.2,14.2,0,0,0,.2-2.6c0-1.1-.1-1.9-.1-2.5a8.3,8.3,0,0,0-.4-1.5,4.1,4.1,0,0,0-1.5-2.3,4.8,4.8,0,0,0-2.9-.9,4,4,0,0,0-2.7.9,3.9,3.9,0,0,0-1.4,2.3,3.2,3.2,0,0,0-.3,1.4,17.8,17.8,0,0,0-.1,2.6,17.1,17.1,0,0,0,.1,2.6q.1.9.3,1.5a3.9,3.9,0,0,0,1.4,2.3,4.4,4.4,0,0,0,2.7.9,4,4,0,0,0,2.7-.9,4.4,4.4,0,0,0,1.6-2.2A4.2,4.2,0,0,0,270.7,85Z"/><path class="cls-1" d="M287.1,88.9a4.8,4.8,0,0,0,1.7-2c.2-.2.3-.3.6-.2l.6.2c.2.2.3.3.2.6a6.1,6.1,0,0,1-2.3,2.7,7,7,0,0,1-3.8,1.1,6.5,6.5,0,0,1-4-1.2,6.3,6.3,0,0,1-2.3-3.2,17.2,17.2,0,0,1-.4-4.5V79.9c.1-.6.1-1.1.2-1.6a5.8,5.8,0,0,1,2.3-3.4,6.3,6.3,0,0,1,4.1-1.3,6,6,0,0,1,6.5,5.3c.1.5.1.9.2,1.4v2.3c0,.3-.1.4-.4.4H279.1a18,18,0,0,0,.2,3,5,5,0,0,0,1.7,2.6,4.7,4.7,0,0,0,3.2,1A5.5,5.5,0,0,0,287.1,88.9Zm-8-7.5h9.8a15.1,15.1,0,0,0-.2-2.6,4.4,4.4,0,0,0-1.6-2.6,5.3,5.3,0,0,0-6.2,0,4.1,4.1,0,0,0-1.5,2.5A23.3,23.3,0,0,0,279.1,81.4Z"/><path class="cls-1" d="M298.1,90a5.8,5.8,0,0,1-2.3-3.4,14.7,14.7,0,0,1-.4-4.2,22.6,22.6,0,0,1,.3-4.2,6.4,6.4,0,0,1,6.5-4.6,6.7,6.7,0,0,1,4.1,1.3,5.4,5.4,0,0,1,2.2,3.3,14.7,14.7,0,0,1,.4,4.2,14.7,14.7,0,0,1-.4,4.2,5.7,5.7,0,0,1-2.2,3.4,7.4,7.4,0,0,1-4.1,1.3A6.9,6.9,0,0,1,298.1,90Zm7.1-1.3a4.8,4.8,0,0,0,1.7-2.7,24.5,24.5,0,0,0,.2-3.6,24.5,24.5,0,0,0-.2-3.6,4.3,4.3,0,0,0-1.7-2.6,4.6,4.6,0,0,0-3.1-1,4.8,4.8,0,0,0-3.1,1,4.6,4.6,0,0,0-1.6,2.6,24.5,24.5,0,0,0-.2,3.6,24.5,24.5,0,0,0,.2,3.6,5.3,5.3,0,0,0,1.6,2.7,5.5,5.5,0,0,0,3.2,1A4.9,4.9,0,0,0,305.2,88.7Z"/><path class="cls-1" d="M327.5,82.4a18.5,18.5,0,0,1-.1,2.5,9.9,9.9,0,0,1-.2,1.8A5.9,5.9,0,0,1,325,90a6.6,6.6,0,0,1-4,1.3,5.5,5.5,0,0,1-2.6-.6,4.7,4.7,0,0,1-1.9-1.8h-.2v8.5h-1.6a.4.4,0,0,1-.1-.3V74.3a.4.4,0,0,1,.1-.3h1.6v1.9h.2a5.2,5.2,0,0,1,1.9-1.7,5.5,5.5,0,0,1,2.6-.6,6.1,6.1,0,0,1,3.9,1.2,5.9,5.9,0,0,1,2.2,3.3A16,16,0,0,1,327.5,82.4ZM325.6,85a17.1,17.1,0,0,0,.1-2.6,17,17,0,0,0-.1-2.5l-.3-1.5a4.2,4.2,0,0,0-1.6-2.3,4.8,4.8,0,0,0-2.9-.9,3.9,3.9,0,0,0-2.6.9,4.6,4.6,0,0,0-1.5,2.3l-.3,1.4a17.8,17.8,0,0,0-.1,2.6c0,1.2.1,2.1.1,2.6a5.4,5.4,0,0,0,.4,1.5,4,4,0,0,0,4,3.2,4.5,4.5,0,0,0,2.8-.9,3.7,3.7,0,0,0,1.5-2.2A4.3,4.3,0,0,0,325.6,85Z"/><path class="cls-1" d="M332.9,90.9a.4.4,0,0,1-.1-.3v-23a.4.4,0,0,1,.1-.3h1.5l.2.3v23c0,.1-.1.2-.2.3h-1.5Z"/><path class="cls-1" d="M349.6,88.9a4.4,4.4,0,0,0,1.8-2,.4.4,0,0,1,.5-.2l.6.2c.3.2.4.3.3.6a5.7,5.7,0,0,1-2.4,2.7,6.8,6.8,0,0,1-3.8,1.1,6.1,6.1,0,0,1-3.9-1.2,5.8,5.8,0,0,1-2.3-3.2,16.4,16.4,0,0,1-.5-4.5,16.3,16.3,0,0,1,.1-2.5,7.8,7.8,0,0,1,.2-1.6,6.2,6.2,0,0,1,2.2-3.4,6.3,6.3,0,0,1,4.1-1.3,6.6,6.6,0,0,1,4.4,1.4,8.4,8.4,0,0,1,2.3,5.3c0,.5.1,1.3.1,2.3a.4.4,0,0,1-.4.4H341.7a11.1,11.1,0,0,0,.2,3,4.8,4.8,0,0,0,1.6,2.6,5.1,5.1,0,0,0,3.2,1A5.2,5.2,0,0,0,349.6,88.9Zm-7.9-7.5h9.7a17.8,17.8,0,0,0-.1-2.6,4.6,4.6,0,0,0-1.7-2.6,4.5,4.5,0,0,0-3.1-1,4.4,4.4,0,0,0-3,1,4.2,4.2,0,0,0-1.6,2.5A13.8,13.8,0,0,0,341.7,81.4Z"/><path class="cls-1" d="M372.3,75.3H368V86.2a3.4,3.4,0,0,0,.7,2.5,4.5,4.5,0,0,0,2.6.6h.7l.3.2a.4.4,0,0,1,.1.3v.7a.4.4,0,0,1-.4.4h-1a5.8,5.8,0,0,1-3.5-.9c-.9-.6-1.3-1.8-1.3-3.4V75.5h-2.4a.4.4,0,0,1-.1-.3v-.7a.4.4,0,0,1,.1-.3h2.3c.1,0,.1-.1.1-.2V69.9a.4.4,0,0,1,.1-.3h1.5c.1.1.2.2.2.3v3.8c0,.1,0,.2.1.2h4.2a.4.4,0,0,1,.1.3V75A.4.4,0,0,1,372.3,75.3Z"/><path class="cls-1" d="M387.7,75.1a6.1,6.1,0,0,1,1.6,4.2V90.6c0,.1-.1.2-.2.3h-1.5a.4.4,0,0,1-.1-.3V89.1h-.2a5.3,5.3,0,0,1-2.4,1.7,7.8,7.8,0,0,1-3.1.6,6.5,6.5,0,0,1-4-1.2,4.4,4.4,0,0,1-1.5-3.7,4.7,4.7,0,0,1,1.8-3.9,8.1,8.1,0,0,1,5.1-1.5h4.3V79.3a4.1,4.1,0,0,0-1.1-3,4.5,4.5,0,0,0-3.3-1.1,4.9,4.9,0,0,0-2.8.7,2.6,2.6,0,0,0-1.4,1.9c-.1.2-.3.4-.5.3h-1.1c-.3-.1-.4-.2-.3-.4a4.2,4.2,0,0,1,2-2.9,7.6,7.6,0,0,1,4.1-1.1A6.4,6.4,0,0,1,387.7,75.1Zm-1.8,13.5a3.4,3.4,0,0,0,1.6-2.9V82.6h-4a6.8,6.8,0,0,0-4,1,3.1,3.1,0,0,0-1.4,2.8,2.7,2.7,0,0,0,1.1,2.5,4.9,4.9,0,0,0,3,.9A6.7,6.7,0,0,0,385.9,88.6Z"/><path class="cls-1" d="M394.8,90.9a.4.4,0,0,1-.1-.3v-23a.4.4,0,0,1,.1-.3h1.5l.2.3v23c0,.1-.1.2-.2.3h-1.5Z"/><path class="cls-1" d="M402.5,90.9a.4.4,0,0,1-.1-.3v-23a.4.4,0,0,1,.1-.3h1.6a.4.4,0,0,1,.1.3V82.2h.2l7.8-8c.1-.2.3-.2.5-.2h1.2c.2,0,.3,0,.3.2a.4.4,0,0,1-.1.3l-4.3,4.5v.2L415,90.5v.2c0,.2-.2.3-.4.3h-1.1c-.2,0-.3-.1-.4-.3l-4.6-10.4h-.2l-4.1,4.3c-.1.1-.1.1-.1.2v5.9a.4.4,0,0,1-.1.3h-1.6Z"/><path class="cls-1" d="M419.4,90.3a1.9,1.9,0,0,1-.5-1.3,1.7,1.7,0,0,1,.6-1.2,1.8,1.8,0,0,1,1.2-.5,1.9,1.9,0,0,1,1.3.5,1.7,1.7,0,0,1,.6,1.2,1.9,1.9,0,0,1-.5,1.3,1.7,1.7,0,0,1-1.4.5A1.7,1.7,0,0,1,419.4,90.3Z"/><polygon class="cls-2" points="24.3 27.8 28.1 39.5 40.5 39.5 44.3 27.8 34.3 20.5 24.3 27.8"/><path class="cls-3" d="M59.2,16.5l-5-3.7,4-5.5s1-1.2-1.6-1.2a93.6,93.6,0,0,0-9.9,1.3L40.4,2.9a1,1,0,0,0-1.5.2L34.3,9.4l-4.6,6.3a1.1,1.1,0,0,0,.2,1.6l4.4,3.2,10,7.3L46,22.6a1.1,1.1,0,0,1,1.4-.7l7.5,2.4,4.6-6.2A1.2,1.2,0,0,0,59.2,16.5Z"/><path class="cls-4" d="M64.9,44.5a98.6,98.6,0,0,0-4.3-9L63,28.1a1.1,1.1,0,0,0-.7-1.4l-7.4-2.4-7.5-2.4a1.1,1.1,0,0,0-1.4.7l-1.7,5.2L40.5,39.5h5.4a1.2,1.2,0,0,1,1.2,1.1v7.9l7.3,2.4a1.1,1.1,0,0,0,1.4-.7l1.9-5.9,6.6,2.1S65.7,47,64.9,44.5Z"/><path class="cls-5" d="M45.9,39.5H28.1l1.7,5.2a1.1,1.1,0,0,1-.7,1.4l-7.5,2.4v7.8a1.1,1.1,0,0,0,1.1,1.1h6.2v6.9s0,1.5,2,0,5.2-4.8,7.3-6.9h7.7a1.2,1.2,0,0,0,1.2-1.1V40.6A1.2,1.2,0,0,0,45.9,39.5Z"/><path class="cls-6" d="M29.9,17.3a1.1,1.1,0,0,1-.2-1.6l4.6-6.3L29.8,3.1a1.1,1.1,0,0,0-1.6-.2l-5,3.6L19.1.9s-.8-1.3-1.6,1.2a83.2,83.2,0,0,0-1.8,9.8L9.4,16.5a1.2,1.2,0,0,0-.3,1.6l4.6,6.2,4.6,6.4a1.2,1.2,0,0,0,1.6.3l4.4-3.2,10-7.3Z"/><path class="cls-7" d="M29.8,44.7l-1.7-5.2L24.3,27.8,19.9,31a1.2,1.2,0,0,1-1.6-.3l-4.6-6.4L6.3,26.7a1.3,1.3,0,0,0-.7,1.5l2,5.8L1,36.2s-1.5.4.6,1.9,6.2,3.4,8.8,4.8l2.4,7.3a1.1,1.1,0,0,0,1.4.7l7.4-2.4,7.5-2.4A1.1,1.1,0,0,0,29.8,44.7Z"/></svg>