<?xml version="1.0" encoding="utf-8"?>
<svg version="1.1" id="Layer_1" xmlns="http://www.w3.org/2000/svg" xmlns:xlink="http://www.w3.org/1999/xlink" x="0px" y="0px"
	 viewBox="0 0 300 46" style="enable-background:new 0 0 300 46;" xml:space="preserve">
<style type="text/css">
	.st0{fill:#FFFFFF;}
	.st1{fill:none;}
	.st2{fill:#595A5C;}
	.st3{fill:#CEEAFA;}
	.st4{fill:#174998;}
	.st5{fill:#9CC9EC;}
	.st6{fill:#467ABE;}
</style>
<g>
	<g>
		<path class="st0" d="M61.1,40.6c-1.9-1-3.4-2.4-4.4-4.2c-1-1.8-1.6-3.9-1.6-6.3v-15c0-2.3,0.5-4.4,1.6-6.2c1-1.8,2.5-3.2,4.4-4.1
			c1.9-1,4.1-1.5,6.6-1.5c2.5,0,4.7,0.5,6.6,1.4c1.9,1,3.4,2.3,4.4,4c1,1.7,1.6,3.7,1.6,6v0.3c0,0.2-0.1,0.3-0.2,0.5
			c-0.1,0.1-0.3,0.2-0.5,0.2l-6.4,0.3c-0.4,0-0.7-0.2-0.7-0.6v-0.7c0-1.5-0.4-2.7-1.3-3.6c-0.9-0.9-2.1-1.3-3.5-1.3
			c-1.5,0-2.6,0.5-3.5,1.3c-0.9,0.9-1.3,2.1-1.3,3.6v15.8c0,1.5,0.4,2.7,1.3,3.5c0.9,0.9,2.1,1.3,3.5,1.3c1.5,0,2.6-0.4,3.5-1.3
			c0.9-0.9,1.3-2.1,1.3-3.5V30c0-0.4,0.2-0.6,0.7-0.6l6.4,0.3c0.4,0,0.7,0.1,0.7,0.4v0.4c0,2.3-0.5,4.3-1.6,6.1
			c-1,1.8-2.5,3.1-4.4,4.1c-1.9,1-4.1,1.4-6.6,1.4C65.2,42.1,63,41.6,61.1,40.6z"/>
		<path class="st0" d="M86.1,39.7c-2-1.6-3.2-3.8-3.6-6.6c-0.3-1.8-0.4-3.6-0.4-5.4c0-2.2,0.1-4,0.4-5.5c0.4-2.7,1.7-4.8,3.7-6.4
			c2-1.6,4.6-2.4,7.8-2.4c3.1,0,5.7,0.8,7.7,2.4c2,1.6,3.2,3.7,3.6,6.4c0.3,1.7,0.4,3.5,0.4,5.5c0,1.8-0.1,3.6-0.4,5.3
			c-0.4,2.8-1.6,5.1-3.6,6.7c-2,1.6-4.6,2.4-7.8,2.4C90.7,42.1,88.1,41.3,86.1,39.7z M96.4,34.6c0.7-0.6,1.1-1.5,1.3-2.6
			c0.1-1.2,0.2-2.6,0.2-4.3c0-1.7-0.1-3.1-0.2-4.2c-0.2-1.1-0.6-1.9-1.3-2.6c-0.7-0.6-1.5-0.9-2.5-0.9c-1,0-1.9,0.3-2.5,0.9
			c-0.7,0.6-1.1,1.5-1.3,2.6c-0.2,1.4-0.3,2.8-0.3,4.2c0,1.1,0.1,2.5,0.2,4.3c0.2,1.1,0.6,1.9,1.3,2.6c0.7,0.6,1.5,1,2.5,1
			C94.9,35.6,95.8,35.2,96.4,34.6z"/>
		<path class="st0" d="M128.2,16c1.5,1.7,2.3,4,2.3,7v18c0,0.2-0.1,0.3-0.2,0.5c-0.1,0.1-0.3,0.2-0.5,0.2h-6.4
			c-0.2,0-0.3-0.1-0.5-0.2c-0.1-0.1-0.2-0.3-0.2-0.5V24.1c0-1.3-0.3-2.2-0.9-3c-0.6-0.7-1.5-1.1-2.5-1.1c-1.1,0-2,0.4-2.6,1.1
			c-0.6,0.7-1,1.7-1,3V41c0,0.2-0.1,0.3-0.2,0.5c-0.1,0.1-0.3,0.2-0.5,0.2h-6.4c-0.2,0-0.3-0.1-0.5-0.2c-0.1-0.1-0.2-0.3-0.2-0.5
			V14.6c0-0.2,0.1-0.3,0.2-0.5c0.1-0.1,0.3-0.2,0.5-0.2h6.4c0.2,0,0.3,0.1,0.5,0.2c0.1,0.1,0.2,0.3,0.2,0.5V16c0,0.1,0,0.2,0.1,0.2
			c0.1,0,0.2,0,0.3-0.1c1.4-1.7,3.3-2.6,5.8-2.6C124.6,13.5,126.7,14.3,128.2,16z"/>
		<path class="st0" d="M153.4,16c1.5,1.7,2.3,4,2.3,7v18c0,0.2-0.1,0.3-0.2,0.5c-0.1,0.1-0.3,0.2-0.5,0.2h-6.4
			c-0.2,0-0.3-0.1-0.5-0.2c-0.1-0.1-0.2-0.3-0.2-0.5V24.1c0-1.3-0.3-2.2-0.9-3c-0.6-0.7-1.5-1.1-2.5-1.1c-1.1,0-2,0.4-2.6,1.1
			c-0.6,0.7-1,1.7-1,3V41c0,0.2-0.1,0.3-0.2,0.5c-0.1,0.1-0.3,0.2-0.5,0.2h-6.4c-0.2,0-0.3-0.1-0.5-0.2c-0.1-0.1-0.2-0.3-0.2-0.5
			V14.6c0-0.2,0.1-0.3,0.2-0.5c0.1-0.1,0.3-0.2,0.5-0.2h6.4c0.2,0,0.3,0.1,0.5,0.2c0.1,0.1,0.2,0.3,0.2,0.5V16c0,0.1,0,0.2,0.1,0.2
			c0.1,0,0.2,0,0.3-0.1c1.4-1.7,3.3-2.6,5.8-2.6C149.8,13.5,151.9,14.3,153.4,16z"/>
		<path class="st0" d="M172.6,34.9c0.7-0.5,1.2-1.1,1.5-1.8c0.2-0.4,0.5-0.5,0.8-0.4l5.2,1.1c0.4,0.1,0.6,0.4,0.5,0.8
			c-0.7,2.4-2,4.2-3.9,5.6c-1.9,1.3-4.2,2-7,2c-2.9,0-5.3-0.7-7.3-2.2c-1.9-1.5-3.2-3.4-3.8-5.8c-0.5-1.8-0.8-4-0.8-6.7
			c0-1.8,0.1-3.3,0.2-4.4c0.4-3,1.5-5.3,3.5-7c2-1.7,4.6-2.5,7.9-2.5c3.5,0,6.2,0.9,8.1,2.7c1.9,1.8,3,4.4,3.3,7.7
			c0.2,1.9,0.3,3.8,0.3,5.6c0,0.4-0.2,0.6-0.7,0.6H166c-0.2,0-0.3,0.1-0.3,0.3c0,0.8,0.1,1.4,0.2,1.9c0.2,1,0.7,1.8,1.4,2.4
			c0.8,0.6,1.7,0.9,2.9,0.9C171.1,35.6,172,35.3,172.6,34.9z M165.9,23.1c-0.1,0.4-0.1,1-0.2,1.9c0,0.2,0.1,0.3,0.3,0.3h7.2
			c0.2,0,0.3-0.1,0.3-0.3c0-0.4-0.1-1-0.2-1.8c-0.1-1-0.5-1.8-1.2-2.4c-0.6-0.6-1.5-0.9-2.5-0.9C167.5,20,166.3,21.1,165.9,23.1z"/>
		<path class="st0" d="M187.9,39.8c-2-1.5-3.2-3.6-3.7-6.3c-0.3-1.5-0.4-3.4-0.4-5.8c0-1.8,0.1-3.7,0.4-5.7c0.5-2.6,1.7-4.7,3.7-6.2
			c2-1.5,4.6-2.3,7.6-2.3c3,0,5.5,0.7,7.5,2.2c2,1.5,3.3,3.4,3.8,5.8c0.1,0.3,0.1,0.8,0.2,1.6c0,0.4-0.2,0.6-0.7,0.7l-6.3,0.6h-0.1
			c-0.3,0-0.5-0.2-0.6-0.6c0-0.3,0-0.4-0.1-0.5c-0.1-0.3-0.1-0.5-0.2-0.8c-0.2-0.7-0.6-1.3-1.3-1.8c-0.6-0.5-1.4-0.7-2.3-0.7
			c-1,0-1.8,0.3-2.4,0.9c-0.6,0.6-1,1.4-1.2,2.4c-0.2,1.2-0.3,2.7-0.3,4.5c0,2,0.1,3.5,0.4,4.6c0.2,1,0.6,1.7,1.2,2.3
			c0.6,0.6,1.4,0.9,2.4,0.9c1.1,0,1.9-0.3,2.6-0.9c0.6-0.6,1-1.3,1.1-2.2l0.1-0.6c0-0.2,0.1-0.3,0.2-0.5c0.1-0.1,0.3-0.2,0.5-0.1
			l6.4,0.5c0.4,0.1,0.6,0.3,0.6,0.7c0,0.2,0,0.6-0.1,1.1c-0.4,2.6-1.6,4.7-3.6,6.2c-2,1.5-4.6,2.3-7.7,2.3
			C192.4,42.1,189.9,41.3,187.9,39.8z"/>
		<path class="st0" d="M224.1,19.4c-0.1,0.1-0.3,0.2-0.5,0.2h-4.2c-0.2,0-0.3,0.1-0.3,0.3v12c0,1.1,0.2,1.9,0.7,2.4
			c0.5,0.5,1.2,0.7,2.1,0.7h1.1c0.2,0,0.3,0.1,0.5,0.2c0.1,0.1,0.2,0.3,0.2,0.5v5.2c0,0.4-0.2,0.6-0.7,0.6c-0.6,0-1.5,0.1-2.8,0.1
			c-2.9,0-5.1-0.5-6.5-1.4c-1.4-0.9-2.1-2.7-2.1-5.3v-15c0-0.2-0.1-0.3-0.3-0.3h-2.5c-0.2,0-0.3-0.1-0.5-0.2
			c-0.1-0.1-0.2-0.3-0.2-0.5v-4.4c0-0.2,0.1-0.3,0.2-0.5c0.1-0.1,0.3-0.2,0.5-0.2h2.5c0.2,0,0.3-0.1,0.3-0.3V7.4
			c0-0.2,0.1-0.3,0.2-0.5c0.1-0.1,0.3-0.2,0.5-0.2h6.1c0.2,0,0.3,0.1,0.5,0.2c0.1,0.1,0.2,0.3,0.2,0.5v6.2c0,0.2,0.1,0.3,0.3,0.3
			h4.2c0.2,0,0.3,0.1,0.5,0.2c0.1,0.1,0.2,0.3,0.2,0.5V19C224.3,19.2,224.3,19.3,224.1,19.4z"/>
		<path class="st0" d="M243.7,14.6c1.7,0.8,3.1,1.9,4,3.2c1,1.4,1.5,3,1.5,4.7V41c0,0.2-0.1,0.3-0.2,0.5c-0.1,0.1-0.3,0.2-0.5,0.2
			h-6.4c-0.2,0-0.3-0.1-0.5-0.2c-0.1-0.1-0.2-0.3-0.2-0.5v-1.5c0-0.1,0-0.2-0.1-0.2c-0.1,0-0.1,0-0.2,0.1c-1.5,1.8-3.7,2.6-6.6,2.6
			c-2.5,0-4.5-0.6-6.2-1.9c-1.7-1.3-2.5-3.4-2.5-6.3c0-5.9,3.7-8.8,11.2-8.8h4.1c0.2,0,0.3-0.1,0.3-0.3v-1.2c0-1.1-0.3-1.9-1-2.6
			c-0.6-0.6-1.5-1-2.7-1c-0.8,0-1.6,0.2-2.1,0.6c-0.6,0.4-1,0.9-1.1,1.6c-0.1,0.4-0.4,0.5-0.8,0.5l-6.7-0.4c-0.2,0-0.3-0.1-0.5-0.2
			c-0.1-0.1-0.2-0.3-0.1-0.4c0.2-2.5,1.3-4.5,3.4-6c2.1-1.5,4.7-2.3,7.8-2.3C240,13.5,241.9,13.9,243.7,14.6z M240.1,35.3
			c0.9-0.7,1.3-1.6,1.3-2.7v-2.3c0-0.2-0.1-0.3-0.3-0.3H238c-1.3,0-2.4,0.3-3.1,0.9c-0.8,0.6-1.2,1.4-1.2,2.5c0,0.9,0.3,1.7,0.9,2.2
			c0.6,0.5,1.4,0.8,2.3,0.8C238.1,36.3,239.2,36,240.1,35.3z"/>
		<path class="st0" d="M271.8,16c1.5,1.7,2.3,4,2.3,7v18c0,0.2-0.1,0.3-0.2,0.5c-0.1,0.1-0.3,0.2-0.5,0.2H267
			c-0.2,0-0.3-0.1-0.5-0.2c-0.1-0.1-0.2-0.3-0.2-0.5V24.1c0-1.3-0.3-2.2-0.9-3c-0.6-0.7-1.5-1.1-2.5-1.1c-1.1,0-2,0.4-2.6,1.1
			c-0.6,0.7-1,1.7-1,3V41c0,0.2-0.1,0.3-0.2,0.5c-0.1,0.1-0.3,0.2-0.5,0.2h-6.4c-0.2,0-0.3-0.1-0.5-0.2c-0.1-0.1-0.2-0.3-0.2-0.5
			V4.5c0-0.2,0.1-0.3,0.2-0.5c0.1-0.1,0.3-0.2,0.5-0.2h6.4c0.2,0,0.3,0.1,0.5,0.2c0.1,0.1,0.2,0.3,0.2,0.5V16c0,0.1,0,0.2,0.1,0.2
			c0.1,0,0.2,0,0.3-0.1c1.4-1.7,3.3-2.6,5.8-2.6C268.2,13.5,270.3,14.3,271.8,16z"/>
		<path class="st0" d="M294.5,14.6c1.7,0.8,3.1,1.9,4,3.2c1,1.4,1.5,3,1.5,4.7V41c0,0.2-0.1,0.3-0.2,0.5c-0.1,0.1-0.3,0.2-0.5,0.2
			h-6.4c-0.2,0-0.3-0.1-0.5-0.2c-0.1-0.1-0.2-0.3-0.2-0.5v-1.5c0-0.1,0-0.2-0.1-0.2c-0.1,0-0.1,0-0.2,0.1c-1.5,1.8-3.7,2.6-6.6,2.6
			c-2.5,0-4.5-0.6-6.2-1.9c-1.7-1.3-2.5-3.4-2.5-6.3c0-5.9,3.7-8.8,11.2-8.8h4.1c0.2,0,0.3-0.1,0.3-0.3v-1.2c0-1.1-0.3-1.9-1-2.6
			c-0.6-0.6-1.5-1-2.7-1c-0.8,0-1.6,0.2-2.1,0.6c-0.6,0.4-1,0.9-1.1,1.6c-0.1,0.4-0.4,0.5-0.8,0.5l-6.7-0.4c-0.2,0-0.3-0.1-0.5-0.2
			c-0.1-0.1-0.2-0.3-0.1-0.4c0.2-2.5,1.3-4.5,3.4-6c2.1-1.5,4.7-2.3,7.8-2.3C290.8,13.5,292.8,13.9,294.5,14.6z M290.9,35.3
			c0.9-0.7,1.3-1.6,1.3-2.7v-2.3c0-0.2-0.1-0.3-0.3-0.3h-3.1c-1.3,0-2.4,0.3-3.1,0.9c-0.8,0.6-1.2,1.4-1.2,2.5
			c0,0.9,0.3,1.7,0.9,2.2c0.6,0.5,1.4,0.8,2.3,0.8C289,36.3,290,36,290.9,35.3z"/>
	</g>
	<g>
		<polygon class="st1" points="17.9,19.8 20.6,28.1 29.5,28.1 32.2,19.8 25,14.7 		"/>
		<path class="st2" d="M42.9,11.9l-3.6-2.6l2.9-3.9c0,0,0.7-0.8-1.2-0.8c-1.3,0-5,0.6-7.1,0.9l-4.5-3.2c-0.4-0.3-0.9-0.2-1.1,0.2
			L25,6.9l-3.3,4.5c-0.3,0.4-0.2,0.8,0.2,1.1l3.1,2.2l7.2,5.1l1.2-3.6c0.1-0.4,0.6-0.7,1-0.5l5.4,1.7l3.3-4.4
			C43.3,12.7,43.2,12.2,42.9,11.9z"/>
		<path class="st2" d="M47,31.6c-0.4-1.2-2.1-4.5-3.1-6.3l1.7-5.2c0.1-0.4-0.1-0.9-0.5-1l-5.3-1.7l-5.4-1.7c-0.4-0.1-0.9,0.1-1,0.5
			l-1.2,3.6l-2.7,8.3h3.9c0.5,0,0.8,0.4,0.8,0.8v5.6l5.3,1.7c0.4,0.1,0.9-0.1,1-0.5l1.4-4.1l4.7,1.5C46.5,33,47.6,33.3,47,31.6z"/>
		<path class="st2" d="M33.3,28.1h-3.9h-8.9l1.2,3.6c0.1,0.4-0.1,0.9-0.5,1l-5.4,1.7v5.4c0,0.4,0.4,0.8,0.8,0.8h4.4v4.8
			c0,0-0.1,1.1,1.5,0c1.1-0.8,3.7-3.4,5.2-4.8h5.5c0.5,0,0.8-0.4,0.8-0.8v-5.4v-5.6C34.2,28.5,33.8,28.1,33.3,28.1z"/>
		<path class="st2" d="M21.9,12.5c-0.4-0.3-0.5-0.8-0.2-1.1L25,6.9l-3.3-4.4c-0.3-0.4-0.8-0.4-1.1-0.2L17,4.9L14.1,1
			c0,0-0.6-0.9-1.2,0.8c-0.4,1.2-1,4.9-1.3,6.9l-4.5,3.2C6.8,12.2,6.7,12.7,7,13l3.3,4.4l3.3,4.5c0.3,0.4,0.8,0.4,1.1,0.2l3.1-2.2
			l7.2-5.1L21.9,12.5z"/>
		<path class="st2" d="M21.8,31.7l-1.2-3.6l-2.7-8.3l-3.1,2.2c-0.4,0.3-0.9,0.2-1.1-0.2l-3.3-4.5L5,19.1c-0.4,0.1-0.6,0.6-0.5,1
			l1.4,4.1l-4.7,1.5c0,0-1.1,0.3,0.4,1.4c1.1,0.8,4.4,2.4,6.3,3.3l1.7,5.2c0.1,0.4,0.6,0.7,1,0.5l5.3-1.7l5.4-1.7
			C21.7,32.6,22,32.1,21.8,31.7z"/>
	</g>
</g>
<polygon class="st1" points="17.1,19.2 19.9,27.5 28.7,27.5 31.5,19.2 24.3,14.1 "/>
<path class="st3" d="M42.1,11.2l-3.6-2.6l2.9-3.9c0,0,0.7-0.8-1.2-0.8c-1.3,0-5,0.6-7.1,0.9l-4.5-3.2c-0.4-0.3-0.9-0.2-1.1,0.2
	l-3.3,4.4l-3.3,4.5c-0.3,0.4-0.2,0.9,0.2,1.1l3.1,2.2l7.2,5.1l1.2-3.6c0.1-0.4,0.6-0.7,1-0.5l5.4,1.7l3.3-4.4
	C42.6,12,42.5,11.5,42.1,11.2z"/>
<path class="st0" d="M46.3,31c-0.4-1.2-2.1-4.5-3.1-6.4l1.7-5.2c0.1-0.4-0.1-0.9-0.5-1l-5.3-1.7L33.7,15c-0.4-0.1-0.9,0.1-1,0.5
	l-1.2,3.6l-2.7,8.3h3.9c0.5,0,0.8,0.4,0.8,0.8v5.6l5.3,1.7c0.4,0.1,0.9-0.1,1-0.5l1.4-4.2l4.7,1.5C45.8,32.4,46.9,32.8,46.3,31z"/>
<path class="st4" d="M32.6,27.5h-3.9h-8.9l1.2,3.6c0.1,0.4-0.1,0.9-0.5,1l-5.4,1.7v5.5c0,0.4,0.4,0.8,0.8,0.8h4.4V45
	c0,0-0.1,1.1,1.5,0c1.1-0.8,3.7-3.4,5.2-4.9h5.5c0.5,0,0.8-0.4,0.8-0.8v-5.5v-5.6C33.4,27.9,33.1,27.5,32.6,27.5z"/>
<path class="st5" d="M21.1,11.8c-0.4-0.3-0.5-0.8-0.2-1.1l3.3-4.5L21,1.8c-0.3-0.4-0.8-0.4-1.1-0.2l-3.6,2.6l-2.9-3.9
	c0,0-0.6-0.9-1.2,0.8c-0.4,1.2-1,4.9-1.3,6.9l-4.5,3.2C6.1,11.5,6,12,6.2,12.3l3.3,4.4l3.3,4.5c0.3,0.4,0.8,0.4,1.1,0.2l3.1-2.2
	l7.2-5.1L21.1,11.8z"/>
<path class="st6" d="M21.1,31.1l-1.2-3.6l-2.7-8.3L14,21.4c-0.4,0.3-0.9,0.2-1.1-0.2l-3.3-4.5l-5.3,1.7c-0.4,0.1-0.6,0.6-0.5,1
	l1.4,4.2l-4.7,1.5c0,0-1.1,0.3,0.4,1.4c1.1,0.8,4.4,2.4,6.3,3.4L8.8,35c0.1,0.4,0.6,0.7,1,0.5l5.3-1.7l5.4-1.7
	C21,32,21.2,31.6,21.1,31.1z"/>
</svg>
