<?xml version="1.0" encoding="utf-8"?>
<!-- Generator: Adobe Illustrator 23.0.4, SVG Export Plug-In . SVG Version: 6.00 Build 0)  -->
<svg version="1.1" id="Layer_1" xmlns="http://www.w3.org/2000/svg" xmlns:xlink="http://www.w3.org/1999/xlink" x="0px" y="0px"
	 viewBox="0 0 300 50" style="enable-background:new 0 0 300 50;" xml:space="preserve">
<style type="text/css">
	.st0{enable-background:new    ;}
	.st1{fill:#FFFFFF;}
	.st2{fill:#9CC9EC;}
</style>
<g>
	<g class="st0">
		<path class="st1" d="M61.4,41.4c-1.9-1-3.4-2.4-4.5-4.3c-1.1-1.9-1.6-4-1.6-6.4V15.2c0-2.4,0.5-4.5,1.6-6.4
			C58,7,59.5,5.6,61.4,4.6c1.9-1,4.1-1.5,6.7-1.5c2.5,0,4.7,0.5,6.7,1.5c1.9,1,3.4,2.4,4.5,4.1c1.1,1.8,1.6,3.9,1.6,6.2v0.3
			c0,0.2-0.1,0.4-0.2,0.5c-0.1,0.1-0.3,0.2-0.5,0.2l-6.5,0.3c-0.4,0-0.7-0.2-0.7-0.6v-0.7c0-1.5-0.4-2.7-1.3-3.7
			c-0.9-0.9-2.1-1.4-3.6-1.4c-1.5,0-2.7,0.5-3.6,1.4c-0.9,0.9-1.3,2.1-1.3,3.7v16.3c0,1.5,0.4,2.7,1.3,3.6c0.9,0.9,2.1,1.4,3.6,1.4
			c1.5,0,2.7-0.5,3.6-1.4c0.9-0.9,1.3-2.1,1.3-3.6v-0.7c0-0.4,0.2-0.6,0.7-0.6l6.5,0.3c0.4,0,0.7,0.1,0.7,0.4v0.4
			c0,2.4-0.5,4.5-1.6,6.3c-1.1,1.8-2.5,3.2-4.5,4.2c-1.9,1-4.1,1.5-6.7,1.5C65.6,42.9,63.3,42.4,61.4,41.4z"/>
	</g>
	<g class="st0">
		<g>
			<path class="st1" d="M86.6,40.4c-2-1.6-3.3-3.9-3.7-6.8c-0.3-1.8-0.4-3.7-0.4-5.6c0-2.3,0.1-4.2,0.4-5.6c0.4-2.8,1.7-5,3.7-6.6
				c2-1.6,4.7-2.4,7.9-2.4c3.1,0,5.7,0.8,7.8,2.4c2,1.6,3.3,3.8,3.7,6.6c0.3,1.7,0.4,3.6,0.4,5.6c0,1.9-0.1,3.7-0.4,5.5
				c-0.4,2.9-1.6,5.2-3.7,6.9c-2,1.6-4.7,2.5-7.9,2.5C91.2,42.9,88.6,42.1,86.6,40.4z M97,35.2c0.7-0.7,1.1-1.6,1.3-2.7
				c0.1-1.2,0.2-2.6,0.2-4.4c0-1.7-0.1-3.2-0.2-4.3c-0.2-1.1-0.6-2-1.3-2.6c-0.7-0.6-1.5-1-2.6-1c-1,0-1.9,0.3-2.6,1
				c-0.7,0.6-1.1,1.5-1.3,2.6c-0.2,1.4-0.3,2.9-0.3,4.3c0,1.1,0.1,2.6,0.2,4.4c0.2,1.1,0.6,2,1.3,2.7c0.7,0.7,1.6,1,2.6,1
				C95.5,36.2,96.3,35.8,97,35.2z"/>
		</g>
		<g>
			<path class="st1" d="M129,16c1.5,1.7,2.3,4.1,2.3,7.2v18.6c0,0.2-0.1,0.3-0.2,0.5c-0.1,0.1-0.3,0.2-0.5,0.2h-6.5
				c-0.2,0-0.3-0.1-0.5-0.2c-0.1-0.1-0.2-0.3-0.2-0.5V24.3c0-1.3-0.3-2.3-0.9-3.1c-0.6-0.7-1.5-1.1-2.6-1.1c-1.1,0-2,0.4-2.6,1.1
				c-0.6,0.8-1,1.8-1,3.1v17.4c0,0.2-0.1,0.3-0.2,0.5c-0.1,0.1-0.3,0.2-0.5,0.2h-6.5c-0.2,0-0.3-0.1-0.5-0.2
				c-0.1-0.1-0.2-0.3-0.2-0.5V14.6c0-0.2,0.1-0.3,0.2-0.5c0.1-0.1,0.3-0.2,0.5-0.2h6.5c0.2,0,0.3,0.1,0.5,0.2
				c0.1,0.1,0.2,0.3,0.2,0.5v1.5c0,0.1,0,0.2,0.1,0.2c0.1,0,0.2,0,0.3-0.1c1.4-1.8,3.3-2.7,5.9-2.7C125.3,13.4,127.4,14.3,129,16z"
				/>
		</g>
	</g>
	<g class="st0">
		<path class="st1" d="M153.7,16c1.5,1.7,2.3,4.1,2.3,7.2v18.6c0,0.2-0.1,0.3-0.2,0.5c-0.1,0.1-0.3,0.2-0.5,0.2h-6.5
			c-0.2,0-0.3-0.1-0.5-0.2c-0.1-0.1-0.2-0.3-0.2-0.5V24.3c0-1.3-0.3-2.3-0.9-3.1c-0.6-0.7-1.5-1.1-2.6-1.1c-1.1,0-2,0.4-2.6,1.1
			c-0.6,0.8-1,1.8-1,3.1v17.4c0,0.2-0.1,0.3-0.2,0.5c-0.1,0.1-0.3,0.2-0.5,0.2h-6.5c-0.2,0-0.3-0.1-0.5-0.2
			c-0.1-0.1-0.2-0.3-0.2-0.5V14.6c0-0.2,0.1-0.3,0.2-0.5c0.1-0.1,0.3-0.2,0.5-0.2h6.5c0.2,0,0.3,0.1,0.5,0.2
			c0.1,0.1,0.2,0.3,0.2,0.5v1.5c0,0.1,0,0.2,0.1,0.2c0.1,0,0.2,0,0.3-0.1c1.4-1.8,3.3-2.7,5.9-2.7C150,13.4,152.2,14.3,153.7,16z"/>
	</g>
	<g class="st0">
		<path class="st1" d="M173.3,35.4c0.7-0.5,1.2-1.1,1.6-1.9c0.2-0.4,0.5-0.6,0.8-0.4l5.3,1.1c0.4,0.1,0.6,0.4,0.5,0.8
			c-0.7,2.4-2.1,4.4-4,5.7c-1.9,1.4-4.3,2.1-7.1,2.1c-2.9,0-5.4-0.7-7.3-2.2c-2-1.5-3.2-3.5-3.8-6c-0.5-1.9-0.8-4.2-0.8-6.9
			c0-1.9,0.1-3.4,0.2-4.6c0.4-3,1.5-5.4,3.5-7.2c2-1.7,4.6-2.6,8-2.6c3.6,0,6.3,0.9,8.2,2.8c1.9,1.9,3,4.5,3.4,8
			c0.2,2,0.3,3.9,0.3,5.7c0,0.4-0.2,0.7-0.7,0.7h-14.8c-0.2,0-0.3,0.1-0.3,0.3c0,0.8,0.1,1.4,0.2,2c0.2,1,0.7,1.9,1.4,2.5
			c0.8,0.6,1.7,0.9,2.9,0.9C171.8,36.2,172.6,35.9,173.3,35.4z M166.5,23.4c-0.1,0.4-0.1,1-0.2,2c0,0.2,0.1,0.3,0.3,0.3h7.2
			c0.2,0,0.3-0.1,0.3-0.3c0-0.4-0.1-1.1-0.2-1.9c-0.1-1-0.5-1.9-1.2-2.4c-0.6-0.6-1.5-0.9-2.6-0.9C168.1,20.2,166.9,21.2,166.5,23.4
			z"/>
	</g>
	<g class="st0">
		<path class="st1" d="M187.6,40.5c-2-1.6-3.3-3.7-3.7-6.5c-0.3-1.5-0.4-3.5-0.4-6c0-1.9,0.1-3.8,0.4-5.9c0.5-2.7,1.7-4.8,3.8-6.4
			c2-1.6,4.6-2.4,7.7-2.4c3,0,5.5,0.8,7.6,2.3c2.1,1.5,3.3,3.5,3.8,6c0.1,0.3,0.1,0.9,0.2,1.6c0,0.4-0.2,0.6-0.7,0.7l-6.4,0.6h-0.1
			c-0.3,0-0.5-0.2-0.6-0.6c0-0.3,0-0.4-0.1-0.6c-0.1-0.3-0.1-0.6-0.2-0.8c-0.2-0.7-0.6-1.4-1.3-1.8c-0.6-0.5-1.4-0.7-2.3-0.7
			c-1,0-1.8,0.3-2.4,0.9c-0.6,0.6-1,1.4-1.2,2.4c-0.2,1.2-0.3,2.8-0.3,4.6c0,2,0.1,3.6,0.4,4.8c0.2,1,0.6,1.8,1.2,2.4
			c0.6,0.6,1.4,0.9,2.4,0.9c1.1,0,1.9-0.3,2.6-0.9c0.6-0.6,1-1.3,1.1-2.2l0.1-0.7c0-0.2,0.1-0.3,0.2-0.5c0.1-0.1,0.3-0.2,0.5-0.1
			l6.4,0.6c0.4,0.1,0.6,0.3,0.6,0.7c0,0.2,0,0.6-0.1,1.1c-0.4,2.7-1.6,4.8-3.6,6.4c-2.1,1.6-4.7,2.3-7.8,2.3
			C192.2,42.9,189.7,42.1,187.6,40.5z"/>
	</g>
	<g class="st0">
		<path class="st1" d="M224.3,19.6c-0.1,0.1-0.3,0.2-0.5,0.2h-4.3c-0.2,0-0.3,0.1-0.3,0.3v12.4c0,1.1,0.2,2,0.7,2.5
			c0.5,0.5,1.2,0.7,2.1,0.7h1.1c0.2,0,0.3,0.1,0.5,0.2c0.1,0.1,0.2,0.3,0.2,0.5v5.4c0,0.4-0.2,0.7-0.7,0.7c-0.6,0-1.6,0.1-2.8,0.1
			c-2.9,0-5.1-0.5-6.5-1.4c-1.4-1-2.1-2.8-2.1-5.4V20.1c0-0.2-0.1-0.3-0.3-0.3h-2.6c-0.2,0-0.3-0.1-0.5-0.2
			c-0.1-0.1-0.2-0.3-0.2-0.5v-4.6c0-0.2,0.1-0.3,0.2-0.5c0.1-0.1,0.3-0.2,0.5-0.2h2.6c0.2,0,0.3-0.1,0.3-0.3V7.2
			c0-0.2,0.1-0.3,0.2-0.5c0.1-0.1,0.3-0.2,0.5-0.2h6.2c0.2,0,0.3,0.1,0.5,0.2c0.1,0.1,0.2,0.3,0.2,0.5v6.4c0,0.2,0.1,0.3,0.3,0.3
			h4.3c0.2,0,0.3,0.1,0.5,0.2c0.1,0.1,0.2,0.3,0.2,0.5v4.6C224.5,19.3,224.4,19.5,224.3,19.6z"/>
		<path class="st1" d="M243.6,14.6c1.7,0.8,3.1,1.9,4.1,3.3c1,1.4,1.5,3,1.5,4.9v18.9c0,0.2-0.1,0.3-0.2,0.5
			c-0.1,0.1-0.3,0.2-0.5,0.2H242c-0.2,0-0.3-0.1-0.5-0.2c-0.1-0.1-0.2-0.3-0.2-0.5v-1.5c0-0.1,0-0.2-0.1-0.2c-0.1,0-0.1,0-0.2,0.1
			c-1.5,1.8-3.7,2.7-6.7,2.7c-2.5,0-4.6-0.6-6.2-1.9c-1.7-1.3-2.5-3.5-2.5-6.5c0-6,3.8-9.1,11.3-9.1h4.1c0.2,0,0.3-0.1,0.3-0.3v-1.3
			c0-1.1-0.3-2-1-2.7c-0.6-0.7-1.5-1-2.7-1c-0.9,0-1.6,0.2-2.2,0.6c-0.6,0.4-1,1-1.1,1.7c-0.1,0.4-0.4,0.6-0.8,0.6l-6.7-0.4
			c-0.2,0-0.3-0.1-0.5-0.2c-0.1-0.1-0.2-0.3-0.1-0.4c0.2-2.6,1.3-4.6,3.4-6.2c2.1-1.6,4.7-2.4,7.9-2.4
			C239.9,13.4,241.9,13.8,243.6,14.6z M240,35.9c0.9-0.7,1.3-1.6,1.3-2.8v-2.3c0-0.2-0.1-0.3-0.3-0.3h-3.2c-1.3,0-2.4,0.3-3.2,0.9
			c-0.8,0.6-1.2,1.4-1.2,2.6c0,1,0.3,1.7,0.9,2.2c0.6,0.5,1.4,0.8,2.3,0.8C238.1,36.9,239.1,36.6,240,35.9z"/>
	</g>
	<g class="st0">
		<path class="st1" d="M271.3,16c1.5,1.7,2.3,4.1,2.3,7.2v18.6c0,0.2-0.1,0.3-0.2,0.5c-0.1,0.1-0.3,0.2-0.5,0.2h-6.5
			c-0.2,0-0.3-0.1-0.5-0.2c-0.1-0.1-0.2-0.3-0.2-0.5V24.3c0-1.3-0.3-2.3-0.9-3.1c-0.6-0.7-1.5-1.1-2.6-1.1c-1.1,0-2,0.4-2.6,1.1
			c-0.6,0.8-1,1.8-1,3.1v17.4c0,0.2-0.1,0.3-0.2,0.5c-0.1,0.1-0.3,0.2-0.5,0.2h-6.5c-0.2,0-0.3-0.1-0.5-0.2
			c-0.1-0.1-0.2-0.3-0.2-0.5V4.2c0-0.2,0.1-0.3,0.2-0.5c0.1-0.1,0.3-0.2,0.5-0.2h6.5c0.2,0,0.3,0.1,0.5,0.2c0.1,0.1,0.2,0.3,0.2,0.5
			v11.8c0,0.1,0,0.2,0.1,0.2c0.1,0,0.2,0,0.3-0.1c1.4-1.8,3.3-2.7,5.9-2.7C267.7,13.4,269.8,14.3,271.3,16z"/>
	</g>
	<g class="st0">
		<path class="st1" d="M293.4,14.6c1.7,0.8,3.1,1.9,4.1,3.3c1,1.4,1.5,3,1.5,4.9v18.9c0,0.2-0.1,0.3-0.2,0.5
			c-0.1,0.1-0.3,0.2-0.5,0.2h-6.5c-0.2,0-0.3-0.1-0.5-0.2c-0.1-0.1-0.2-0.3-0.2-0.5v-1.5c0-0.1,0-0.2-0.1-0.2c-0.1,0-0.1,0-0.2,0.1
			c-1.5,1.8-3.7,2.7-6.7,2.7c-2.5,0-4.6-0.6-6.2-1.9c-1.7-1.3-2.5-3.5-2.5-6.5c0-6,3.8-9.1,11.3-9.1h4.1c0.2,0,0.3-0.1,0.3-0.3v-1.3
			c0-1.1-0.3-2-1-2.7c-0.6-0.7-1.5-1-2.7-1c-0.9,0-1.6,0.2-2.2,0.6c-0.6,0.4-1,1-1.1,1.7c-0.1,0.4-0.4,0.6-0.8,0.6l-6.7-0.4
			c-0.2,0-0.3-0.1-0.5-0.2c-0.1-0.1-0.2-0.3-0.1-0.4c0.2-2.6,1.3-4.6,3.4-6.2c2.1-1.6,4.7-2.4,7.9-2.4
			C289.7,13.4,291.7,13.8,293.4,14.6z M289.8,35.9c0.9-0.7,1.3-1.6,1.3-2.8v-2.3c0-0.2-0.1-0.3-0.3-0.3h-3.2c-1.3,0-2.4,0.3-3.2,0.9
			c-0.8,0.6-1.2,1.4-1.2,2.6c0,1,0.3,1.7,0.9,2.2c0.6,0.5,1.4,0.8,2.3,0.8C287.9,36.9,288.9,36.6,289.8,35.9z"/>
	</g>
	<g>
		<path class="st2" d="M26.9,7.7l1-1.4l2.2-3.1l0-0.1c0.1-0.2,0.4-0.3,0.6-0.3c0.1,0,0.3,0,0.4,0.1l4.6,3.3c2-0.3,5.6-0.9,6.9-0.9
			c0,0,0,0,0,0c1.9,0,1.2,0.9,1.2,0.9L41,10.2l3.7,2.7c0.3,0.2,0.4,0.7,0.2,1l0,0.1l-2.5,3.5L37,15.7c-0.3-0.1-0.6-0.1-0.9-0.1
			c-1.3,0-2.5,0.8-2.9,2.1l-0.6,1.9L28,16.3l-2-1.4l-2.2-1.6c-0.3-0.2-0.4-0.7-0.2-1l2.8-3.9L26.9,7.7z M7.9,12.5l4.6-3.3
			c0.3-2.1,0.8-5.7,1.3-6.9c0.3-0.9,0.6-1.1,0.8-1.1c0.2,0,0.4,0.2,0.4,0.2l2.9,3.9l3.7-2.7c0.1-0.1,0.3-0.1,0.4-0.1
			c0.2,0,0.4,0.1,0.6,0.3l0,0.1L25,6.4l-3.3,4.5c-1,1.3-0.7,3.2,0.7,4.2l1.6,1.2l-4.6,3.3l-2,1.4l-2.2,1.6c-0.1,0.1-0.3,0.1-0.4,0.1
			c-0.2,0-0.4-0.1-0.6-0.3l-2.8-3.9L11.1,18l-1-1.4l-2.2-3.1l0-0.1C7.6,13.2,7.6,12.7,7.9,12.5z M10.7,37.9L10.7,37.9
			c-0.1,0-0.2,0.1-0.3,0.1c-0.3,0-0.6-0.2-0.7-0.5L8,32.1c-1.9-0.9-5.1-2.5-6.2-3.3c-1.5-1.1-0.5-1.4-0.5-1.4L6,25.9l-1.4-4.3
			c-0.1-0.4,0.1-0.8,0.5-0.9l0.1,0l4.1-1.3l3.3,4.5c0.6,0.8,1.5,1.2,2.4,1.2c0.6,0,1.3-0.2,1.8-0.6l1.6-1.2l1.7,5.3l0.8,2.3l0.9,2.6
			c0.1,0.4-0.1,0.8-0.5,0.9L16.6,36l-0.7,0.2l-1.6,0.5L10.7,37.9z M34.8,42.7L34.8,42.7c0,0.5-0.3,0.8-0.7,0.8h-5.6
			c-1.5,1.5-4,4.1-5.1,4.8c-0.5,0.4-0.8,0.5-1.1,0.5c-0.4,0-0.4-0.5-0.4-0.5v-4.8h-4.5c-0.4,0-0.7-0.3-0.7-0.7v-0.1v-4.3l5.3-1.7
			c0.8-0.2,1.4-0.8,1.8-1.5c0.4-0.7,0.4-1.5,0.2-2.3L23.2,31h5.6h2.4h2.8c0.4,0,0.7,0.3,0.7,0.7v4.8v0.8v1.7V42.7z M48.4,35.4
			c-0.1,0-0.2,0-0.2,0l-4.6-1.5l-1.4,4.3c-0.1,0.3-0.4,0.5-0.7,0.5c-0.1,0-0.1,0-0.2,0l-0.1,0l-4.1-1.3v-5.6c0-1.7-1.4-3-3-3h-2
			l1.7-5.3l0.8-2.3l0.9-2.6c0.1-0.3,0.4-0.5,0.7-0.5c0.1,0,0.1,0,0.2,0l4.6,1.5l0.7,0.2l1.6,0.5l3.6,1.2l0.1,0
			c0.4,0.1,0.6,0.5,0.5,0.9l-1.7,5.4c0.9,1.9,2.6,5.1,3,6.3C49,35.2,48.6,35.4,48.4,35.4z"/>
	</g>
</g>
</svg>
