<svg xmlns="http://www.w3.org/2000/svg" viewBox="0 0 423.7 126.3"><title>logo_tag_425</title><text transform="translate(76.8 66.5)" style="font-size:71.90763092041016px;fill:#231f20;font-family:BarlowSemiCondensed-Bold, Barlow Semi Condensed;font-weight:700;letter-spacing:-0.041000407742026936em;opacity:0.5">C<tspan x="35.6" y="0" style="letter-spacing:-0.03999542921506105em">on</tspan><tspan x="101.5" y="0" style="letter-spacing:-0.020004505002982998em">n</tspan><tspan x="135.8" y="0" style="letter-spacing:-0.03999542921506105em">e</tspan><tspan x="168.3" y="0" style="letter-spacing:-0.02299227900207075em">c</tspan><tspan x="201.6" y="0" style="letter-spacing:-0.040009010005965996em">ta</tspan><tspan x="254.9" y="0" style="letter-spacing:-0.020004505002982998em">h</tspan><tspan x="289.2" y="0" style="letter-spacing:0.00001358079090494433em">a</tspan></text><text transform="translate(77.2 96.8)" style="font-size:31.958948135375977px;fill:#58595b;font-family:Barlow-Light, Barlow"><tspan style="letter-spacing:-0.055002201341359025em">P</tspan><tspan x="17.1" y="0" style="letter-spacing:-0.0379820757040607em">o</tspan><tspan x="33.1" y="0" style="letter-spacing:-0.053016010737365504em">w</tspan><tspan x="53.9" y="0" style="letter-spacing:-0.03996826630805422em">e</tspan><tspan x="69.6" y="0">r </tspan><tspan x="87.5" y="0" style="letter-spacing:-0.01998413315402711em">w</tspan><tspan x="109.4" y="0" style="letter-spacing:-0.05998295624060431em">he</tspan><tspan x="139.7" y="0" style="letter-spacing:0.000030556778522977236em">n </tspan><tspan x="163.2" y="0" style="letter-spacing:-0.040029379865100176em">pe</tspan><tspan x="195.1" y="0" style="letter-spacing:-0.08002820295167738em">o</tspan><tspan x="209.7" y="0" style="letter-spacing:-0.06001351301912729em">pl</tspan><tspan x="230.6" y="0">e </tspan><tspan x="253.9" y="0" style="letter-spacing:-0.020014689932550088em">t</tspan><tspan x="264.8" y="0" style="letter-spacing:-0.05998295624060431em">a</tspan><tspan x="279" y="0" style="letter-spacing:-0.07898927248189615em">l</tspan><tspan x="283.8" y="0" style="letter-spacing:-0.01998413315402711em">k</tspan><tspan x="298.8" y="0">.</tspan></text><polygon points="30.9 37.3 34.5 48.4 46.1 48.4 49.7 37.3 40.3 30.5 30.9 37.3" style="fill:none"/><path d="M63.7,26.7,59,23.3,62.8,18s.9-1.1-1.5-1.1-6.6.8-9.4,1.2l-5.8-4.2a1,1,0,0,0-1.5.2L40.3,20l-4.4,6a1.1,1.1,0,0,0,.3,1.5l4.1,3,9.4,6.8,1.6-4.8a1,1,0,0,1,1.3-.7l7.1,2.3L64,28.2A1.1,1.1,0,0,0,63.7,26.7Z" style="fill:#66bb6a"/><path d="M69.1,53.1A70.9,70.9,0,0,0,65,44.6l2.3-6.9a1.1,1.1,0,0,0-.7-1.4l-6.9-2.2-7.1-2.3a1,1,0,0,0-1.3.7l-1.6,4.8L46.1,48.4h5.1a1,1,0,0,1,1.1,1v7.5l6.9,2.2a1.1,1.1,0,0,0,1.4-.7l1.8-5.5,6.1,2S69.9,55.4,69.1,53.1Z" style="fill:#42a047"/><path d="M51.2,48.4H34.5l1.6,4.8a1.1,1.1,0,0,1-.7,1.4l-7.1,2.3v7.2a1.1,1.1,0,0,0,1.1,1.1h5.8v6.5s0,1.4,1.9,0A94,94,0,0,0,44,65.2h7.2a1.1,1.1,0,0,0,1.1-1.1V49.4A1,1,0,0,0,51.2,48.4Z" style="fill:#378e43"/><path d="M36.2,27.5a1.1,1.1,0,0,1-.3-1.5l4.4-6L36,14.1a1,1,0,0,0-1.5-.2l-4.7,3.4L26,12s-.8-1.2-1.5,1.2a73.1,73.1,0,0,0-1.7,9.2l-5.9,4.3a1.1,1.1,0,0,0-.3,1.5l4.3,5.9,4.4,6a1,1,0,0,0,1.5.2l4.1-3,9.4-6.8Z" style="fill:#81c785"/><path d="M36.1,53.2l-1.6-4.8L30.9,37.3l-4.1,3a1,1,0,0,1-1.5-.2l-4.4-6L14,36.3a1.1,1.1,0,0,0-.7,1.4l1.8,5.5-6.2,2s-1.4.4.6,1.8a84.7,84.7,0,0,0,8.3,4.5l2.3,6.9a.9.9,0,0,0,1.3.7l6.9-2.2,7.1-2.3A1.1,1.1,0,0,0,36.1,53.2Z" style="fill:#a5d5a7"/></svg>