<?xml version="1.0" encoding="utf-8"?>
<svg version="1.1" id="Layer_1" xmlns="http://www.w3.org/2000/svg" xmlns:xlink="http://www.w3.org/1999/xlink" x="0px" y="0px"
	 viewBox="0 0 400 92" style="enable-background:new 0 0 400 92;" xml:space="preserve">
<style type="text/css">
	.st0{fill:#FFFFFF;}
	.st1{fill:url(#SVGID_1_);}
	.st2{fill:none;}
	.st3{fill:#59595B;}
	.st4{opacity:0.5;}
	.st5{fill:#467ABE;}
	.st6{fill:#174899;}
	.st7{fill:#0D1D42;}
	.st8{fill:#9CC9EC;}
	.st9{fill:#CEEBFB;}
	.st10{fill:#58595B;}
</style>
<rect x="-0.8" y="-565.5" class="st0" width="1500" height="500"/>
<linearGradient id="SVGID_1_" gradientUnits="userSpaceOnUse" x1="-0.8384" y1="-315.5408" x2="1499.1616" y2="-315.5408">
	<stop  offset="0" style="stop-color:#CEEBFB"/>
	<stop  offset="7.023537e-02" style="stop-color:#A8BDD0"/>
	<stop  offset="0.2014" style="stop-color:#77859F"/>
	<stop  offset="0.335" style="stop-color:#555F7C"/>
	<stop  offset="0.4683" style="stop-color:#3B4665"/>
	<stop  offset="0.6014" style="stop-color:#283354"/>
	<stop  offset="0.7344" style="stop-color:#19274A"/>
	<stop  offset="0.8672" style="stop-color:#101F44"/>
	<stop  offset="1" style="stop-color:#0D1D42"/>
	<stop  offset="1" style="stop-color:#378E43"/>
</linearGradient>
<rect x="-0.8" y="-565.5" class="st1" width="1500" height="500"/>
<g>
	<text transform="matrix(1 0 0 1 17.8802 -948.6024)"><tspan x="0" y="0" class="st3" style="font-family:'BarlowSemiCondensed-Bold'; font-size:70.1097px; letter-spacing:-2;">C</tspan><tspan x="34.7" y="0" class="st3" style="font-family:'BarlowSemiCondensed-Bold'; font-size:70.1097px; letter-spacing:-2;">on</tspan><tspan x="99" y="0" class="st3" style="font-family:'BarlowSemiCondensed-Bold'; font-size:70.1097px; letter-spacing:-1;">n</tspan><tspan x="132.4" y="0" class="st3" style="font-family:'BarlowSemiCondensed-Bold'; font-size:70.1097px; letter-spacing:-2;">e</tspan><tspan x="164.1" y="0" class="st3" style="font-family:'BarlowSemiCondensed-Bold'; font-size:70.1097px; letter-spacing:-1;">c</tspan><tspan x="196.6" y="0" class="st3" style="font-family:'BarlowSemiCondensed-Bold'; font-size:70.1097px; letter-spacing:-2;">ta</tspan><tspan x="248.5" y="0" class="st3" style="font-family:'BarlowSemiCondensed-Bold'; font-size:70.1097px; letter-spacing:-1;">h</tspan><tspan x="282" y="0" class="st3" style="font-family:'BarlowSemiCondensed-Bold'; font-size:70.1097px;">a</tspan></text>
	<g>
		<text transform="matrix(1 0 0 1 18.2396 -919.0652)" class="st10" style="font-family:'Barlow-Light'; font-size:31.1599px;">Power when people talk.</text>
	</g>
	<g>
		<polygon class="st2" points="-26.9,-977.1 -23.4,-966.3 -12.1,-966.3 -8.6,-977.1 -17.7,-983.7 		"/>
		<path class="st3" d="M5.1-987.4l-4.6-3.3l3.7-5.1c0,0,0.9-1.1-1.5-1.1c-1.7,0-6.4,0.8-9.1,1.2l-5.7-4.2c-0.5-0.3-1.1-0.3-1.5,0.2
			l-4.2,5.8l-4.3,5.9c-0.3,0.5-0.2,1.1,0.3,1.5l4,2.9l9.2,6.7l1.5-4.7c0.2-0.6,0.8-0.9,1.3-0.7l6.9,2.2l4.2-5.7
			C5.7-986.4,5.6-987.1,5.1-987.4z"/>
		<path class="st3" d="M10.4-961.7c-0.5-1.6-2.7-5.9-4-8.3l2.2-6.7c0.2-0.6-0.1-1.2-0.6-1.3l-6.8-2.2l-6.9-2.2
			c-0.5-0.2-1.1,0.1-1.3,0.7l-1.5,4.7l-3.5,10.8h5c0.6,0,1.1,0.5,1.1,1v7.3l6.7,2.2c0.5,0.2,1.1-0.1,1.3-0.7l1.8-5.4l6,2
			C9.8-960,11.1-959.5,10.4-961.7z"/>
		<path class="st3" d="M-7.1-966.3h-5h-11.3l1.5,4.7c0.2,0.6-0.1,1.2-0.6,1.3l-6.9,2.2v7.1c0,0.6,0.5,1,1.1,1h5.7v6.3
			c0,0-0.1,1.4,1.9,0c1.4-1,4.7-4.4,6.6-6.3h7.1c0.6,0,1.1-0.5,1.1-1v-7.1v-7.3C-6-965.8-6.5-966.3-7.1-966.3z"/>
		<path class="st3" d="M-21.7-986.6c-0.5-0.3-0.6-1-0.3-1.5l4.3-5.9l-4.2-5.7c-0.3-0.5-1-0.6-1.5-0.2l-4.6,3.3l-3.7-5.1
			c0,0-0.8-1.2-1.5,1.1c-0.5,1.6-1.3,6.4-1.7,9l-5.7,4.2c-0.5,0.3-0.6,1-0.3,1.5l4.2,5.8l4.3,5.9c0.3,0.5,1,0.6,1.5,0.2l4-2.9
			l9.2-6.7L-21.7-986.6z"/>
		<path class="st3" d="M-21.9-961.6l-1.5-4.7l-3.5-10.8l-4,2.9c-0.5,0.3-1.1,0.3-1.5-0.2l-4.3-5.9l-6.7,2.2
			c-0.5,0.2-0.8,0.8-0.6,1.3l1.8,5.4l-6,2c0,0-1.4,0.4,0.6,1.8c1.4,1,5.7,3.2,8.1,4.4l2.2,6.7c0.2,0.6,0.8,0.9,1.3,0.7l6.8-2.2
			l6.9-2.2C-22-960.4-21.7-961-21.9-961.6z"/>
	</g>
</g>
<text transform="matrix(1 0 0 1 3.2558 -1134.0878)"><tspan x="0" y="0" class="st4" style="font-family:'BarlowSemiCondensed-Bold'; font-size:70.1097px; letter-spacing:-2;">C</tspan><tspan x="34.7" y="0" class="st4" style="font-family:'BarlowSemiCondensed-Bold'; font-size:70.1097px; letter-spacing:-2;">on</tspan><tspan x="99" y="0" class="st4" style="font-family:'BarlowSemiCondensed-Bold'; font-size:70.1097px; letter-spacing:-1;">n</tspan><tspan x="132.4" y="0" class="st4" style="font-family:'BarlowSemiCondensed-Bold'; font-size:70.1097px; letter-spacing:-2;">e</tspan><tspan x="164.1" y="0" class="st4" style="font-family:'BarlowSemiCondensed-Bold'; font-size:70.1097px; letter-spacing:-1;">c</tspan><tspan x="196.6" y="0" class="st4" style="font-family:'BarlowSemiCondensed-Bold'; font-size:70.1097px; letter-spacing:-2;">ta</tspan><tspan x="248.5" y="0" class="st4" style="font-family:'BarlowSemiCondensed-Bold'; font-size:70.1097px; letter-spacing:-1;">h</tspan><tspan x="282" y="0" class="st4" style="font-family:'BarlowSemiCondensed-Bold'; font-size:70.1097px;">a</tspan></text>
<g>
	<text transform="matrix(1 0 0 1 3.6151 -1104.5507)" class="st10" style="font-family:'Barlow-Light'; font-size:31.1599px;">Power when people talk.</text>
</g>
<g>
	<polygon class="st2" points="-41.5,-1162.6 -38,-1151.8 -26.7,-1151.8 -23.2,-1162.6 -32.3,-1169.2 	"/>
	<path class="st5" d="M-9.5-1172.9l-4.6-3.3l3.7-5.1c0,0,0.9-1.1-1.5-1.1c-1.7,0-6.4,0.8-9.1,1.2l-5.7-4.2c-0.5-0.3-1.1-0.3-1.5,0.2
		l-4.2,5.8l-4.3,5.9c-0.3,0.5-0.2,1.1,0.3,1.5l4,2.9l9.2,6.7l1.5-4.7c0.2-0.6,0.8-0.9,1.3-0.7l6.9,2.2l4.2-5.7
		C-8.9-1171.9-9.1-1172.6-9.5-1172.9z"/>
	<path class="st6" d="M-4.3-1147.2c-0.5-1.6-2.7-5.9-4-8.3l2.2-6.7c0.2-0.6-0.1-1.2-0.6-1.3l-6.8-2.2l-6.9-2.2
		c-0.5-0.2-1.1,0.1-1.3,0.7l-1.5,4.7l-3.5,10.8h5c0.6,0,1.1,0.5,1.1,1v7.3l6.7,2.2c0.5,0.2,1.1-0.1,1.3-0.7l1.8-5.4l6,2
		C-4.8-1145.4-3.5-1144.9-4.3-1147.2z"/>
	<path class="st7" d="M-21.7-1151.8h-5H-38l1.5,4.7c0.2,0.6-0.1,1.2-0.6,1.3l-6.9,2.2v7.1c0,0.6,0.5,1,1.1,1h5.7v6.3
		c0,0-0.1,1.4,1.9,0c1.4-1,4.7-4.4,6.6-6.3h7.1c0.6,0,1.1-0.5,1.1-1v-7.1v-7.3C-20.7-1151.3-21.1-1151.8-21.7-1151.8z"/>
	<path class="st8" d="M-36.4-1172.1c-0.5-0.3-0.6-1-0.3-1.5l4.3-5.9l-4.2-5.7c-0.3-0.5-1-0.6-1.5-0.2l-4.6,3.3l-3.7-5.1
		c0,0-0.8-1.2-1.5,1.1c-0.5,1.6-1.3,6.4-1.7,9l-5.7,4.2c-0.5,0.3-0.6,1-0.3,1.5l4.2,5.8l4.3,5.9c0.3,0.5,1,0.6,1.5,0.2l4-2.9
		l9.2-6.7L-36.4-1172.1z"/>
	<path class="st9" d="M-36.5-1147.1l-1.5-4.7l-3.5-10.8l-4,2.9c-0.5,0.3-1.1,0.3-1.5-0.2l-4.3-5.9l-6.7,2.2
		c-0.5,0.2-0.8,0.8-0.6,1.3l1.8,5.4l-6,2c0,0-1.4,0.4,0.6,1.8c1.4,1,5.7,3.2,8.1,4.4l2.2,6.7c0.2,0.6,0.8,0.9,1.3,0.7l6.8-2.2
		l6.9-2.2C-36.6-1145.9-36.3-1146.5-36.5-1147.1z"/>
</g>
<text transform="matrix(1 0 0 1 409.6211 -296.7917)"><tspan x="0" y="0" class="st0" style="font-family:'BarlowSemiCondensed-Bold'; font-size:215.7597px; letter-spacing:-8;">C</tspan><tspan x="106.8" y="0" class="st0" style="font-family:'BarlowSemiCondensed-Bold'; font-size:215.7597px; letter-spacing:-8;">on</tspan><tspan x="304.7" y="0" class="st0" style="font-family:'BarlowSemiCondensed-Bold'; font-size:215.7597px; letter-spacing:-4;">n</tspan><tspan x="407.6" y="0" class="st0" style="font-family:'BarlowSemiCondensed-Bold'; font-size:215.7597px; letter-spacing:-8;">e</tspan><tspan x="505.1" y="0" class="st0" style="font-family:'BarlowSemiCondensed-Bold'; font-size:215.7597px; letter-spacing:-4;">c</tspan><tspan x="605" y="0" class="st0" style="font-family:'BarlowSemiCondensed-Bold'; font-size:215.7597px; letter-spacing:-8;">ta</tspan><tspan x="764.9" y="0" class="st0" style="font-family:'BarlowSemiCondensed-Bold'; font-size:215.7597px; letter-spacing:-4;">h</tspan><tspan x="867.8" y="0" class="st0" style="font-family:'BarlowSemiCondensed-Bold'; font-size:215.7597px;">a</tspan></text>
<g>
	<text transform="matrix(1 0 0 1 410.7276 -205.8914)" class="st0" style="font-family:'Barlow-Light'; font-size:95.8932px;">Power when people talk.</text>
</g>
<rect x="-434.3" y="-1023.5" class="st6" width="126.3" height="126.3"/>
<g>
	<polygon class="st2" points="-27.9,-978.1 -24.4,-967.3 -13.1,-967.3 -9.6,-978.1 -18.7,-984.7 	"/>
	<path class="st8" d="M4.1-988.4l-4.6-3.3l3.7-5.1c0,0,0.9-1.1-1.5-1.1c-1.7,0-6.4,0.8-9.1,1.2l-5.7-4.2c-0.5-0.3-1.1-0.3-1.5,0.2
		l-4.2,5.8l-4.3,5.9c-0.3,0.5-0.2,1.1,0.3,1.5l4,2.9l9.2,6.7l1.5-4.7c0.2-0.6,0.8-0.9,1.3-0.7l6.9,2.2l4.2-5.7
		C4.7-987.4,4.6-988.1,4.1-988.4z"/>
	<path class="st9" d="M9.4-962.7c-0.5-1.6-2.7-5.9-4-8.3l2.2-6.7c0.2-0.6-0.1-1.2-0.6-1.3l-6.8-2.2l-6.9-2.2
		c-0.5-0.2-1.1,0.1-1.3,0.7l-1.5,4.7l-3.5,10.8h5c0.6,0,1.1,0.5,1.1,1v7.3l6.7,2.2c0.5,0.2,1.1-0.1,1.3-0.7l1.8-5.4l6,2
		C8.8-961,10.1-960.5,9.4-962.7z"/>
	<path class="st7" d="M-8.1-967.3h-5h-11.3l1.5,4.7c0.2,0.6-0.1,1.2-0.6,1.3l-6.9,2.2v7.1c0,0.6,0.5,1,1.1,1h5.7v6.3
		c0,0-0.1,1.4,1.9,0c1.4-1,4.7-4.4,6.6-6.3h7.1c0.6,0,1.1-0.5,1.1-1v-7.1v-7.3C-7-966.8-7.5-967.3-8.1-967.3z"/>
	<path class="st5" d="M-22.7-987.6c-0.5-0.3-0.6-1-0.3-1.5l4.3-5.9l-4.2-5.7c-0.3-0.5-1-0.6-1.5-0.2l-4.6,3.3l-3.7-5.1
		c0,0-0.8-1.2-1.5,1.1c-0.5,1.6-1.3,6.4-1.7,9l-5.7,4.2c-0.5,0.3-0.6,1-0.3,1.5l4.2,5.8l4.3,5.9c0.3,0.5,1,0.6,1.5,0.2l4-2.9
		l9.2-6.7L-22.7-987.6z"/>
	<path class="st6" d="M-22.9-962.6l-1.5-4.7l-3.5-10.8l-4,2.9c-0.5,0.3-1.1,0.3-1.5-0.2l-4.3-5.9l-6.7,2.2c-0.5,0.2-0.8,0.8-0.6,1.3
		l1.8,5.4l-6,2c0,0-1.4,0.4,0.6,1.8c1.4,1,5.7,3.2,8.1,4.4l2.2,6.7c0.2,0.6,0.8,0.9,1.3,0.7l6.8-2.2l6.9-2.2
		C-23-961.4-22.7-962-22.9-962.6z"/>
</g>
<g>
	<g>
		<polygon class="st2" points="471.6,-944.7 481.1,-915.4 511.9,-915.4 521.4,-944.7 496.5,-962.8 		"/>
		<path class="st3" d="M558.5-972.9l-12.5-9.1l10.1-13.9c0,0,2.4-3-4.1-3c-4.6,0-17.5,2.1-24.7,3.3l-15.6-11.3
			c-1.3-0.9-3.1-0.7-4,0.6l-11.4,15.6l-11.6,15.9c-0.9,1.2-0.6,3,0.7,4l10.9,7.9l24.9,18.1l4.2-12.8c0.5-1.5,2.1-2.4,3.5-1.9
			l18.7,6.1l11.3-15.6C560.1-970.2,559.8-971.9,558.5-972.9z"/>
		<path class="st3" d="M572.8-903c-1.4-4.3-7.4-16-10.8-22.5l5.9-18.3c0.5-1.5-0.3-3.1-1.8-3.6l-18.4-6l-18.7-6.1
			c-1.5-0.5-3.1,0.4-3.5,1.9l-4.2,12.8l-9.5,29.3h13.5c1.6,0,2.9,1.2,2.9,2.8v19.7l18.3,6c1.5,0.5,3.1-0.4,3.5-1.9l4.8-14.7
			l16.4,5.3C571.3-898.2,574.9-896.8,572.8-903z"/>
		<path class="st3" d="M525.4-915.4h-13.5h-30.8l4.2,12.8c0.5,1.5-0.3,3.1-1.8,3.6l-18.7,6.1v19.3c0,1.5,1.3,2.8,2.9,2.8h15.4v17.2
			c0,0-0.2,3.8,5.1,0c3.7-2.7,12.9-12,18-17.2h19.2c1.6,0,2.9-1.2,2.9-2.8v-19.3v-19.7C528.3-914.2,527-915.4,525.4-915.4z"/>
		<path class="st3" d="M485.6-970.7c-1.3-0.9-1.6-2.7-0.7-4l11.6-15.9l-11.3-15.6c-0.9-1.2-2.7-1.5-4-0.6l-12.5,9.1l-10.1-13.9
			c0,0-2.1-3.2-4.1,3c-1.4,4.4-3.4,17.3-4.5,24.5l-15.6,11.3c-1.3,0.9-1.6,2.7-0.7,4l11.4,15.6l11.6,15.9c0.9,1.2,2.7,1.5,4,0.6
			l10.9-7.9l24.9-18.1L485.6-970.7z"/>
		<path class="st3" d="M485.3-902.6l-4.2-12.8l-9.5-29.3l-10.9,7.9c-1.3,0.9-3.1,0.7-4-0.6l-11.6-15.9l-18.3,6
			c-1.5,0.5-2.3,2.1-1.8,3.6l4.8,14.7l-16.4,5.3c0,0-3.7,1,1.6,4.8c3.7,2.7,15.4,8.6,21.9,11.8l5.9,18.3c0.5,1.5,2.1,2.4,3.5,1.9
			l18.4-6l18.7-6.1C485-899.4,485.8-901.1,485.3-902.6z"/>
	</g>
	<g>
		<polygon class="st2" points="468.9,-947.4 478.4,-918.1 509.2,-918.1 518.7,-947.4 493.8,-965.5 		"/>
		<path class="st8" d="M555.8-975.6l-12.5-9.1l10.1-13.9c0,0,2.4-3-4.1-3c-4.6,0-17.5,2.1-24.7,3.3l-15.6-11.3
			c-1.3-0.9-3.1-0.7-4,0.6l-11.4,15.6l-11.6,15.9c-0.9,1.2-0.6,3,0.7,4l10.9,7.9l24.9,18.1l4.2-12.8c0.5-1.5,2.1-2.4,3.5-1.9
			l18.7,6.1l11.3-15.6C557.4-972.9,557.1-974.6,555.8-975.6z"/>
		<path class="st9" d="M570.1-905.7c-1.4-4.3-7.4-16-10.8-22.5l5.9-18.3c0.5-1.5-0.3-3.1-1.8-3.6l-18.4-6l-18.7-6.1
			c-1.5-0.5-3.1,0.4-3.5,1.9l-4.2,12.8l-9.5,29.3h13.5c1.6,0,2.9,1.2,2.9,2.8v19.7l18.3,6c1.5,0.5,3.1-0.4,3.5-1.9l4.8-14.7
			l16.4,5.3C568.6-900.9,572.2-899.5,570.1-905.7z"/>
		<path class="st7" d="M522.7-918.1h-13.5h-30.8l4.2,12.8c0.5,1.5-0.3,3.1-1.8,3.6l-18.7,6.1v19.3c0,1.5,1.3,2.8,2.9,2.8h15.4v17.2
			c0,0-0.2,3.8,5.1,0c3.7-2.7,12.9-12,18-17.2h19.2c1.6,0,2.9-1.2,2.9-2.8v-19.3v-19.7C525.6-916.9,524.3-918.1,522.7-918.1z"/>
		<path class="st5" d="M482.9-973.4c-1.3-0.9-1.6-2.7-0.7-4l11.6-15.9l-11.3-15.6c-0.9-1.2-2.7-1.5-4-0.6l-12.5,9.1l-10.1-13.9
			c0,0-2.1-3.2-4.1,3c-1.4,4.4-3.4,17.3-4.5,24.5l-15.6,11.3c-1.3,0.9-1.6,2.7-0.7,4l11.4,15.6L454-940c0.9,1.2,2.7,1.5,4,0.6
			l10.9-7.9l24.9-18.1L482.9-973.4z"/>
		<path class="st6" d="M482.6-905.3l-4.2-12.8l-9.5-29.3l-10.9,7.9c-1.3,0.9-3.1,0.7-4-0.6L442.4-956l-18.3,6
			c-1.5,0.5-2.3,2.1-1.8,3.6l4.8,14.7l-16.4,5.3c0,0-3.7,1,1.6,4.8c3.7,2.7,15.4,8.6,21.9,11.8l5.9,18.3c0.5,1.5,2.1,2.4,3.5,1.9
			l18.4-6l18.7-6.1C482.3-902.2,483.1-903.8,482.6-905.3z"/>
	</g>
</g>
<g>
	<g>
		<polygon class="st2" points="767.1,-846.1 787,-784.7 851.6,-784.7 871.5,-846.1 819.3,-884 		"/>
		<path class="st3" d="M949.3-905.2l-26.1-19l21.2-29.2c0,0,5-6.3-8.6-6.2c-9.6,0-36.6,4.4-51.8,6.9l-32.6-23.7
			c-2.7-2-6.4-1.4-8.3,1.2l-23.8,32.8L794.9-909c-1.9,2.6-1.2,6.3,1.5,8.3l22.9,16.6l52.2,38l8.8-26.9c1-3.2,4.4-4.9,7.4-4
			l39.3,12.8l23.8-32.7C952.7-899.5,952.1-903.2,949.3-905.2z"/>
		<path class="st3" d="M979.4-758.6c-3-9.1-15.5-33.5-22.6-47.1l12.5-38.4c1-3.2-0.6-6.6-3.7-7.6L927-864.2L887.7-877
			c-3.1-1-6.4,0.8-7.4,4l-8.8,26.9l-19.9,61.4h28.3c3.3,0,6.1,2.6,6.1,5.8v41.3l38.5,12.5c3.1,1,6.4-0.8,7.4-4l10-30.7l34.3,11.1
			C976.1-748.5,983.7-745.7,979.4-758.6z"/>
		<path class="st3" d="M879.9-784.7h-28.3H787l8.7,26.9c1,3.2-0.6,6.6-3.7,7.6l-39.3,12.8v40.4c0,3.2,2.7,5.8,6.1,5.8h32.3v36.1
			c0,0-0.4,8,10.6,0c7.7-5.7,27.1-25.1,37.8-36.1h40.3c3.3,0,6.1-2.6,6.1-5.8v-40.5v-41.3C886-782.1,883.3-784.7,879.9-784.7z"/>
		<path class="st3" d="M796.4-900.7c-2.7-2-3.4-5.7-1.5-8.3l24.3-33.4l-23.8-32.7c-1.9-2.6-5.6-3.1-8.3-1.2l-26.1,19l-21.2-29.2
			c0,0-4.4-6.7-8.6,6.2c-2.9,9.1-7.2,36.2-9.4,51.4l-32.6,23.7c-2.7,2-3.4,5.7-1.5,8.3l23.8,32.8l24.3,33.4c1.9,2.6,5.6,3.1,8.3,1.2
			l22.9-16.6l52.2-38L796.4-900.7z"/>
		<path class="st3" d="M795.8-757.7l-8.7-26.9l-19.9-61.4l-22.9,16.6c-2.7,2-6.4,1.4-8.3-1.2l-24.3-33.4l-38.5,12.5
			c-3.1,1-4.7,4.4-3.7,7.6l10,30.7l-34.3,11.1c0,0-7.8,2.1,3.3,10.1c7.8,5.6,32.2,18,46,24.8l12.5,38.4c1,3.2,4.4,4.9,7.4,4
			l38.5-12.5l39.3-12.8C795.2-751.2,796.8-754.6,795.8-757.7z"/>
	</g>
	<g>
		<polygon class="st2" points="761.4,-851.8 781.3,-790.4 845.9,-790.4 865.8,-851.8 813.6,-889.7 		"/>
		<path class="st8" d="M943.6-910.9l-26.1-19l21.2-29.2c0,0,5-6.3-8.6-6.2c-9.6,0-36.6,4.4-51.8,6.9l-32.6-23.7
			c-2.7-2-6.4-1.4-8.3,1.2l-23.8,32.8l-24.3,33.4c-1.9,2.6-1.2,6.3,1.5,8.3l22.9,16.6l52.2,38l8.8-26.9c1-3.2,4.4-4.9,7.4-4
			l39.3,12.8l23.8-32.7C947-905.2,946.3-908.9,943.6-910.9z"/>
		<path class="st9" d="M973.7-764.3c-3-9.1-15.5-33.5-22.6-47.1l12.5-38.4c1-3.2-0.6-6.6-3.7-7.6l-38.5-12.5L882-882.7
			c-3.1-1-6.4,0.8-7.4,4l-8.8,26.9l-19.9,61.4h28.3c3.3,0,6.1,2.6,6.1,5.8v41.3l38.5,12.5c3.1,1,6.4-0.8,7.4-4l10-30.7l34.3,11.1
			C970.4-754.2,978-751.4,973.7-764.3z"/>
		<path class="st7" d="M874.2-790.4h-28.3h-64.6l8.7,26.9c1,3.2-0.6,6.6-3.7,7.6l-39.3,12.8v40.4c0,3.2,2.7,5.8,6.1,5.8h32.3v36.1
			c0,0-0.4,8,10.6,0c7.7-5.7,27.1-25.1,37.8-36.1h40.3c3.3,0,6.1-2.6,6.1-5.8v-40.5v-41.3C880.3-787.8,877.5-790.4,874.2-790.4z"/>
		<path class="st5" d="M790.7-906.4c-2.7-2-3.4-5.7-1.5-8.3l24.3-33.4l-23.8-32.7c-1.9-2.6-5.6-3.1-8.3-1.2l-26.1,19l-21.2-29.2
			c0,0-4.4-6.7-8.6,6.2c-2.9,9.1-7.2,36.2-9.4,51.4l-32.6,23.7c-2.7,2-3.4,5.7-1.5,8.3l23.8,32.8l24.3,33.4c1.9,2.6,5.6,3.1,8.3,1.2
			l22.9-16.6l52.2-38L790.7-906.4z"/>
		<path class="st6" d="M790.1-763.5l-8.7-26.9l-19.9-61.4l-22.9,16.6c-2.7,2-6.4,1.4-8.3-1.2l-24.3-33.4l-38.5,12.5
			c-3.1,1-4.7,4.4-3.7,7.6l10,30.7l-34.3,11.1c0,0-7.8,2.1,3.3,10.1c7.8,5.6,32.2,18,46,24.8l12.5,38.4c1,3.2,4.4,4.9,7.4,4
			l38.5-12.5l39.3-12.8C789.5-756.9,791.1-760.3,790.1-763.5z"/>
	</g>
</g>
<g>
	<text transform="matrix(1 0 0 1 17.8802 -798.9413)"><tspan x="0" y="0" class="st3" style="font-family:'BarlowSemiCondensed-Bold'; font-size:70.1097px; letter-spacing:-2;">C</tspan><tspan x="34.7" y="0" class="st3" style="font-family:'BarlowSemiCondensed-Bold'; font-size:70.1097px; letter-spacing:-2;">on</tspan><tspan x="99" y="0" class="st3" style="font-family:'BarlowSemiCondensed-Bold'; font-size:70.1097px; letter-spacing:-1;">n</tspan><tspan x="132.4" y="0" class="st3" style="font-family:'BarlowSemiCondensed-Bold'; font-size:70.1097px; letter-spacing:-2;">e</tspan><tspan x="164.1" y="0" class="st3" style="font-family:'BarlowSemiCondensed-Bold'; font-size:70.1097px; letter-spacing:-1;">c</tspan><tspan x="196.6" y="0" class="st3" style="font-family:'BarlowSemiCondensed-Bold'; font-size:70.1097px; letter-spacing:-2;">ta</tspan><tspan x="248.5" y="0" class="st3" style="font-family:'BarlowSemiCondensed-Bold'; font-size:70.1097px; letter-spacing:-1;">h</tspan><tspan x="282" y="0" class="st3" style="font-family:'BarlowSemiCondensed-Bold'; font-size:70.1097px;">a</tspan></text>
	<g>
		<polygon class="st2" points="-26.9,-827.4 -23.4,-816.6 -12.1,-816.6 -8.6,-827.4 -17.7,-834.1 		"/>
		<path class="st3" d="M5.1-837.8l-4.6-3.3l3.7-5.1c0,0,0.9-1.1-1.5-1.1c-1.7,0-6.4,0.8-9.1,1.2l-5.7-4.2c-0.5-0.3-1.1-0.3-1.5,0.2
			l-4.2,5.8l-4.3,5.9c-0.3,0.5-0.2,1.1,0.3,1.5l4,2.9l9.2,6.7l1.5-4.7c0.2-0.6,0.8-0.9,1.3-0.7l6.9,2.2l4.2-5.7
			C5.7-836.8,5.6-837.4,5.1-837.8z"/>
		<path class="st3" d="M10.4-812.1c-0.5-1.6-2.7-5.9-4-8.3l2.2-6.7c0.2-0.6-0.1-1.2-0.6-1.3l-6.8-2.2l-6.9-2.2
			c-0.5-0.2-1.1,0.1-1.3,0.7l-1.5,4.7l-3.5,10.8h5c0.6,0,1.1,0.5,1.1,1v7.3l6.7,2.2c0.5,0.2,1.1-0.1,1.3-0.7l1.8-5.4l6,2
			C9.8-810.3,11.1-809.8,10.4-812.1z"/>
		<path class="st3" d="M-7.1-816.6h-5h-11.3l1.5,4.7c0.2,0.6-0.1,1.2-0.6,1.3l-6.9,2.2v7.1c0,0.6,0.5,1,1.1,1h5.7v6.3
			c0,0-0.1,1.4,1.9,0c1.4-1,4.7-4.4,6.6-6.3h7.1c0.6,0,1.1-0.5,1.1-1v-7.1v-7.3C-6-816.2-6.5-816.6-7.1-816.6z"/>
		<path class="st3" d="M-21.7-837c-0.5-0.3-0.6-1-0.3-1.5l4.3-5.9l-4.2-5.7c-0.3-0.5-1-0.6-1.5-0.2l-4.6,3.3l-3.7-5.1
			c0,0-0.8-1.2-1.5,1.1c-0.5,1.6-1.3,6.4-1.7,9l-5.7,4.2c-0.5,0.3-0.6,1-0.3,1.5l4.2,5.8l4.3,5.9c0.3,0.5,1,0.6,1.5,0.2l4-2.9
			l9.2-6.7L-21.7-837z"/>
		<path class="st3" d="M-21.9-811.9l-1.5-4.7l-3.5-10.8l-4,2.9c-0.5,0.3-1.1,0.3-1.5-0.2l-4.3-5.9l-6.7,2.2
			c-0.5,0.2-0.8,0.8-0.6,1.3l1.8,5.4l-6,2c0,0-1.4,0.4,0.6,1.8c1.4,1,5.7,3.2,8.1,4.4l2.2,6.7c0.2,0.6,0.8,0.9,1.3,0.7l6.8-2.2
			l6.9-2.2C-22-810.8-21.7-811.4-21.9-811.9z"/>
	</g>
</g>
<g>
	<polygon class="st2" points="-27.9,-828.4 -24.4,-817.6 -13.1,-817.6 -9.6,-828.4 -18.7,-835.1 	"/>
	<path class="st8" d="M4.1-838.8l-4.6-3.3l3.7-5.1c0,0,0.9-1.1-1.5-1.1c-1.7,0-6.4,0.8-9.1,1.2l-5.7-4.2c-0.5-0.3-1.1-0.3-1.5,0.2
		l-4.2,5.8l-4.3,5.9c-0.3,0.5-0.2,1.1,0.3,1.5l4,2.9l9.2,6.7l1.5-4.7c0.2-0.6,0.8-0.9,1.3-0.7l6.9,2.2l4.2-5.7
		C4.7-837.8,4.6-838.4,4.1-838.8z"/>
	<path class="st9" d="M9.4-813.1c-0.5-1.6-2.7-5.9-4-8.3l2.2-6.7c0.2-0.6-0.1-1.2-0.6-1.3l-6.8-2.2l-6.9-2.2
		c-0.5-0.2-1.1,0.1-1.3,0.7l-1.5,4.7l-3.5,10.8h5c0.6,0,1.1,0.5,1.1,1v7.3l6.7,2.2c0.5,0.2,1.1-0.1,1.3-0.7l1.8-5.4l6,2
		C8.8-811.3,10.1-810.8,9.4-813.1z"/>
	<path class="st7" d="M-8.1-817.6h-5h-11.3l1.5,4.7c0.2,0.6-0.1,1.2-0.6,1.3l-6.9,2.2v7.1c0,0.6,0.5,1,1.1,1h5.7v6.3
		c0,0-0.1,1.4,1.9,0c1.4-1,4.7-4.4,6.6-6.3h7.1c0.6,0,1.1-0.5,1.1-1v-7.1v-7.3C-7-817.2-7.5-817.6-8.1-817.6z"/>
	<path class="st5" d="M-22.7-838c-0.5-0.3-0.6-1-0.3-1.5l4.3-5.9l-4.2-5.7c-0.3-0.5-1-0.6-1.5-0.2l-4.6,3.3l-3.7-5.1
		c0,0-0.8-1.2-1.5,1.1c-0.5,1.6-1.3,6.4-1.7,9l-5.7,4.2c-0.5,0.3-0.6,1-0.3,1.5l4.2,5.8l4.3,5.9c0.3,0.5,1,0.6,1.5,0.2l4-2.9
		l9.2-6.7L-22.7-838z"/>
	<path class="st6" d="M-22.9-812.9l-1.5-4.7l-3.5-10.8l-4,2.9c-0.5,0.3-1.1,0.3-1.5-0.2l-4.3-5.9l-6.7,2.2c-0.5,0.2-0.8,0.8-0.6,1.3
		l1.8,5.4l-6,2c0,0-1.4,0.4,0.6,1.8c1.4,1,5.7,3.2,8.1,4.4l2.2,6.7c0.2,0.6,0.8,0.9,1.3,0.7l6.8-2.2l6.9-2.2
		C-23-811.8-22.7-812.4-22.9-812.9z"/>
</g>
<g>
	<path class="st3" d="M80.3,53.2c-2.5-1.3-4.4-3.2-5.8-5.6c-1.4-2.4-2.1-5.2-2.1-8.4V19.2c0-3.1,0.7-5.9,2.1-8.3s3.3-4.2,5.8-5.5
		c2.5-1.3,5.4-1.9,8.7-1.9c3.3,0,6.2,0.6,8.7,1.9c2.5,1.3,4.4,3.1,5.8,5.4c1.4,2.3,2.1,5,2.1,8.1v0.4c0,0.2-0.1,0.5-0.3,0.6
		c-0.2,0.2-0.4,0.3-0.6,0.3l-8.4,0.4c-0.6,0-0.9-0.3-0.9-0.8v-0.9c0-2-0.6-3.6-1.7-4.8c-1.2-1.2-2.7-1.8-4.6-1.8
		c-1.9,0-3.5,0.6-4.6,1.8c-1.2,1.2-1.7,2.8-1.7,4.8v21.2c0,2,0.6,3.6,1.7,4.7c1.2,1.2,2.7,1.8,4.6,1.8c1.9,0,3.5-0.6,4.6-1.8
		c1.2-1.2,1.7-2.8,1.7-4.7V39c0-0.5,0.3-0.8,0.9-0.8l8.4,0.4c0.6,0,0.9,0.2,0.9,0.5v0.6c0,3.1-0.7,5.8-2.1,8.2
		c-1.4,2.4-3.3,4.2-5.8,5.5c-2.5,1.3-5.4,1.9-8.7,1.9C85.7,55.1,82.8,54.5,80.3,53.2z"/>
	<path class="st3" d="M113.1,52c-2.6-2.1-4.2-5.1-4.8-8.8c-0.3-2.4-0.5-4.8-0.5-7.2c0-3,0.2-5.4,0.5-7.3c0.6-3.6,2.2-6.5,4.8-8.6
		c2.6-2.1,6.1-3.2,10.3-3.2c4.1,0,7.5,1.1,10.1,3.2c2.6,2.1,4.2,5,4.8,8.5c0.4,2.2,0.6,4.6,0.6,7.3c0,2.4-0.2,4.8-0.5,7.1
		c-0.5,3.8-2.1,6.8-4.8,8.9c-2.6,2.1-6.1,3.2-10.3,3.2C119.1,55.1,115.7,54.1,113.1,52z M126.6,45.1c0.9-0.9,1.4-2,1.7-3.5
		c0.2-1.5,0.3-3.4,0.3-5.7c0-2.3-0.1-4.1-0.3-5.6c-0.2-1.4-0.8-2.6-1.7-3.4c-0.9-0.8-2-1.3-3.3-1.3c-1.3,0-2.5,0.4-3.3,1.3
		c-0.9,0.8-1.4,2-1.7,3.4c-0.2,1.8-0.4,3.7-0.4,5.6c0,1.5,0.1,3.4,0.3,5.7c0.2,1.4,0.8,2.6,1.7,3.5c0.9,0.9,2,1.3,3.3,1.3
		C124.7,46.4,125.8,46,126.6,45.1z"/>
	<path class="st3" d="M168.3,20.2c2,2.2,3,5.4,3,9.4v24.1c0,0.2-0.1,0.4-0.3,0.6c-0.2,0.2-0.4,0.3-0.6,0.3H162
		c-0.2,0-0.4-0.1-0.6-0.3c-0.2-0.2-0.3-0.4-0.3-0.6V31c0-1.7-0.4-3-1.2-4c-0.8-1-1.9-1.4-3.3-1.4c-1.4,0-2.6,0.5-3.4,1.5
		c-0.8,1-1.3,2.3-1.3,4v22.6c0,0.2-0.1,0.4-0.3,0.6c-0.2,0.2-0.4,0.3-0.6,0.3h-8.4c-0.2,0-0.4-0.1-0.6-0.3c-0.2-0.2-0.3-0.4-0.3-0.6
		V18.3c0-0.2,0.1-0.4,0.3-0.6c0.2-0.2,0.4-0.3,0.6-0.3h8.4c0.2,0,0.4,0.1,0.6,0.3c0.2,0.2,0.3,0.4,0.3,0.6v1.9c0,0.1,0,0.2,0.1,0.3
		c0.1,0,0.2,0,0.4-0.2c1.8-2.3,4.3-3.5,7.7-3.5C163.6,16.9,166.3,18,168.3,20.2z"/>
	<path class="st3" d="M201.3,20.2c2,2.2,3,5.4,3,9.4v24.1c0,0.2-0.1,0.4-0.3,0.6c-0.2,0.2-0.4,0.3-0.6,0.3H195
		c-0.2,0-0.4-0.1-0.6-0.3c-0.2-0.2-0.3-0.4-0.3-0.6V31c0-1.7-0.4-3-1.2-4c-0.8-1-1.9-1.4-3.3-1.4c-1.4,0-2.6,0.5-3.4,1.5
		c-0.8,1-1.3,2.3-1.3,4v22.6c0,0.2-0.1,0.4-0.3,0.6c-0.2,0.2-0.4,0.3-0.6,0.3h-8.4c-0.2,0-0.4-0.1-0.6-0.3c-0.2-0.2-0.3-0.4-0.3-0.6
		V18.3c0-0.2,0.1-0.4,0.3-0.6c0.2-0.2,0.4-0.3,0.6-0.3h8.4c0.2,0,0.4,0.1,0.6,0.3c0.2,0.2,0.3,0.4,0.3,0.6v1.9c0,0.1,0,0.2,0.1,0.3
		c0.1,0,0.2,0,0.4-0.2c1.8-2.3,4.3-3.5,7.7-3.5C196.6,16.9,199.3,18,201.3,20.2z"/>
	<path class="st3" d="M227.9,45.5c0.9-0.6,1.5-1.4,2-2.5c0.2-0.5,0.6-0.7,1.1-0.6l6.9,1.4c0.6,0.1,0.8,0.5,0.6,1.1
		c-1,3.2-2.7,5.7-5.2,7.5s-5.5,2.7-9.2,2.7c-3.8,0-7-1-9.5-2.9c-2.6-1.9-4.2-4.5-5-7.8c-0.7-2.4-1-5.4-1-9c0-2.4,0.1-4.4,0.3-5.9
		c0.5-3.9,2-7.1,4.6-9.3c2.6-2.3,6-3.4,10.4-3.4c4.6,0,8.2,1.2,10.7,3.6c2.5,2.4,3.9,5.9,4.4,10.4c0.2,2.6,0.4,5,0.4,7.4
		c0,0.6-0.3,0.9-0.9,0.9h-19.2c-0.2,0-0.4,0.1-0.4,0.4c0,1,0.1,1.9,0.2,2.6c0.2,1.3,0.9,2.4,1.9,3.2c1,0.8,2.3,1.2,3.8,1.2
		C225.9,46.4,227,46.1,227.9,45.5z M219.1,29.8c-0.1,0.5-0.2,1.3-0.3,2.6c0,0.2,0.1,0.4,0.4,0.4h9.4c0.2,0,0.4-0.1,0.4-0.4
		c0-0.6-0.1-1.4-0.3-2.5c-0.2-1.3-0.7-2.4-1.5-3.2c-0.8-0.8-1.9-1.2-3.3-1.2C221.2,25.6,219.6,27,219.1,29.8z"/>
	<path class="st3" d="M246.5,52.1c-2.6-2-4.2-4.8-4.9-8.4c-0.4-2-0.6-4.6-0.6-7.8c0-2.4,0.2-5,0.6-7.7c0.6-3.5,2.3-6.2,4.9-8.3
		c2.6-2,6-3.1,10-3.1c3.9,0,7.2,1,9.9,3c2.7,2,4.3,4.6,4.9,7.8c0.1,0.4,0.2,1.1,0.3,2.1c0,0.5-0.3,0.8-0.9,0.9l-8.3,0.8h-0.1
		c-0.4,0-0.7-0.3-0.8-0.8c0-0.3,0-0.6-0.1-0.7c-0.1-0.4-0.2-0.7-0.3-1c-0.3-1-0.8-1.8-1.7-2.4c-0.8-0.6-1.8-0.9-3-0.9
		c-1.3,0-2.4,0.4-3.2,1.2c-0.8,0.8-1.3,1.8-1.6,3.2c-0.3,1.6-0.4,3.6-0.4,6c0,2.6,0.2,4.7,0.5,6.2c0.2,1.3,0.8,2.3,1.6,3.1
		c0.8,0.8,1.8,1.2,3.1,1.2c1.4,0,2.5-0.4,3.4-1.2c0.8-0.8,1.3-1.7,1.5-2.9l0.1-0.9c0-0.2,0.2-0.4,0.3-0.6c0.2-0.2,0.4-0.2,0.6-0.2
		l8.4,0.7c0.5,0.1,0.8,0.4,0.8,0.9c0,0.3,0,0.8-0.1,1.4c-0.5,3.5-2.1,6.3-4.7,8.3s-6.1,3-10.1,3C252.5,55.1,249.2,54.1,246.5,52.1z"
		/>
	<path class="st3" d="M294.1,24.8c-0.2,0.2-0.4,0.3-0.6,0.3H288c-0.2,0-0.4,0.1-0.4,0.4v16.1c0,1.5,0.3,2.6,0.9,3.2
		c0.6,0.6,1.5,1,2.8,0.9h1.4c0.2,0,0.4,0.1,0.6,0.3c0.2,0.2,0.3,0.4,0.3,0.6v7c0,0.6-0.3,0.9-0.9,0.9c-0.8,0-2,0.1-3.6,0.1
		c-3.8,0-6.6-0.6-8.5-1.9c-1.9-1.3-2.8-3.6-2.8-7.1V25.4c0-0.2-0.1-0.4-0.4-0.4h-3.3c-0.2,0-0.4-0.1-0.6-0.3
		c-0.2-0.2-0.3-0.4-0.3-0.6v-5.9c0-0.2,0.1-0.4,0.3-0.6c0.2-0.2,0.4-0.3,0.6-0.3h3.3c0.2,0,0.4-0.1,0.4-0.4V8.8
		c0-0.2,0.1-0.4,0.3-0.6c0.2-0.2,0.4-0.3,0.6-0.3h8c0.2,0,0.4,0.1,0.6,0.3c0.2,0.2,0.3,0.4,0.3,0.6v8.3c0,0.2,0.1,0.4,0.4,0.4h5.6
		c0.2,0,0.4,0.1,0.6,0.3c0.2,0.2,0.3,0.4,0.3,0.6v5.9C294.4,24.5,294.3,24.7,294.1,24.8z"/>
	<path class="st3" d="M318.4,18.4c2.3,1,4,2.5,5.3,4.3c1.3,1.9,1.9,4,1.9,6.3v24.6c0,0.2-0.1,0.4-0.3,0.6c-0.2,0.2-0.4,0.3-0.6,0.3
		h-8.4c-0.2,0-0.4-0.1-0.6-0.3c-0.2-0.2-0.3-0.4-0.3-0.6v-1.9c0-0.1,0-0.2-0.1-0.3c-0.1,0-0.2,0-0.3,0.1c-1.9,2.4-4.8,3.5-8.7,3.5
		c-3.2,0-5.9-0.8-8.1-2.5c-2.2-1.7-3.2-4.5-3.2-8.4c0-7.8,4.9-11.8,14.7-11.8h5.3c0.2,0,0.4-0.1,0.4-0.4v-1.7c0-1.4-0.4-2.6-1.3-3.5
		c-0.8-0.9-2-1.3-3.5-1.3c-1.1,0-2,0.3-2.8,0.8c-0.8,0.5-1.3,1.3-1.4,2.2c-0.1,0.5-0.5,0.7-1,0.7l-8.7-0.5c-0.2,0-0.4-0.1-0.6-0.2
		c-0.2-0.1-0.2-0.3-0.2-0.6c0.2-3.3,1.7-6,4.4-8.1c2.7-2,6.1-3.1,10.3-3.1C313.6,16.9,316.2,17.4,318.4,18.4z M313.7,46
		c1.2-0.9,1.7-2.1,1.7-3.6v-3c0-0.2-0.1-0.4-0.4-0.4H311c-1.7,0-3.1,0.4-4.1,1.2c-1,0.8-1.5,1.9-1.5,3.3c0,1.3,0.4,2.2,1.2,2.9
		c0.8,0.7,1.8,1,3,1C311.2,47.4,312.6,46.9,313.7,46z"/>
	<path class="st3" d="M355.4,20.2c2,2.2,3,5.4,3,9.4v24.1c0,0.2-0.1,0.4-0.3,0.6c-0.2,0.2-0.4,0.3-0.6,0.3H349
		c-0.2,0-0.4-0.1-0.6-0.3c-0.2-0.2-0.3-0.4-0.3-0.6V31c0-1.7-0.4-3-1.2-4c-0.8-1-1.9-1.4-3.3-1.4c-1.4,0-2.6,0.5-3.4,1.5
		c-0.8,1-1.3,2.3-1.3,4v22.6c0,0.2-0.1,0.4-0.3,0.6c-0.2,0.2-0.4,0.3-0.6,0.3h-8.4c-0.2,0-0.4-0.1-0.6-0.3c-0.2-0.2-0.3-0.4-0.3-0.6
		V4.9c0-0.2,0.1-0.4,0.3-0.6c0.2-0.2,0.4-0.3,0.6-0.3h8.4c0.2,0,0.4,0.1,0.6,0.3c0.2,0.2,0.3,0.4,0.3,0.6v15.4c0,0.1,0,0.2,0.1,0.3
		c0.1,0,0.2,0,0.4-0.2c1.8-2.3,4.3-3.5,7.7-3.5C350.6,16.9,353.4,18,355.4,20.2z"/>
	<path class="st3" d="M385.1,18.4c2.3,1,4,2.5,5.3,4.3c1.3,1.9,1.9,4,1.9,6.3v24.6c0,0.2-0.1,0.4-0.3,0.6c-0.2,0.2-0.4,0.3-0.6,0.3
		H383c-0.2,0-0.4-0.1-0.6-0.3c-0.2-0.2-0.3-0.4-0.3-0.6v-1.9c0-0.1,0-0.2-0.1-0.3c-0.1,0-0.2,0-0.3,0.1c-1.9,2.4-4.8,3.5-8.7,3.5
		c-3.2,0-5.9-0.8-8.1-2.5c-2.2-1.7-3.2-4.5-3.2-8.4c0-7.8,4.9-11.8,14.7-11.8h5.3c0.2,0,0.4-0.1,0.4-0.4v-1.7c0-1.4-0.4-2.6-1.3-3.5
		c-0.8-0.9-2-1.3-3.5-1.3c-1.1,0-2,0.3-2.8,0.8c-0.8,0.5-1.3,1.3-1.4,2.2c-0.1,0.5-0.5,0.7-1,0.7l-8.7-0.5c-0.2,0-0.4-0.1-0.6-0.2
		c-0.2-0.1-0.2-0.3-0.2-0.6c0.2-3.3,1.7-6,4.4-8.1c2.7-2,6.1-3.1,10.3-3.1C380.2,16.9,382.8,17.4,385.1,18.4z M380.4,46
		c1.2-0.9,1.7-2.1,1.7-3.6v-3c0-0.2-0.1-0.4-0.4-0.4h-4.1c-1.7,0-3.1,0.4-4.1,1.2c-1,0.8-1.5,1.9-1.5,3.3c0,1.3,0.4,2.2,1.2,2.9
		c0.8,0.7,1.8,1,3,1C377.8,47.4,379.2,46.9,380.4,46z"/>
</g>
<g>
	<g>
		<path class="st10" d="M85.9,64.1c1.1,1.1,1.7,2.6,1.7,4.4c0,1.8-0.6,3.3-1.7,4.4c-1.1,1.1-2.6,1.7-4.4,1.7h-6.7
			c-0.1,0-0.1,0-0.1,0.1v9.8c0,0.1,0,0.2-0.1,0.3c-0.1,0.1-0.2,0.1-0.3,0.1h-0.9c-0.1,0-0.2,0-0.3-0.1c-0.1-0.1-0.1-0.2-0.1-0.3
			V62.8c0-0.1,0-0.2,0.1-0.3c0.1-0.1,0.2-0.1,0.3-0.1h8.2C83.3,62.4,84.8,63,85.9,64.1z M84.6,71.9c0.8-0.8,1.2-2,1.2-3.3
			c0-1.4-0.4-2.5-1.2-3.4c-0.8-0.8-1.9-1.3-3.3-1.3h-6.6c-0.1,0-0.1,0-0.1,0.1v9c0,0.1,0,0.1,0.1,0.1h6.6
			C82.7,73.2,83.8,72.8,84.6,71.9z"/>
		<path class="st10" d="M93.1,84c-1.1-0.8-1.8-1.8-2.2-3.2c-0.3-0.9-0.4-2.2-0.4-4c0-1.7,0.1-3,0.4-4c0.4-1.3,1.1-2.4,2.2-3.2
			c1.1-0.8,2.4-1.2,3.9-1.2c1.5,0,2.8,0.4,3.9,1.2c1.1,0.8,1.8,1.8,2.2,3.1c0.2,0.9,0.4,2.2,0.4,4c0,1.8-0.1,3.2-0.4,4
			c-0.4,1.3-1.1,2.4-2.2,3.2c-1.1,0.8-2.4,1.2-3.9,1.2C95.5,85.2,94.2,84.8,93.1,84z M99.9,82.8c0.8-0.6,1.3-1.5,1.6-2.5
			c0.1-0.6,0.2-1.7,0.2-3.4c0-1.7-0.1-2.8-0.2-3.4c-0.2-1-0.8-1.9-1.6-2.5c-0.8-0.6-1.8-0.9-2.9-0.9S94.8,70.4,94,71
			c-0.8,0.6-1.3,1.5-1.5,2.5c-0.1,0.6-0.2,1.7-0.2,3.4c0,1.7,0.1,2.8,0.2,3.4c0.2,1,0.7,1.9,1.5,2.5c0.8,0.6,1.8,0.9,3,0.9
			C98.1,83.7,99.1,83.4,99.9,82.8z"/>
		<path class="st10" d="M110.7,84.7l-4.5-15.4l0-0.1c0-0.2,0.1-0.3,0.4-0.3h0.9c0.2,0,0.4,0.1,0.4,0.3l3.7,13.4c0,0,0,0.1,0.1,0.1
			s0.1,0,0.1-0.1l3.7-13.4c0.1-0.2,0.2-0.3,0.4-0.3h0.9c0.2,0,0.4,0.1,0.4,0.3l3.7,13.3c0,0,0.1,0.1,0.1,0.1s0.1,0,0.1-0.1l3.7-13.3
			c0.1-0.2,0.2-0.3,0.4-0.3l0.9,0c0.1,0,0.2,0,0.3,0.1c0.1,0.1,0.1,0.2,0,0.3L122,84.7c-0.1,0.2-0.2,0.3-0.4,0.3h-1
			c-0.2,0-0.4-0.1-0.4-0.3l-3.7-12.8c0,0-0.1-0.1-0.1-0.1c0,0-0.1,0-0.1,0.1l-3.7,12.8c-0.1,0.2-0.2,0.3-0.4,0.3h-1
			C110.9,85,110.7,84.9,110.7,84.7z"/>
		<path class="st10" d="M138.7,83c0.7-0.5,1.3-1.1,1.7-1.9c0.1-0.2,0.3-0.3,0.5-0.2l0.6,0.2c0.3,0.1,0.3,0.3,0.2,0.5
			c-0.5,1.1-1.2,2-2.2,2.6c-1,0.6-2.2,1-3.6,1c-1.5,0-2.7-0.4-3.7-1.1c-1-0.7-1.7-1.7-2.1-3c-0.3-1-0.4-2.4-0.4-4.3c0-1,0-1.8,0-2.4
			c0-0.5,0.1-1,0.2-1.5c0.3-1.3,1-2.4,2.1-3.2c1.1-0.8,2.4-1.2,3.9-1.2c1.7,0,3.1,0.4,4.1,1.3c1,0.9,1.7,2.1,2,3.7
			c0.1,0.4,0.1,0.9,0.2,1.3c0,0.5,0,1.2,0,2.1c0,0.3-0.1,0.4-0.4,0.4h-10.4c-0.1,0-0.1,0-0.1,0.1c0,1.3,0.1,2.3,0.2,2.8
			c0.2,1,0.8,1.9,1.6,2.5c0.8,0.6,1.8,0.9,3,0.9C137,83.7,137.9,83.5,138.7,83z M131.2,75.9c0,0.1,0,0.1,0.1,0.1h9
			c0.1,0,0.1,0,0.1-0.1c0-1.1-0.1-1.9-0.2-2.4c-0.2-1-0.7-1.9-1.5-2.5c-0.8-0.6-1.8-0.9-2.9-0.9c-1.2,0-2.1,0.3-2.9,0.9
			c-0.8,0.6-1.3,1.4-1.5,2.4C131.3,73.8,131.3,74.6,131.2,75.9z"/>
		<path class="st10" d="M155,69c0.2,0.1,0.3,0.2,0.2,0.5l-0.3,0.9c-0.1,0.3-0.2,0.3-0.5,0.2c-0.5-0.1-1-0.2-1.5-0.2
			c-1.2,0-2.2,0.5-3,1.4c-0.8,0.9-1.2,2-1.2,3.3v9.5c0,0.1,0,0.2-0.1,0.3c-0.1,0.1-0.2,0.1-0.3,0.1h-0.9c-0.1,0-0.2,0-0.3-0.1
			c-0.1-0.1-0.1-0.2-0.1-0.3V69.2c0-0.1,0-0.2,0.1-0.3c0.1-0.1,0.2-0.1,0.3-0.1h0.9c0.1,0,0.2,0,0.3,0.1c0.1,0.1,0.1,0.2,0.1,0.3
			v2.1c0,0.1,0,0.1,0,0.1c0,0,0.1,0,0.1-0.1c0.4-0.8,1-1.5,1.7-2c0.7-0.5,1.6-0.7,2.5-0.7C153.9,68.7,154.5,68.8,155,69z"/>
		<path class="st10" d="M167.9,84.7l-4.5-15.4l0-0.1c0-0.2,0.1-0.3,0.4-0.3h0.9c0.2,0,0.4,0.1,0.4,0.3l3.7,13.4c0,0,0,0.1,0.1,0.1
			c0,0,0.1,0,0.1-0.1l3.7-13.4c0.1-0.2,0.2-0.3,0.5-0.3h0.9c0.2,0,0.4,0.1,0.5,0.3l3.7,13.3c0,0,0.1,0.1,0.1,0.1c0,0,0.1,0,0.1-0.1
			l3.7-13.3c0.1-0.2,0.2-0.3,0.4-0.3l0.9,0c0.1,0,0.2,0,0.3,0.1c0.1,0.1,0.1,0.2,0,0.3l-4.5,15.4c-0.1,0.2-0.2,0.3-0.4,0.3h-1
			c-0.2,0-0.4-0.1-0.4-0.3l-3.7-12.8c0,0-0.1-0.1-0.1-0.1c0,0-0.1,0-0.1,0.1l-3.7,12.8c-0.1,0.2-0.2,0.3-0.4,0.3h-1
			C168.1,85,167.9,84.9,167.9,84.7z"/>
		<path class="st10" d="M198,70.1c1,1,1.5,2.3,1.5,4v10.5c0,0.1,0,0.2-0.1,0.3c-0.1,0.1-0.2,0.1-0.3,0.1h-0.9c-0.1,0-0.2,0-0.3-0.1
			c-0.1-0.1-0.1-0.2-0.1-0.3V74.4c0-1.3-0.4-2.3-1.2-3.1c-0.8-0.8-1.8-1.2-3-1.2c-1.3,0-2.4,0.4-3.1,1.2c-0.8,0.8-1.2,1.8-1.2,3.1
			v10.3c0,0.1,0,0.2-0.1,0.3c-0.1,0.1-0.2,0.1-0.3,0.1h-0.9c-0.1,0-0.2,0-0.3-0.1c-0.1-0.1-0.1-0.2-0.1-0.3V62.9
			c0-0.1,0-0.2,0.1-0.3c0.1-0.1,0.2-0.1,0.3-0.1h0.9c0.1,0,0.2,0,0.3,0.1c0.1,0.1,0.1,0.2,0.1,0.3v7.8c0,0.1,0,0.1,0,0.1
			c0,0,0.1,0,0.1,0c0.5-0.7,1.1-1.2,1.9-1.6c0.8-0.4,1.7-0.6,2.7-0.6C195.7,68.6,197,69.1,198,70.1z"/>
		<path class="st10" d="M213.5,83c0.7-0.5,1.3-1.1,1.7-1.9c0.1-0.2,0.3-0.3,0.5-0.2l0.6,0.2c0.3,0.1,0.3,0.3,0.2,0.5
			c-0.5,1.1-1.2,2-2.2,2.6c-1,0.6-2.2,1-3.6,1c-1.5,0-2.7-0.4-3.7-1.1c-1-0.7-1.7-1.7-2.1-3c-0.3-1-0.4-2.4-0.4-4.3c0-1,0-1.8,0-2.4
			c0-0.5,0.1-1,0.2-1.5c0.3-1.3,1-2.4,2.1-3.2c1.1-0.8,2.4-1.2,3.9-1.2c1.7,0,3.1,0.4,4.1,1.3c1,0.9,1.7,2.1,2,3.7
			c0.1,0.4,0.1,0.9,0.2,1.3c0,0.5,0,1.2,0,2.1c0,0.3-0.1,0.4-0.4,0.4h-10.4c-0.1,0-0.1,0-0.1,0.1c0,1.3,0.1,2.3,0.2,2.8
			c0.2,1,0.8,1.9,1.6,2.5c0.8,0.6,1.8,0.9,3,0.9C211.9,83.7,212.8,83.5,213.5,83z M206.1,75.9c0,0.1,0,0.1,0.1,0.1h9
			c0.1,0,0.1,0,0.1-0.1c0-1.1-0.1-1.9-0.2-2.4c-0.2-1-0.7-1.9-1.5-2.5c-0.8-0.6-1.8-0.9-2.9-0.9c-1.2,0-2.1,0.3-2.9,0.9
			c-0.8,0.6-1.3,1.4-1.5,2.4C206.2,73.8,206.1,74.6,206.1,75.9z"/>
		<path class="st10" d="M232.3,70.1c1,1,1.5,2.3,1.5,4v10.5c0,0.1,0,0.2-0.1,0.3c-0.1,0.1-0.2,0.1-0.3,0.1h-0.9
			c-0.1,0-0.2,0-0.3-0.1c-0.1-0.1-0.1-0.2-0.1-0.3V74.4c0-1.3-0.4-2.3-1.2-3.1c-0.8-0.8-1.8-1.2-3-1.2c-1.3,0-2.4,0.4-3.1,1.2
			c-0.8,0.8-1.2,1.8-1.2,3.1v10.3c0,0.1,0,0.2-0.1,0.3c-0.1,0.1-0.2,0.1-0.3,0.1h-0.9c-0.1,0-0.2,0-0.3-0.1
			c-0.1-0.1-0.1-0.2-0.1-0.3V69.2c0-0.1,0-0.2,0.1-0.3c0.1-0.1,0.2-0.1,0.3-0.1h0.9c0.1,0,0.2,0,0.3,0.1c0.1,0.1,0.1,0.2,0.1,0.3
			v1.5c0,0.1,0,0.1,0,0.1c0,0,0.1,0,0.1,0c0.5-0.7,1.1-1.2,1.9-1.6c0.8-0.4,1.7-0.6,2.7-0.6C230,68.6,231.3,69.1,232.3,70.1z"/>
		<path class="st10" d="M258.1,76.9c0,1,0,1.8-0.1,2.4c0,0.6-0.1,1.2-0.3,1.7c-0.3,1.3-1,2.4-2,3.2c-1,0.8-2.3,1.2-3.7,1.2
			c-0.9,0-1.8-0.2-2.5-0.6c-0.7-0.4-1.3-0.9-1.8-1.6c0,0-0.1-0.1-0.1,0c0,0-0.1,0.1-0.1,0.1v7.8c0,0.1,0,0.2-0.1,0.3
			c-0.1,0.1-0.2,0.1-0.3,0.1h-0.9c-0.1,0-0.2,0-0.3-0.1c-0.1-0.1-0.1-0.2-0.1-0.3V69.2c0-0.1,0-0.2,0.1-0.3c0.1-0.1,0.2-0.1,0.3-0.1
			h0.9c0.1,0,0.2,0,0.3,0.1c0.1,0.1,0.1,0.2,0.1,0.3v1.5c0,0.1,0,0.1,0,0.1c0,0,0.1,0,0.1,0c0.5-0.7,1.1-1.3,1.8-1.6
			c0.7-0.4,1.6-0.6,2.5-0.6c1.5,0,2.7,0.4,3.7,1.2c1,0.8,1.7,1.8,2.1,3.1C258,73.7,258.1,75.1,258.1,76.9z M256.3,79.4
			c0.1-0.5,0.1-1.3,0.1-2.5c0-1.1,0-1.9-0.1-2.4c-0.1-0.5-0.2-1-0.3-1.5c-0.2-0.9-0.7-1.6-1.5-2.2c-0.7-0.6-1.6-0.8-2.7-0.8
			c-1,0-1.8,0.3-2.5,0.8c-0.7,0.6-1.1,1.3-1.4,2.2c-0.1,0.4-0.3,0.9-0.3,1.4c-0.1,0.5-0.1,1.3-0.1,2.4c0,1.1,0,2,0.1,2.5
			s0.2,1,0.3,1.4c0.2,0.9,0.7,1.6,1.3,2.1c0.7,0.5,1.5,0.8,2.5,0.8c1,0,1.9-0.3,2.6-0.8c0.7-0.5,1.2-1.2,1.5-2.1
			C256.1,80.4,256.2,79.9,256.3,79.4z"/>
		<path class="st10" d="M271.7,83c0.7-0.5,1.3-1.1,1.7-1.9c0.1-0.2,0.3-0.3,0.5-0.2l0.6,0.2c0.3,0.1,0.3,0.3,0.2,0.5
			c-0.5,1.1-1.2,2-2.2,2.6c-1,0.6-2.2,1-3.6,1c-1.5,0-2.7-0.4-3.7-1.1c-1-0.7-1.7-1.7-2.1-3c-0.3-1-0.4-2.4-0.4-4.3c0-1,0-1.8,0-2.4
			c0-0.5,0.1-1,0.2-1.5c0.3-1.3,1-2.4,2.1-3.2c1.1-0.8,2.4-1.2,3.9-1.2c1.7,0,3.1,0.4,4.1,1.3c1,0.9,1.7,2.1,2,3.7
			c0.1,0.4,0.1,0.9,0.2,1.3c0,0.5,0,1.2,0,2.1c0,0.3-0.1,0.4-0.4,0.4h-10.4c-0.1,0-0.1,0-0.1,0.1c0,1.3,0.1,2.3,0.2,2.8
			c0.2,1,0.8,1.9,1.6,2.5c0.8,0.6,1.8,0.9,3,0.9C270.1,83.7,271,83.5,271.7,83z M264.2,75.9c0,0.1,0,0.1,0.1,0.1h9
			c0.1,0,0.1,0,0.1-0.1c0-1.1-0.1-1.9-0.2-2.4c-0.2-1-0.7-1.9-1.5-2.5c-0.8-0.6-1.8-0.9-2.9-0.9c-1.2,0-2.1,0.3-2.9,0.9
			c-0.8,0.6-1.3,1.4-1.5,2.4C264.4,73.8,264.3,74.6,264.2,75.9z"/>
		<path class="st10" d="M282.1,84c-1.1-0.8-1.8-1.8-2.2-3.2c-0.3-0.9-0.4-2.2-0.4-4c0-1.7,0.1-3,0.4-4c0.4-1.3,1.1-2.4,2.2-3.2
			c1.1-0.8,2.4-1.2,3.9-1.2c1.5,0,2.8,0.4,3.9,1.2c1.1,0.8,1.8,1.8,2.2,3.1c0.2,0.9,0.4,2.2,0.4,4c0,1.8-0.1,3.2-0.4,4
			c-0.4,1.3-1.1,2.4-2.2,3.2c-1.1,0.8-2.4,1.2-3.9,1.2C284.5,85.2,283.2,84.8,282.1,84z M288.9,82.8c0.8-0.6,1.3-1.5,1.6-2.5
			c0.1-0.6,0.2-1.7,0.2-3.4c0-1.7-0.1-2.8-0.2-3.4c-0.2-1-0.8-1.9-1.6-2.5c-0.8-0.6-1.8-0.9-2.9-0.9c-1.2,0-2.1,0.3-2.9,0.9
			c-0.8,0.6-1.3,1.5-1.5,2.5c-0.1,0.6-0.2,1.7-0.2,3.4c0,1.7,0.1,2.8,0.2,3.4c0.2,1,0.7,1.9,1.5,2.5c0.8,0.6,1.8,0.9,3,0.9
			C287.1,83.7,288.1,83.4,288.9,82.8z"/>
		<path class="st10" d="M309.9,76.9c0,1,0,1.8-0.1,2.4c0,0.6-0.1,1.2-0.3,1.7c-0.3,1.3-1,2.4-2,3.2c-1,0.8-2.3,1.2-3.7,1.2
			c-0.9,0-1.8-0.2-2.5-0.6c-0.7-0.4-1.3-0.9-1.8-1.6c0,0-0.1-0.1-0.1,0c0,0-0.1,0.1-0.1,0.1v7.8c0,0.1,0,0.2-0.1,0.3
			c-0.1,0.1-0.2,0.1-0.3,0.1H298c-0.1,0-0.2,0-0.3-0.1c-0.1-0.1-0.1-0.2-0.1-0.3V69.2c0-0.1,0-0.2,0.1-0.3c0.1-0.1,0.2-0.1,0.3-0.1
			h0.9c0.1,0,0.2,0,0.3,0.1c0.1,0.1,0.1,0.2,0.1,0.3v1.5c0,0.1,0,0.1,0,0.1c0,0,0.1,0,0.1,0c0.5-0.7,1.1-1.3,1.8-1.6
			c0.7-0.4,1.6-0.6,2.5-0.6c1.5,0,2.7,0.4,3.7,1.2c1,0.8,1.7,1.8,2.1,3.1C309.8,73.7,309.9,75.1,309.9,76.9z M308.1,79.4
			c0.1-0.5,0.1-1.3,0.1-2.5c0-1.1,0-1.9-0.1-2.4c-0.1-0.5-0.2-1-0.3-1.5c-0.2-0.9-0.7-1.6-1.5-2.2c-0.7-0.6-1.6-0.8-2.7-0.8
			c-1,0-1.8,0.3-2.5,0.8c-0.7,0.6-1.1,1.3-1.4,2.2c-0.1,0.4-0.3,0.9-0.3,1.4c-0.1,0.5-0.1,1.3-0.1,2.4c0,1.1,0,2,0.1,2.5
			c0.1,0.5,0.2,1,0.3,1.4c0.2,0.9,0.7,1.6,1.3,2.1c0.7,0.5,1.5,0.8,2.5,0.8c1,0,1.9-0.3,2.6-0.8c0.7-0.5,1.2-1.2,1.5-2.1
			C307.9,80.4,308.1,79.9,308.1,79.4z"/>
		<path class="st10" d="M315,84.9c-0.1-0.1-0.1-0.2-0.1-0.3V62.9c0-0.1,0-0.2,0.1-0.3c0.1-0.1,0.2-0.1,0.3-0.1h0.9
			c0.1,0,0.2,0,0.3,0.1c0.1,0.1,0.1,0.2,0.1,0.3v21.7c0,0.1,0,0.2-0.1,0.3c-0.1,0.1-0.2,0.1-0.3,0.1h-0.9
			C315.2,85,315.1,84.9,315,84.9z"/>
		<path class="st10" d="M330.8,83c0.7-0.5,1.3-1.1,1.7-1.9c0.1-0.2,0.3-0.3,0.5-0.2l0.6,0.2c0.3,0.1,0.3,0.3,0.2,0.5
			c-0.5,1.1-1.2,2-2.2,2.6c-1,0.6-2.2,1-3.6,1c-1.5,0-2.7-0.4-3.7-1.1c-1-0.7-1.7-1.7-2.1-3c-0.3-1-0.4-2.4-0.4-4.3c0-1,0-1.8,0-2.4
			c0-0.5,0.1-1,0.2-1.5c0.3-1.3,1-2.4,2.1-3.2c1.1-0.8,2.4-1.2,3.9-1.2c1.7,0,3.1,0.4,4.1,1.3c1,0.9,1.7,2.1,2,3.7
			c0.1,0.4,0.1,0.9,0.2,1.3s0,1.2,0,2.1c0,0.3-0.1,0.4-0.4,0.4h-10.4c-0.1,0-0.1,0-0.1,0.1c0,1.3,0.1,2.3,0.2,2.8
			c0.2,1,0.8,1.9,1.6,2.5c0.8,0.6,1.8,0.9,3,0.9C329.2,83.7,330.1,83.5,330.8,83z M323.4,75.9c0,0.1,0,0.1,0.1,0.1h9
			c0.1,0,0.1,0,0.1-0.1c0-1.1-0.1-1.9-0.2-2.4c-0.2-1-0.7-1.9-1.5-2.5c-0.8-0.6-1.8-0.9-2.9-0.9c-1.2,0-2.1,0.3-2.9,0.9
			c-0.8,0.6-1.3,1.4-1.5,2.4C323.5,73.8,323.4,74.6,323.4,75.9z"/>
		<path class="st10" d="M352.3,70.1c-0.1,0.1-0.2,0.1-0.3,0.1h-3.7c-0.1,0-0.1,0-0.1,0.1v10.1c0,1.1,0.2,1.9,0.7,2.3
			c0.5,0.4,1.3,0.7,2.4,0.7h0.7c0.1,0,0.2,0,0.3,0.1c0.1,0.1,0.1,0.2,0.1,0.3v0.7c0,0.3-0.1,0.4-0.4,0.4l-0.9,0
			c-1.5,0-2.6-0.3-3.4-0.9c-0.8-0.6-1.2-1.6-1.2-3.2V70.4c0-0.1,0-0.1-0.1-0.1h-1.9c-0.1,0-0.2,0-0.3-0.1c-0.1-0.1-0.1-0.2-0.1-0.3
			v-0.7c0-0.1,0-0.2,0.1-0.3c0.1-0.1,0.2-0.1,0.3-0.1h1.9c0.1,0,0.1,0,0.1-0.1v-3.6c0-0.1,0-0.2,0.1-0.3c0.1-0.1,0.2-0.1,0.3-0.1
			h0.9c0.1,0,0.2,0,0.3,0.1c0.1,0.1,0.1,0.2,0.1,0.3v3.6c0,0.1,0,0.1,0.1,0.1h3.7c0.1,0,0.2,0,0.3,0.1c0.1,0.1,0.1,0.2,0.1,0.3v0.7
			C352.4,70,352.4,70.1,352.3,70.1z"/>
		<path class="st10" d="M366.8,70c1,1,1.5,2.3,1.5,3.9v10.7c0,0.1,0,0.2-0.1,0.3c-0.1,0.1-0.2,0.1-0.3,0.1H367c-0.1,0-0.2,0-0.3-0.1
			c-0.1-0.1-0.1-0.2-0.1-0.3v-1.4c0,0,0-0.1,0-0.1c0,0-0.1,0-0.1,0c-0.6,0.7-1.3,1.2-2.2,1.6c-0.9,0.4-1.9,0.5-3,0.5
			c-1.5,0-2.7-0.4-3.8-1.1s-1.5-1.9-1.5-3.5c0-1.6,0.6-2.8,1.8-3.8c1.2-0.9,2.8-1.4,4.8-1.4h3.9c0.1,0,0.1,0,0.1-0.1V74
			c0-1.2-0.3-2.2-1-2.9c-0.7-0.7-1.7-1-3.1-1c-1.1,0-2,0.2-2.7,0.7s-1.1,1-1.3,1.8c-0.1,0.3-0.2,0.4-0.4,0.3l-1-0.1
			c-0.3,0-0.4-0.2-0.4-0.4c0.2-1.1,0.8-2,1.9-2.7c1-0.7,2.4-1,3.9-1C364.4,68.5,365.9,69,366.8,70z M365.1,82.8
			c1-0.7,1.5-1.6,1.5-2.8v-2.9c0-0.1,0-0.1-0.1-0.1h-3.7c-1.5,0-2.8,0.3-3.7,1c-0.9,0.6-1.4,1.5-1.4,2.7c0,1,0.4,1.8,1.1,2.4
			c0.7,0.5,1.7,0.8,2.8,0.8C363,83.8,364.1,83.4,365.1,82.8z"/>
		<path class="st10" d="M373.5,84.9c-0.1-0.1-0.1-0.2-0.1-0.3V62.9c0-0.1,0-0.2,0.1-0.3c0.1-0.1,0.2-0.1,0.3-0.1h0.9
			c0.1,0,0.2,0,0.3,0.1c0.1,0.1,0.1,0.2,0.1,0.3v21.7c0,0.1,0,0.2-0.1,0.3c-0.1,0.1-0.2,0.1-0.3,0.1h-0.9
			C373.7,85,373.6,84.9,373.5,84.9z"/>
		<path class="st10" d="M380.9,84.9c-0.1-0.1-0.1-0.2-0.1-0.3V62.9c0-0.1,0-0.2,0.1-0.3c0.1-0.1,0.2-0.1,0.3-0.1h0.9
			c0.1,0,0.2,0,0.3,0.1c0.1,0.1,0.1,0.2,0.1,0.3v13.6c0,0,0,0.1,0,0.1c0,0,0.1,0,0.1,0L390,69c0.1-0.1,0.3-0.2,0.5-0.2h1.1
			c0.2,0,0.3,0.1,0.3,0.2c0,0.1,0,0.2-0.1,0.3l-4,4.3c0,0-0.1,0.1,0,0.2l4.9,10.8c0,0.1,0.1,0.1,0.1,0.2c0,0.2-0.1,0.3-0.4,0.3h-1
			c-0.2,0-0.4-0.1-0.4-0.3l-4.3-9.8c0-0.1-0.1-0.1-0.2,0l-3.9,4c0,0-0.1,0.1-0.1,0.2v5.6c0,0.1,0,0.2-0.1,0.3
			c-0.1,0.1-0.2,0.1-0.3,0.1h-0.9C381,85,380.9,84.9,380.9,84.9z"/>
		<path class="st10" d="M396.8,84.3c-0.3-0.3-0.5-0.7-0.5-1.2c0-0.4,0.2-0.8,0.5-1.2c0.4-0.3,0.8-0.5,1.2-0.5c0.5,0,0.9,0.2,1.2,0.5
			c0.4,0.3,0.5,0.7,0.5,1.2c0,0.5-0.2,0.9-0.5,1.2c-0.3,0.3-0.8,0.5-1.3,0.5C397.6,84.8,397.2,84.7,396.8,84.3z"/>
	</g>
</g>
<g>
	<g>
		<polygon class="st2" points="23.4,27.2 27,38.3 38.7,38.3 42.3,27.2 32.8,20.4 		"/>
		<path class="st3" d="M56.3,16.6l-4.7-3.4l3.8-5.3c0,0,0.9-1.1-1.5-1.1c-1.7,0-6.6,0.8-9.4,1.3l-5.9-4.3c-0.5-0.4-1.2-0.3-1.5,0.2
			l-4.3,5.9l-4.4,6c-0.3,0.5-0.2,1.1,0.3,1.5l4.1,3l9.4,6.9l1.6-4.9c0.2-0.6,0.8-0.9,1.3-0.7l7.1,2.3l4.3-5.9
			C56.9,17.6,56.8,16.9,56.3,16.6z"/>
		<path class="st3" d="M61.8,43c-0.5-1.6-2.8-6.1-4.1-8.5l2.3-6.9c0.2-0.6-0.1-1.2-0.7-1.4l-7-2.3l-7.1-2.3
			c-0.6-0.2-1.2,0.1-1.3,0.7l-1.6,4.9l-3.6,11.1h5.1c0.6,0,1.1,0.5,1.1,1.1v7.5l6.9,2.3c0.6,0.2,1.2-0.1,1.3-0.7l1.8-5.6l6.2,2
			C61.2,44.9,62.5,45.4,61.8,43z"/>
		<path class="st3" d="M43.8,38.3h-5.1H27l1.6,4.9c0.2,0.6-0.1,1.2-0.7,1.4l-7.1,2.3v7.3c0,0.6,0.5,1.1,1.1,1.1h5.8v6.5
			c0,0-0.1,1.5,1.9,0c1.4-1,4.9-4.5,6.8-6.5h7.3c0.6,0,1.1-0.5,1.1-1.1v-7.3v-7.5C44.9,38.8,44.4,38.3,43.8,38.3z"/>
		<path class="st3" d="M28.7,17.4c-0.5-0.4-0.6-1-0.3-1.5l4.4-6l-4.3-5.9c-0.3-0.5-1-0.6-1.5-0.2l-4.7,3.4l-3.8-5.3
			c0,0-0.8-1.2-1.5,1.1c-0.5,1.6-1.3,6.5-1.7,9.3l-5.9,4.3c-0.5,0.4-0.6,1-0.3,1.5l4.3,5.9l4.4,6c0.3,0.5,1,0.6,1.5,0.2l4.1-3
			l9.4-6.9L28.7,17.4z"/>
		<path class="st3" d="M28.6,43.2L27,38.3l-3.6-11.1l-4.1,3c-0.5,0.4-1.2,0.3-1.5-0.2l-4.4-6l-6.9,2.3c-0.6,0.2-0.9,0.8-0.7,1.4
			l1.8,5.6l-6.2,2c0,0-1.4,0.4,0.6,1.8c1.4,1,5.8,3.3,8.3,4.5l2.3,6.9c0.2,0.6,0.8,0.9,1.3,0.7l7-2.3l7.1-2.3
			C28.5,44.4,28.8,43.8,28.6,43.2z"/>
	</g>
	<g>
		<polygon class="st2" points="22.4,26.2 26,37.3 37.6,37.3 41.2,26.2 31.8,19.3 		"/>
		<g>
			<path class="st8" d="M55.3,15.5l-4.7-3.4l3.8-5.3c0,0,0.9-1.1-1.5-1.1c-1.7,0-6.6,0.8-9.4,1.3l-5.9-4.3c-0.5-0.4-1.2-0.3-1.5,0.2
				l-4.3,5.9l-4.4,6c-0.3,0.5-0.2,1.1,0.3,1.5l4.1,3l9.4,6.9l1.6-4.9c0.2-0.6,0.8-0.9,1.3-0.7l7.1,2.3l4.3-5.9
				C55.9,16.5,55.8,15.9,55.3,15.5z"/>
			<path class="st9" d="M60.7,42c-0.5-1.6-2.8-6.1-4.1-8.5l2.3-6.9c0.2-0.6-0.1-1.2-0.7-1.4l-7-2.3l-7.1-2.3
				c-0.6-0.2-1.2,0.1-1.3,0.7l-1.6,4.9l-3.6,11.1h5.1c0.6,0,1.1,0.5,1.1,1.1v7.5l6.9,2.3c0.6,0.2,1.2-0.1,1.3-0.7l1.8-5.6l6.2,2
				C60.1,43.8,61.5,44.3,60.7,42z"/>
			<path class="st7" d="M42.8,37.3h-5.1H26l1.6,4.9c0.2,0.6-0.1,1.2-0.7,1.4l-7.1,2.3v7.3c0,0.6,0.5,1.1,1.1,1.1h5.8v6.5
				c0,0-0.1,1.5,1.9,0c1.4-1,4.9-4.5,6.8-6.5h7.3c0.6,0,1.1-0.5,1.1-1.1v-7.3v-7.5C43.9,37.8,43.4,37.3,42.8,37.3z"/>
			<path class="st5" d="M27.7,16.3c-0.5-0.4-0.6-1-0.3-1.5l4.4-6l-4.3-5.9c-0.3-0.5-1-0.6-1.5-0.2l-4.7,3.4l-3.8-5.3
				c0,0-0.8-1.2-1.5,1.1c-0.5,1.6-1.3,6.5-1.7,9.3l-5.9,4.3c-0.5,0.4-0.6,1-0.3,1.5l4.3,5.9l4.4,6c0.3,0.5,1,0.6,1.5,0.2l4.1-3
				l9.4-6.9L27.7,16.3z"/>
			<path class="st6" d="M27.6,42.2L26,37.3l-3.6-11.1l-4.1,3c-0.5,0.4-1.2,0.3-1.5-0.2l-4.4-6l-6.9,2.3c-0.6,0.2-0.9,0.8-0.7,1.4
				l1.8,5.6l-6.2,2c0,0-1.4,0.4,0.6,1.8c1.4,1,5.8,3.3,8.3,4.5l2.3,6.9c0.2,0.6,0.8,0.9,1.3,0.7l7-2.3l7.1-2.3
				C27.4,43.4,27.7,42.7,27.6,42.2z"/>
		</g>
	</g>
</g>
</svg>
