<svg xmlns="http://www.w3.org/2000/svg" viewBox="0 0 400 92">
<defs>
    <style>.cls-1{fill:#58595b;}.cls-2{fill:none;}.cls-3{fill:#467abe;}.cls-4{fill:#174899;}.cls-5{fill:#0d1d42;}.cls-6{fill:#9cc9ec;}.cls-7{fill:#ceebfb;}
    </style>
</defs>
<path class="cls-1" d="M79.7,53.8a14.5,14.5,0,0,1-5.9-5.6,17.4,17.4,0,0,1-2-8.4V19.7a17,17,0,0,1,2-8.3,14.5,14.5,0,0,1,5.9-5.6,18.6,18.6,0,0,1,8.7-1.9,19.2,19.2,0,0,1,8.7,1.9,14.4,14.4,0,0,1,5.8,5.4,15.2,15.2,0,0,1,2,8.1v.4a.7.7,0,0,1-.2.6.9.9,0,0,1-.6.3l-8.5.4c-.6,0-.9-.3-.9-.8v-1A6.3,6.3,0,0,0,93,14.5a6.2,6.2,0,0,0-4.6-1.8,6.3,6.3,0,0,0-4.7,1.8A6.8,6.8,0,0,0,82,19.2V40.5a6.8,6.8,0,0,0,1.7,4.7A6.3,6.3,0,0,0,88.4,47,6.2,6.2,0,0,0,93,45.2a6.3,6.3,0,0,0,1.7-4.7v-1c0-.5.3-.8.9-.8l8.5.4c.6,0,.8.1.8.5v.6a15.2,15.2,0,0,1-2,8.1,14,14,0,0,1-5.8,5.5,19.2,19.2,0,0,1-8.7,1.9A18.6,18.6,0,0,1,79.7,53.8Z"/>
<path class="cls-1" d="M112.5,52.5a12.7,12.7,0,0,1-4.8-8.8,58.1,58.1,0,0,1-.5-7.2,46.2,46.2,0,0,1,.5-7.3,13.7,13.7,0,0,1,4.8-8.7c2.7-2.1,6.1-3.1,10.3-3.1A16.1,16.1,0,0,1,133,20.5a13.2,13.2,0,0,1,4.7,8.6,40.7,40.7,0,0,1,.6,7.3,58.1,58.1,0,0,1-.5,7.2,12.9,12.9,0,0,1-4.8,8.9c-2.6,2.2-6,3.2-10.2,3.2S115.1,54.7,112.5,52.5Zm13.6-6.8a6,6,0,0,0,1.6-3.5,46.7,46.7,0,0,0,.3-5.7,44.5,44.5,0,0,0-.3-5.7,5.5,5.5,0,0,0-1.6-3.4,4.4,4.4,0,0,0-3.3-1.3,4.5,4.5,0,0,0-3.4,1.3,6,6,0,0,0-1.6,3.4,35.6,35.6,0,0,0-.4,5.7q0,2.3.3,5.7a6.1,6.1,0,0,0,1.7,3.5,5.1,5.1,0,0,0,3.4,1.3A4.9,4.9,0,0,0,126.1,45.7Z"/>
<path class="cls-1" d="M167.9,20.7c2,2.3,3,5.4,3,9.4V54.3a.9.9,0,0,1-.3.6.6.6,0,0,1-.6.3h-8.4a.9.9,0,0,1-.7-.3,1.4,1.4,0,0,1-.2-.6V31.5a5.9,5.9,0,0,0-1.2-3.9,4.3,4.3,0,0,0-3.4-1.5,4.2,4.2,0,0,0-3.4,1.5,5.7,5.7,0,0,0-1.3,4V54.3a1.4,1.4,0,0,1-.2.6.9.9,0,0,1-.6.3h-8.5a.6.6,0,0,1-.6-.3.9.9,0,0,1-.3-.6V18.8a.9.9,0,0,1,.3-.6.6.6,0,0,1,.6-.3h8.5a.9.9,0,0,1,.6.3,1.4,1.4,0,0,1,.2.6v2a.2.2,0,0,0,.2.2c.1,0,.2,0,.3-.2a9.2,9.2,0,0,1,7.7-3.4A10.7,10.7,0,0,1,167.9,20.7Z"/>
<path class="cls-1" d="M201,20.7c2,2.3,3,5.4,3,9.4V54.3a.9.9,0,0,1-.3.6.6.6,0,0,1-.6.3h-8.5a.9.9,0,0,1-.6-.3,1.4,1.4,0,0,1-.2-.6V31.5a5.4,5.4,0,0,0-1.3-3.9,4,4,0,0,0-3.3-1.5,4.2,4.2,0,0,0-3.4,1.5,5.7,5.7,0,0,0-1.3,4V54.3a1.4,1.4,0,0,1-.2.6.9.9,0,0,1-.7.3h-8.4a.6.6,0,0,1-.6-.3.9.9,0,0,1-.3-.6V18.8a.9.9,0,0,1,.3-.6.6.6,0,0,1,.6-.3h8.4a.9.9,0,0,1,.7.3,1.4,1.4,0,0,1,.2.6v2a.2.2,0,0,0,.2.2c.1,0,.2,0,.3-.2a9.2,9.2,0,0,1,7.7-3.4A10.7,10.7,0,0,1,201,20.7Z"/>
<path class="cls-1" d="M227.6,46a5.9,5.9,0,0,0,2-2.4c.3-.6.6-.8,1.1-.6l6.9,1.4c.6.2.8.5.6,1.1a13.9,13.9,0,0,1-5.1,7.5,15.5,15.5,0,0,1-9.3,2.7,14.7,14.7,0,0,1-9.5-2.9,13.2,13.2,0,0,1-5-7.8,32.9,32.9,0,0,1-1-9c0-2.4.1-4.4.2-6a14.8,14.8,0,0,1,4.6-9.3c2.6-2.3,6.1-3.4,10.4-3.4s8.2,1.2,10.7,3.6,4,5.9,4.4,10.4c.2,2.6.4,5.1.4,7.5a.8.8,0,0,1-.9.9H218.8a.3.3,0,0,0-.3.3,10.2,10.2,0,0,0,.2,2.6,4.3,4.3,0,0,0,1.9,3.2,5.7,5.7,0,0,0,3.7,1.2A5.2,5.2,0,0,0,227.6,46Zm-8.8-15.7c-.1.5-.2,1.4-.3,2.6s.1.4.3.4h9.4c.3,0,.4-.1.4-.4a12.9,12.9,0,0,0-.3-2.4,5.1,5.1,0,0,0-1.5-3.2,4.5,4.5,0,0,0-3.3-1.2C220.9,26.1,219.3,27.5,218.8,30.3Z"/>
<path class="cls-1" d="M246.3,52.7a13.4,13.4,0,0,1-4.9-8.5,41.1,41.1,0,0,1-.6-7.8,53,53,0,0,1,.6-7.7,13.2,13.2,0,0,1,4.9-8.3,18.3,18.3,0,0,1,19.9-.1,12.7,12.7,0,0,1,5,7.8q.2.8.3,2.1a.9.9,0,0,1-.9,1l-8.3.8h-.2c-.4,0-.7-.3-.8-.8v-.7l-.3-1.1a4.8,4.8,0,0,0-1.7-2.3,4.9,4.9,0,0,0-6.2.2,4.7,4.7,0,0,0-1.6,3.2,32.8,32.8,0,0,0-.5,6,32.8,32.8,0,0,0,.5,6.2,6.1,6.1,0,0,0,1.6,3.1,4.4,4.4,0,0,0,3.2,1.2,4.5,4.5,0,0,0,3.3-1.2,4.1,4.1,0,0,0,1.5-2.9l.2-.9a.9.9,0,0,1,.3-.6l.6-.2,8.4.8a.9.9,0,0,1,.8.9c0,.3-.1.8-.2,1.5a11.6,11.6,0,0,1-4.7,8.3,16.7,16.7,0,0,1-10.2,3A16.1,16.1,0,0,1,246.3,52.7Z"/>
<path class="cls-1" d="M294,25.4l-.6.2h-5.6c-.2,0-.3.1-.3.4V42.1a4.5,4.5,0,0,0,.9,3.2,3.1,3.1,0,0,0,2.8.9h1.4a1.1,1.1,0,0,1,.9.9v7a.8.8,0,0,1-.9.9H289c-3.8,0-6.7-.6-8.5-1.9s-2.8-3.6-2.8-7.1V26c0-.3-.1-.4-.4-.4H274l-.6-.2a.9.9,0,0,1-.3-.7V18.8a.9.9,0,0,1,.3-.6.7.7,0,0,1,.6-.3h3.3c.3,0,.4-.1.4-.3V9.2a1.4,1.4,0,0,1,.2-.6l.7-.2h8l.6.2a.9.9,0,0,1,.3.6v8.4a.3.3,0,0,0,.3.3h5.6a1.1,1.1,0,0,1,.9.9v5.9A.9.9,0,0,1,294,25.4Z"/>
<path class="cls-1" d="M318.4,18.9a13.5,13.5,0,0,1,5.3,4.4,10.4,10.4,0,0,1,1.9,6.3V54.3a1.4,1.4,0,0,1-.2.6.9.9,0,0,1-.7.3h-8.4a.6.6,0,0,1-.6-.3.9.9,0,0,1-.3-.6v-2a.4.4,0,0,0-.1-.3c-.1,0-.2,0-.3.2-2,2.3-4.9,3.5-8.7,3.5a12.4,12.4,0,0,1-8.1-2.5c-2.2-1.7-3.3-4.5-3.3-8.5,0-7.8,4.9-11.8,14.8-11.8H315c.3,0,.4-.1.4-.3V30.9a4.6,4.6,0,0,0-1.3-3.5,4.8,4.8,0,0,0-3.5-1.3,5.1,5.1,0,0,0-2.8.8,3,3,0,0,0-1.4,2.2,1,1,0,0,1-1.1.7l-8.7-.5-.6-.2c-.2-.2-.3-.4-.2-.6a10.7,10.7,0,0,1,4.4-8.1,17.3,17.3,0,0,1,10.4-3A19.4,19.4,0,0,1,318.4,18.9Zm-4.7,27.7a4.5,4.5,0,0,0,1.7-3.6V39.9c0-.2-.1-.3-.4-.3h-4.1a7.1,7.1,0,0,0-4.1,1.1,4.1,4.1,0,0,0-1.5,3.4,4,4,0,0,0,1.1,2.9,5,5,0,0,0,3.1,1A6.8,6.8,0,0,0,313.7,46.6Z"/>
<path class="cls-1" d="M355.4,20.7c2,2.3,3,5.4,3,9.4V54.3a1.4,1.4,0,0,1-.2.6.9.9,0,0,1-.7.3h-8.4a.6.6,0,0,1-.6-.3.9.9,0,0,1-.3-.6V31.5a5.9,5.9,0,0,0-1.2-3.9,4.3,4.3,0,0,0-3.4-1.5,4.2,4.2,0,0,0-3.4,1.5,6.2,6.2,0,0,0-1.3,4V54.3a1.4,1.4,0,0,1-.2.6.9.9,0,0,1-.6.3h-8.5a.7.7,0,0,1-.6-.3.9.9,0,0,1-.3-.6V5.3a.9.9,0,0,1,.3-.6l.6-.2h8.5l.6.2a1.4,1.4,0,0,1,.2.6V20.8a.2.2,0,0,0,.2.2c.1,0,.2,0,.3-.2a9.2,9.2,0,0,1,7.7-3.4A10.7,10.7,0,0,1,355.4,20.7Z"/>
<path class="cls-1" d="M385.2,18.9a12.8,12.8,0,0,1,5.3,4.4,10.4,10.4,0,0,1,1.9,6.3V54.3a.7.7,0,0,1-.2.6.9.9,0,0,1-.6.3h-8.5a.7.7,0,0,1-.6-.3.9.9,0,0,1-.3-.6v-2a.4.4,0,0,0-.1-.3c-.1,0-.2,0-.3.2-1.9,2.3-4.8,3.5-8.7,3.5a12.8,12.8,0,0,1-8.1-2.5c-2.2-1.7-3.3-4.5-3.3-8.5,0-7.8,5-11.8,14.8-11.8h5.4a.3.3,0,0,0,.3-.3V30.9a5,5,0,0,0-1.2-3.5,5.3,5.3,0,0,0-3.6-1.3,5.1,5.1,0,0,0-2.8.8,3.7,3.7,0,0,0-1.4,2.2,1,1,0,0,1-1,.7l-8.8-.5-.6-.2a.7.7,0,0,1-.2-.6,10.6,10.6,0,0,1,4.5-8.1,16.8,16.8,0,0,1,10.3-3A19.4,19.4,0,0,1,385.2,18.9Zm-4.7,27.7a4.5,4.5,0,0,0,1.7-3.6V39.9a.3.3,0,0,0-.3-.3h-4.2a7.1,7.1,0,0,0-4.1,1.1,4.1,4.1,0,0,0-1.5,3.4,3.7,3.7,0,0,0,1.2,2.9,4.5,4.5,0,0,0,3,1A6.8,6.8,0,0,0,380.5,46.6Z"/>
<path class="cls-1" d="M85.2,64.8a5.7,5.7,0,0,1,1.7,4.4,5.7,5.7,0,0,1-1.7,4.4,6,6,0,0,1-4.4,1.7H74.1c-.1,0-.1,0-.1.1v9.9a.2.2,0,0,1-.2.2.2.2,0,0,1-.2.2h-1a9951643238295.1,9951643238295.1,0,0,0-.4-.4V63.5c0-.2.1-.2.2-.3s.1-.1.2-.1h8.2A5.5,5.5,0,0,1,85.2,64.8ZM84,72.6a4.9,4.9,0,0,0,1.2-3.4A4.5,4.5,0,0,0,84,65.9a4.3,4.3,0,0,0-3.3-1.3H74.1a.1.1,0,0,0-.1.1v9h6.7A4.6,4.6,0,0,0,84,72.6Z"/>
<path class="cls-1" d="M92.5,84.7a5.7,5.7,0,0,1-2.2-3.2,17.5,17.5,0,0,1-.4-4,19.8,19.8,0,0,1,.4-4,5.4,5.4,0,0,1,2.2-3.1,6.9,6.9,0,0,1,7.8,0,5.6,5.6,0,0,1,2.1,3.1,13.6,13.6,0,0,1,.4,4,13.2,13.2,0,0,1-.4,4,5.5,5.5,0,0,1-2.1,3.2,6.9,6.9,0,0,1-7.8,0Zm6.8-1.2a5.1,5.1,0,0,0,1.6-2.5,29.4,29.4,0,0,0,.1-3.5,27.5,27.5,0,0,0-.1-3.4,4.7,4.7,0,0,0-1.6-2.5,4.9,4.9,0,0,0-3-.9,4.8,4.8,0,0,0-2.9.9,4.1,4.1,0,0,0-1.5,2.5,13.9,13.9,0,0,0-.2,3.4,14.4,14.4,0,0,0,.2,3.5,4.4,4.4,0,0,0,1.5,2.5,4.9,4.9,0,0,0,3,.9A4.8,4.8,0,0,0,99.3,83.5Z"/>
<path class="cls-1" d="M110.1,85.3l-4.5-15.4h0c0-.3.1-.4.3-.4h1a.4.4,0,0,1,.4.4L111,83.1c0,.1,0,.1.1.1h0l3.7-13.3a.5.5,0,0,1,.5-.4h.9a.5.5,0,0,1,.5.4l3.7,13.3c0,.1,0,.1.1.1a.1.1,0,0,0,.1-.1l3.7-13.3a.4.4,0,0,1,.4-.4h1.2a.4.4,0,0,1,.1.3l-4.6,15.4a.4.4,0,0,1-.4.4h-1a.4.4,0,0,1-.4-.4l-3.8-12.8h-.1L112,85.3c-.1.2-.2.4-.5.4h-1C110.3,85.7,110.2,85.5,110.1,85.3Z"/>
<path class="cls-1" d="M138.2,83.7a5.2,5.2,0,0,0,1.7-1.9.4.4,0,0,1,.5-.2l.5.2c.3.1.4.3.3.5a5.3,5.3,0,0,1-2.3,2.6,6.1,6.1,0,0,1-3.6,1,6.5,6.5,0,0,1-3.7-1.1,5.5,5.5,0,0,1-2.1-3,15.3,15.3,0,0,1-.5-4.3,16.3,16.3,0,0,1,.1-2.4,5.9,5.9,0,0,1,.2-1.4,5.3,5.3,0,0,1,2.1-3.3,6.1,6.1,0,0,1,3.9-1.2,5.9,5.9,0,0,1,4.1,1.3,6.1,6.1,0,0,1,2,3.7,6.8,6.8,0,0,1,.2,1.4c0,.4.1,1.1.1,2.1a.4.4,0,0,1-.4.4H130.8c-.1,0-.1,0-.1.1a18.7,18.7,0,0,0,.1,2.8,4.4,4.4,0,0,0,4.7,3.4A5,5,0,0,0,138.2,83.7Zm-7.5-7.1c0,.1,0,.1.1.1h9c.1,0,.1,0,.1-.1a17,17,0,0,0-.1-2.5,5.1,5.1,0,0,0-1.6-2.5,4.8,4.8,0,0,0-2.9-.9,4.6,4.6,0,0,0-2.9.9,3.8,3.8,0,0,0-1.5,2.4A12.6,12.6,0,0,0,130.7,76.6Z"/>
<path class="cls-1" d="M154.6,69.7c.1,0,.2.2.1.4l-.2,1c-.1.2-.2.3-.5.2l-1.5-.2a3.9,3.9,0,0,0-3,1.4,4.7,4.7,0,0,0-1.2,3.2v9.6c0,.1,0,.2-.1.2l-.3.2H147l-.3-.2c-.1,0-.1-.1-.1-.2V69.8a.4.4,0,0,1,.1-.3h1.5a.4.4,0,0,1,.1.3v2.3h0a5.9,5.9,0,0,1,1.8-2,4.3,4.3,0,0,1,2.5-.7A4.1,4.1,0,0,1,154.6,69.7Z"/>
<path class="cls-1" d="M167.4,85.3,163,69.9h-.1c0-.3.1-.4.4-.4h.9a.5.5,0,0,1,.5.4l3.6,13.3a.1.1,0,1,0,.2,0l3.7-13.3c.1-.3.2-.4.4-.4h.9c.3,0,.4.1.5.4l3.7,13.3a.1.1,0,0,0,.1.1c.1,0,.1,0,.1-.1l3.7-13.3c.1-.3.2-.4.5-.4h1.2v.3l-4.5,15.4c-.1.2-.2.4-.4.4h-1c-.3,0-.4-.2-.5-.4l-3.7-12.8H173l-3.7,12.8a.4.4,0,0,1-.4.4h-1C167.6,85.7,167.5,85.5,167.4,85.3Z"/>
<path class="cls-1" d="M197.7,70.7a5.5,5.5,0,0,1,1.5,4V85.3a.3.3,0,0,1-.1.2l-.3.2h-.9l-.3-.2c-.1,0-.1-.1-.1-.2V75a4.3,4.3,0,0,0-1.2-3.1,3.9,3.9,0,0,0-3-1.2A4.1,4.1,0,0,0,189,75V85.3a.3.3,0,0,1-.1.2l-.3.2h-.9l-.3-.2c-.1,0-.1-.1-.1-.2V63.5a.4.4,0,0,1,.1-.3h1.5c0,.1.1.2.1.3v7.8h.1a4.2,4.2,0,0,1,1.9-1.6,6,6,0,0,1,2.7-.6A5.5,5.5,0,0,1,197.7,70.7Z"/>
<path class="cls-1" d="M213.2,83.7a4.4,4.4,0,0,0,1.7-1.9.4.4,0,0,1,.5-.2l.6.2a.4.4,0,0,1,.2.5,5.6,5.6,0,0,1-2.2,2.6,6.1,6.1,0,0,1-3.6,1,6.8,6.8,0,0,1-3.8-1.1,5.5,5.5,0,0,1-2.1-3,15.3,15.3,0,0,1-.5-4.3c0-1,.1-1.8.1-2.4a5.9,5.9,0,0,1,.2-1.4,5.3,5.3,0,0,1,2.1-3.3,7.2,7.2,0,0,1,8.1.1,6.7,6.7,0,0,1,2,3.7c0,.5.1.9.1,1.4a11,11,0,0,1,.1,2.1c0,.3-.1.4-.4.4H205.8a.1.1,0,0,0-.1.1,15.2,15.2,0,0,0,.2,2.8,4,4,0,0,0,1.6,2.5,4.9,4.9,0,0,0,3,.9A4.5,4.5,0,0,0,213.2,83.7Zm-7.5-7.1a.1.1,0,0,0,.1.1h9c.1,0,.2,0,.2-.1a14.7,14.7,0,0,0-.2-2.5,4.5,4.5,0,0,0-1.6-2.5,4.4,4.4,0,0,0-2.9-.9,4.8,4.8,0,0,0-2.9.9,4.3,4.3,0,0,0-1.5,2.4C205.8,74.4,205.8,75.3,205.7,76.6Z"/>
<path class="cls-1" d="M232,70.7a5.5,5.5,0,0,1,1.5,4V85.3c0,.1,0,.2-.1.2a.2.2,0,0,1-.2.2h-1a.2.2,0,0,1-.2-.2.2.2,0,0,1-.2-.2V75a4.2,4.2,0,0,0-1.1-3.1,4.1,4.1,0,0,0-3-1.2,4.4,4.4,0,0,0-3.2,1.2,4.1,4.1,0,0,0-1.2,3.1V85.3c0,.1,0,.2-.1.2a.2.2,0,0,1-.2.2h-1a4975821619082.2,4975821619082.2,0,0,0-.4-.4V69.8l.2-.3h1.4a.4.4,0,0,1,.1.3v1.5a.1.1,0,0,0,.1.1h.1a3.8,3.8,0,0,1,1.9-1.6,5.3,5.3,0,0,1,2.6-.6A5.4,5.4,0,0,1,232,70.7Z"/>
<path class="cls-1" d="M257.9,77.5a16.3,16.3,0,0,1-.1,2.4,8.8,8.8,0,0,1-.2,1.7,5.3,5.3,0,0,1-2.1,3.1,5.7,5.7,0,0,1-3.7,1.2,4.9,4.9,0,0,1-2.5-.6,4.2,4.2,0,0,1-1.9-1.6h-.1v7.8c0,.1,0,.2-.1.2l-.3.2H246l-.3-.2c-.1,0-.1-.1-.1-.2V69.8a.4.4,0,0,1,.1-.3h1.5a.4.4,0,0,1,.1.3v1.5h.1a4.2,4.2,0,0,1,1.9-1.6,4.9,4.9,0,0,1,2.5-.6,6.2,6.2,0,0,1,3.7,1.1,6,6,0,0,1,2.1,3.2A19.6,19.6,0,0,1,257.9,77.5ZM256.1,80a15.6,15.6,0,0,0,.1-2.5,14.2,14.2,0,0,0-.1-2.3l-.3-1.5a4.2,4.2,0,0,0-1.5-2.2,4.6,4.6,0,0,0-2.7-.8,4.1,4.1,0,0,0-2.5.8,4,4,0,0,0-1.4,2.2l-.3,1.4a14.9,14.9,0,0,0-.1,2.4c0,1.1.1,2,.1,2.5l.3,1.4a4.6,4.6,0,0,0,1.4,2.2,4.1,4.1,0,0,0,2.5.8,4.5,4.5,0,0,0,2.6-.8,5.1,5.1,0,0,0,1.5-2.1A8.3,8.3,0,0,0,256.1,80Z"/>
<path class="cls-1" d="M271.6,83.7a4.2,4.2,0,0,0,1.6-1.9c.2-.2.3-.3.5-.2l.6.2c.3.1.3.3.2.5a5.1,5.1,0,0,1-2.2,2.6,6.1,6.1,0,0,1-3.6,1,6.2,6.2,0,0,1-3.7-1.1,5.7,5.7,0,0,1-2.2-3,16,16,0,0,1-.4-4.3V75.1c.1-.5.1-1,.2-1.4a6.3,6.3,0,0,1,2.1-3.3,6.5,6.5,0,0,1,4-1.2,5.9,5.9,0,0,1,4.1,1.3,6.1,6.1,0,0,1,2,3.7c.1.5.1.9.2,1.4v2.1c0,.3-.1.4-.4.4H264.2c-.1,0-.1,0-.1.1a18.7,18.7,0,0,0,.1,2.8,5.1,5.1,0,0,0,1.6,2.5,4.9,4.9,0,0,0,3,.9A5.1,5.1,0,0,0,271.6,83.7Zm-7.5-7.1c0,.1,0,.1.1.1h9a.1.1,0,0,0,.1-.1,14.7,14.7,0,0,0-.2-2.5,4.4,4.4,0,0,0-1.5-2.5,4.8,4.8,0,0,0-2.9-.9,4.4,4.4,0,0,0-2.9.9,3.8,3.8,0,0,0-1.5,2.4A12.6,12.6,0,0,0,264.1,76.6Z"/>
<path class="cls-1" d="M282,84.7a5.7,5.7,0,0,1-2.2-3.2,17.5,17.5,0,0,1-.4-4,19.8,19.8,0,0,1,.4-4,5.4,5.4,0,0,1,2.2-3.1,6.1,6.1,0,0,1,3.9-1.2,6,6,0,0,1,3.8,1.2,5.3,5.3,0,0,1,2.2,3.1,13.6,13.6,0,0,1,.4,4,13.2,13.2,0,0,1-.4,4,5.2,5.2,0,0,1-2.2,3.2,6,6,0,0,1-3.8,1.2A6.2,6.2,0,0,1,282,84.7Zm6.8-1.2a4.4,4.4,0,0,0,1.5-2.5,14.8,14.8,0,0,0,.2-3.5,13.9,13.9,0,0,0-.2-3.4,4.1,4.1,0,0,0-1.5-2.5,4.9,4.9,0,0,0-3-.9,4.8,4.8,0,0,0-2.9.9,4.1,4.1,0,0,0-1.5,2.5,13.9,13.9,0,0,0-.2,3.4,14.4,14.4,0,0,0,.2,3.5,4.4,4.4,0,0,0,1.5,2.5,4.9,4.9,0,0,0,3,.9A4.8,4.8,0,0,0,288.8,83.5Z"/>
<path class="cls-1" d="M309.9,77.5a16.3,16.3,0,0,1-.1,2.4,8.8,8.8,0,0,1-.2,1.7,5.8,5.8,0,0,1-2.1,3.1,5.9,5.9,0,0,1-3.7,1.2,5.5,5.5,0,0,1-2.6-.6,4.6,4.6,0,0,1-1.8-1.6h-.1v7.8a2211476275136.1,2211476275136.1,0,0,1-.4.4h-1a.2.2,0,0,1-.2-.2.2.2,0,0,1-.2-.2V69.8l.2-.3h1.4l.2.3v1.5h.1a4.6,4.6,0,0,1,1.8-1.6,5.5,5.5,0,0,1,2.6-.6,6.5,6.5,0,0,1,3.7,1.1,5.4,5.4,0,0,1,2,3.2A13.6,13.6,0,0,1,309.9,77.5ZM308.1,80c0-.5.1-1.3.1-2.5s-.1-1.8-.1-2.3a8.3,8.3,0,0,0-.4-1.5,4,4,0,0,0-1.4-2.2,5,5,0,0,0-2.7-.8,3.7,3.7,0,0,0-3.9,3,3.2,3.2,0,0,0-.3,1.4,14.9,14.9,0,0,0-.1,2.4,16.3,16.3,0,0,0,.1,2.5,5.8,5.8,0,0,0,.3,1.4,4,4,0,0,0,1.4,2.2,3.9,3.9,0,0,0,2.5.8,4.7,4.7,0,0,0,2.6-.8,5.1,5.1,0,0,0,1.5-2.1C307.8,81,308,80.5,308.1,80Z"/>
<path class="cls-1" d="M315,85.5c-.1,0-.1-.1-.1-.2V63.5a.4.4,0,0,1,.1-.3h1.5c0,.1.1.2.1.3V85.3a.3.3,0,0,1-.1.2l-.3.2h-1Z"/>
<path class="cls-1" d="M330.8,83.7a4.4,4.4,0,0,0,1.7-1.9.4.4,0,0,1,.5-.2l.6.2a.4.4,0,0,1,.2.5,5.6,5.6,0,0,1-2.2,2.6,6.1,6.1,0,0,1-3.6,1,6.8,6.8,0,0,1-3.8-1.1,5.5,5.5,0,0,1-2.1-3,15.3,15.3,0,0,1-.5-4.3c0-1,.1-1.8.1-2.4a5.9,5.9,0,0,1,.2-1.4,5.8,5.8,0,0,1,2.1-3.3,7.2,7.2,0,0,1,8.1.1,6.7,6.7,0,0,1,2,3.7,6.6,6.6,0,0,1,.1,1.4,11,11,0,0,1,.1,2.1c0,.3-.1.4-.4.4H323.5c-.1,0-.2,0-.2.1a15.2,15.2,0,0,0,.2,2.8,4,4,0,0,0,1.6,2.5,4.9,4.9,0,0,0,3,.9A4.5,4.5,0,0,0,330.8,83.7Zm-7.5-7.1c0,.1.1.1.2.1h8.9c.1,0,.2,0,.2-.1a14.7,14.7,0,0,0-.2-2.5,5,5,0,0,0-1.5-2.5,4.9,4.9,0,0,0-3-.9,4.8,4.8,0,0,0-2.9.9,4.9,4.9,0,0,0-1.5,2.4C323.4,74.4,323.4,75.3,323.3,76.6Z"/>
<path class="cls-1" d="M352.3,70.8h-4.1V81.1a2.9,2.9,0,0,0,.8,2.3,3.2,3.2,0,0,0,2.3.7h1a.4.4,0,0,1,.1.3v.7c0,.3-.1.4-.4.4h-.9a5.5,5.5,0,0,1-3.4-.9,4.1,4.1,0,0,1-1.1-3.2V71h-2.3a.4.4,0,0,1-.1-.3v-.7a.4.4,0,0,1,.1-.3h2.1c.1,0,.2,0,.2-.1V65.7a.4.4,0,0,1,.1-.3h1.4a.4.4,0,0,1,.1.3v3.6c0,.1.1.1.2.1h3.9a.4.4,0,0,1,.1.3v.7A.4.4,0,0,1,352.3,70.8Z"/>
<path class="cls-1" d="M366.9,70.6a5.4,5.4,0,0,1,1.5,4V85.3c0,.1,0,.2-.1.2l-.3.2h-.9l-.3-.2c-.1,0-.1-.1-.1-.2V83.9c0-.1,0-.1-.1-.1h-.1a5.2,5.2,0,0,1-2.2,1.6,9.3,9.3,0,0,1-2.9.5,6.6,6.6,0,0,1-3.8-1.1,4,4,0,0,1-1.5-3.5,4.7,4.7,0,0,1,1.7-3.7,7.9,7.9,0,0,1,4.9-1.4h3.9a.1.1,0,0,0,.1-.1V74.6a3.9,3.9,0,0,0-1-2.9,4.1,4.1,0,0,0-3.1-1,5.4,5.4,0,0,0-2.7.6,2.8,2.8,0,0,0-1.3,1.8.5.5,0,0,1-.5.4l-1-.2q-.5,0-.3-.3a3.9,3.9,0,0,1,1.9-2.8,6.7,6.7,0,0,1,3.9-1A6.2,6.2,0,0,1,366.9,70.6Zm-1.7,12.8a3.1,3.1,0,0,0,1.5-2.7v-3a.1.1,0,0,0-.1-.1h-3.7a6,6,0,0,0-3.7,1,3,3,0,0,0-1.4,2.6,2.6,2.6,0,0,0,1.1,2.4,4.1,4.1,0,0,0,2.8.8A6,6,0,0,0,365.2,83.4Z"/>
<path class="cls-1" d="M373.6,85.5a.3.3,0,0,1-.1-.2V63.5c0-.1.1-.2.1-.3h1.5a.4.4,0,0,1,.1.3V85.3c0,.1,0,.2-.1.2l-.3.2h-.9Z"/>
<path class="cls-1" d="M381,85.5c-.1,0-.1-.1-.1-.2V63.5a.4.4,0,0,1,.1-.3h1.4c.1.1.2.2.2.3V77.2h.1l7.4-7.7.5-.2h1.1c.2,0,.4.1.4.3l-.2.2-4,4.3a.1.1,0,0,0,0,.2l4.9,10.8v.2c0,.2-.2.3-.4.3h-1c-.2,0-.4-.1-.4-.3l-4.4-9.9h-.1l-4,4v5.8a1990328647664.8,1990328647664.8,0,0,0-.4.4h-1Z"/>
<path class="cls-1" d="M397,85a1.7,1.7,0,0,1-.5-1.2,1.7,1.7,0,0,1,1.7-1.7,2.1,2.1,0,0,1,1.3.5,2.1,2.1,0,0,1,.5,1.2,1.7,1.7,0,0,1-1.8,1.7A1.3,1.3,0,0,1,397,85Z"/><polygon class="cls-2" points="22.6 25.8 26.2 36.9 37.9 36.9 41.5 25.8 32.1 18.9 22.6 25.8"/>
<path class="cls-3" d="M55.6,15l-4.7-3.4,3.8-5.3s.9-1.1-1.5-1.1-6.7.8-9.4,1.2L37.9,2.2a1,1,0,0,0-1.5.2L32,8.3l-4.4,6.1a1.1,1.1,0,0,0,.3,1.5l4.2,3,9.4,6.9,1.6-4.9a1,1,0,0,1,1.3-.7l7.2,2.3,4.3-6A1.1,1.1,0,0,0,55.6,15Z"/>
<path class="cls-4" d="M61.1,41.6c-.6-1.6-2.8-6.1-4.1-8.5l2.2-7a1.1,1.1,0,0,0-.6-1.4l-7-2.2-7.2-2.3a1,1,0,0,0-1.3.7l-1.6,4.9L37.9,36.9H43a1.1,1.1,0,0,1,1.1,1v7.5l7,2.3a.9.9,0,0,0,1.3-.7l1.8-5.6,6.3,2S61.8,43.9,61.1,41.6Z"/>
<path class="cls-5" d="M43,36.9H26.2l1.6,4.9a1,1,0,0,1-.7,1.3L20,45.4v7.4a1,1,0,0,0,1.1,1h5.8v6.6s0,1.4,2,0,4.9-4.6,6.8-6.6H43a1,1,0,0,0,1.1-1V37.9A1.1,1.1,0,0,0,43,36.9Z"/>
<path class="cls-6" d="M27.9,15.9a1.1,1.1,0,0,1-.3-1.5L32,8.3,27.7,2.4a1,1,0,0,0-1.5-.2L21.5,5.6,17.6.3s-.8-1.2-1.5,1.1S14.8,8,14.4,10.8L8.5,15.1a1.1,1.1,0,0,0-.3,1.5l4.3,5.9,4.4,6.1a1.2,1.2,0,0,0,1.5.2l4.2-3,9.5-6.9Z"/>
<path class="cls-7" d="M27.8,41.8l-1.6-4.9L22.6,25.8l-4.2,3a1.2,1.2,0,0,1-1.5-.2l-4.4-6.1L5.6,24.8a1,1,0,0,0-.7,1.3l1.8,5.6-6.2,2s-1.4.4.6,1.8A67.7,67.7,0,0,0,9.4,40l2.3,7a1,1,0,0,0,1.3.7l7-2.3,7.1-2.3A1,1,0,0,0,27.8,41.8Z"/>
</svg>